<svg width="11" height="14" viewBox="0 0 11 14" fill="none" xmlns="http://www.w3.org/2000/svg">
<path fill-rule="evenodd" clip-rule="evenodd" d="M9.375 3.5C9.375 3.29289 9.20711 3.125 9 3.125L2 3.125C1.79289 3.125 1.625 3.29289 1.625 3.5L1.625 4.5C1.625 4.70711 1.79289 4.875 2 4.875L9 4.875C9.20711 4.875 9.375 4.70711 9.375 4.5L9.375 3.5ZM9 1.875C9.89746 1.875 10.625 2.60254 10.625 3.5L10.625 4.5C10.625 5.39746 9.89746 6.125 9 6.125L6.125 6.125L6.125 7.875L7.5 7.875C8.39746 7.875 9.125 8.60254 9.125 9.5L9.125 10.3929C9.125 11.2903 8.39746 12.0179 7.5 12.0179L6.125 12.0179L6.125 14L4.875 14L4.875 12.0179L3.5 12.0179C2.60254 12.0179 1.875 11.2903 1.875 10.3929L1.875 9.5C1.875 8.60254 2.60254 7.875 3.5 7.875L4.875 7.875L4.875 6.125L2 6.125C1.10254 6.125 0.375 5.39746 0.375 4.5L0.375 3.5C0.375 2.60254 1.10254 1.875 2 1.875L4.875 1.875L4.875 -2.5134e-07L6.125 -1.96701e-07L6.125 1.875L9 1.875ZM7.875 9.5C7.875 9.29289 7.70711 9.125 7.5 9.125L3.5 9.125C3.29289 9.125 3.125 9.29289 3.125 9.5L3.125 10.3929C3.125 10.6 3.29289 10.7679 3.5 10.7679L7.5 10.7679C7.70711 10.7679 7.875 10.6 7.875 10.3929L7.875 9.5Z" fill="currentColor"/>
</svg>
