<svg width="15" height="12" viewBox="0 0 15 12" fill="none" xmlns="http://www.w3.org/2000/svg">
<path fill-rule="evenodd" clip-rule="evenodd" d="M4 2.125C3.79289 2.125 3.625 2.29289 3.625 2.5V9.5C3.625 9.70711 3.79289 9.875 4 9.875H5C5.20711 9.875 5.375 9.70711 5.375 9.5V2.5C5.375 2.29289 5.20711 2.125 5 2.125H4ZM2.375 2.5C2.375 1.60254 3.10254 0.875 4 0.875H5C5.89746 0.875 6.625 1.60254 6.625 2.5V5.375H8.375V4C8.375 3.10254 9.10254 2.375 10 2.375H10.8929C11.7903 2.375 12.5179 3.10254 12.5179 4V5.375H14.5V6.625H12.5179V8C12.5179 8.89746 11.7903 9.625 10.8929 9.625H10C9.10254 9.625 8.375 8.89746 8.375 8V6.625H6.625V9.5C6.625 10.3975 5.89746 11.125 5 11.125H4C3.10254 11.125 2.375 10.3975 2.375 9.5V6.625H0.5V5.375H2.375V2.5ZM10 3.625C9.79289 3.625 9.625 3.79289 9.625 4V8C9.625 8.20711 9.79289 8.375 10 8.375H10.8929C11.1 8.375 11.2679 8.20711 11.2679 8V4C11.2679 3.79289 11.1 3.625 10.8929 3.625H10Z" fill="currentColor"/>
</svg>
