<svg width="13" height="10" viewBox="0 0 13 10" fill="none" xmlns="http://www.w3.org/2000/svg">
<path fill-rule="evenodd" clip-rule="evenodd" d="M9.44929 0.768844C8.42417 -0.256283 6.76211 -0.25628 5.73698 0.768846L5.1512 1.35463L6.03508 2.23852L6.62087 1.65273C7.15784 1.11576 8.02844 1.11576 8.56541 1.65273L10.737 3.8243C11.274 4.36127 11.274 5.23187 10.737 5.76884L8.56541 7.94042C8.02844 8.47739 7.15784 8.47739 6.62087 7.94042L6.03508 7.35463L5.1512 8.23852L5.73698 8.8243C6.76211 9.84943 8.42417 9.84943 9.4493 8.8243L11.6209 6.65273C12.646 5.6276 12.646 3.96554 11.6209 2.94042L9.44929 0.768844ZM7.01124 4.33201L4.78902 2.33201L3.95281 3.26113L4.96442 4.17157H0.59314V5.42157H4.96442L3.95281 6.33201L4.78902 7.26113L7.01124 5.26113L7.52742 4.79657L7.01124 4.33201Z" fill="currentColor"/>
</svg>
