<svg width="12" height="10" viewBox="0 0 12 10" fill="none" xmlns="http://www.w3.org/2000/svg">
<path fill-rule="evenodd" clip-rule="evenodd" d="M3.33013 8.8243C4.35526 9.84943 6.01731 9.84943 7.04244 8.8243L8.12822 7.73852L7.24434 6.85463L6.15855 7.94042C5.62158 8.47739 4.75098 8.47739 4.21401 7.94042L2.04244 5.76885C1.50547 5.23187 1.50547 4.36127 2.04244 3.8243L4.21401 1.65273C4.75098 1.11576 5.62158 1.11576 6.15855 1.65273L7.24434 2.73852L8.12822 1.85463L7.04244 0.768845C6.01731 -0.256283 4.35525 -0.25628 3.33013 0.768845L1.15855 2.94042C0.133427 3.96555 0.133429 5.6276 1.15855 6.65273L3.33013 8.8243ZM11.1044 4.33202L8.88216 2.33202L8.04596 3.26113L9.05756 4.17157H4.68628V5.42157H9.05756L8.04596 6.33202L8.88216 7.26113L11.1044 5.26113L11.6206 4.79657L11.1044 4.33202Z" fill="currentColor"/>
</svg>
