<svg width="10" height="10" viewBox="0 0 10 10" fill="none" xmlns="http://www.w3.org/2000/svg">
<path fill-rule="evenodd" clip-rule="evenodd" d="M5.76884 1.65273C5.23187 1.11576 4.36127 1.11576 3.8243 1.65273L1.65273 3.8243C1.11576 4.36127 1.11576 5.23187 1.65273 5.76885L3.8243 7.94042C4.36127 8.47739 5.23187 8.47739 5.76885 7.94042L7.94042 5.76884C8.47739 5.23187 8.47739 4.36127 7.94042 3.8243L5.76884 1.65273ZM2.94042 0.768845C3.96554 -0.25628 5.6276 -0.256283 6.65273 0.768844L8.8243 2.94042C9.84943 3.96554 9.84943 5.6276 8.8243 6.65273L6.65273 8.8243C5.6276 9.84943 3.96555 9.84943 2.94042 8.8243L0.768845 6.65273C-0.25628 5.6276 -0.256283 3.96555 0.768844 2.94042L2.94042 0.768845Z" fill="currentColor"/>
</svg>
