<svg width="14" height="16" viewBox="0 0 14 16" fill="none" xmlns="http://www.w3.org/2000/svg">
<path fill-rule="evenodd" clip-rule="evenodd" d="M7.625 4.3531V0.6875H6.375V4.3531L4.40012 2.70736L3.59988 3.66764L6.59989 6.16764L7 6.50107L7.40012 6.16764L10.4001 3.66764L9.59989 2.70736L7.625 4.3531ZM1.625 4.9375C1.625 4.04004 2.35254 3.3125 3.25 3.3125V2.0625C1.66218 2.0625 0.375 3.34968 0.375 4.9375V10.5625V11.6875C0.375 13.6895 1.99797 15.3125 4 15.3125H10C12.002 15.3125 13.625 13.6895 13.625 11.6875V10.5625V4.9375C13.625 3.34968 12.3378 2.0625 10.75 2.0625V3.3125C11.6475 3.3125 12.375 4.04004 12.375 4.9375V9.9375H9.5C9.02575 9.9375 8.63957 10.1618 8.36729 10.3553C8.2272 10.4549 8.09428 10.5635 7.9815 10.6558C7.86211 10.7534 7.76512 10.8326 7.67289 10.8983C7.56746 10.9734 7.3676 11.0625 7 11.0625C6.6324 11.0625 6.43254 10.9734 6.32711 10.8983C6.23488 10.8326 6.13858 10.7539 6.01919 10.6563C5.90642 10.5641 5.77278 10.4548 5.63271 10.3553C5.36043 10.1618 4.97425 9.9375 4.5 9.9375H1.625V4.9375ZM9.5 11.1875H12.375V11.6875C12.375 12.9992 11.3117 14.0625 10 14.0625H4C2.68832 14.0625 1.625 12.9992 1.625 11.6875V11.1875H4.5C4.57804 11.1875 4.69919 11.2254 4.90863 11.3742C5.00912 11.4456 5.11039 11.5279 5.22794 11.624L5.24129 11.6349C5.34939 11.7233 5.47448 11.8257 5.60189 11.9164C5.95658 12.1691 6.42263 12.3125 7 12.3125C7.57737 12.3125 8.04342 12.1691 8.39811 11.9164C8.52552 11.8257 8.65062 11.7233 8.75871 11.6349L8.77206 11.624C8.88961 11.5279 8.99088 11.4456 9.09137 11.3742C9.30081 11.2254 9.42196 11.1875 9.5 11.1875Z" fill="currentColor"/>
</svg>
