<svg width="14" height="14" viewBox="0 0 14 14" fill="none" xmlns="http://www.w3.org/2000/svg">
<path fill-rule="evenodd" clip-rule="evenodd" d="M4 1.625C2.68832 1.625 1.625 2.68832 1.625 4V8.25H4.5C4.97425 8.25 5.36043 8.47432 5.63271 8.6678C5.7728 8.76736 5.90573 8.87605 6.01851 8.96827C6.1379 9.06589 6.23488 9.1451 6.32711 9.2108C6.43254 9.2859 6.6324 9.375 7 9.375C7.3676 9.375 7.56746 9.2859 7.67289 9.2108C7.76512 9.1451 7.86142 9.06644 7.98081 8.96882C8.0936 8.8766 8.22719 8.76736 8.36729 8.6678C8.63957 8.47432 9.02575 8.25 9.5 8.25H12.375V4C12.375 2.68832 11.3117 1.625 10 1.625H4ZM12.375 9.5H9.5C9.42196 9.5 9.30081 9.5379 9.09137 9.68673C8.99088 9.75814 8.88961 9.8404 8.77206 9.93651L8.75871 9.94743C8.65062 10.0358 8.52552 10.1382 8.39811 10.2289C8.04342 10.4816 7.57737 10.625 7 10.625C6.42263 10.625 5.95658 10.4816 5.60189 10.2289C5.47448 10.1382 5.34939 10.0358 5.24129 9.94743L5.22794 9.93651C5.11039 9.8404 5.00912 9.75814 4.90863 9.68673C4.69919 9.5379 4.57804 9.5 4.5 9.5H1.625V10C1.625 11.3117 2.68832 12.375 4 12.375H10C11.3117 12.375 12.375 11.3117 12.375 10V9.5ZM0.375 4C0.375 1.99797 1.99797 0.375 4 0.375H10C12.002 0.375 13.625 1.99797 13.625 4V10C13.625 12.002 12.002 13.625 10 13.625H4C1.99797 13.625 0.375 12.002 0.375 10V4Z" fill="currentColor"/>
</svg>
