<svg width="14" height="14" viewBox="0 0 14 14" fill="none" xmlns="http://www.w3.org/2000/svg">
<path fill-rule="evenodd" clip-rule="evenodd" d="M1.625 4C1.625 2.68832 2.68832 1.625 4 1.625H10V0.375H4C1.99797 0.375 0.375 1.99797 0.375 4V8.875V10C0.375 12.002 1.99797 13.625 4 13.625H10C12.002 13.625 13.625 12.002 13.625 10V8.875V4H12.375V8.25H9.5C9.02575 8.25 8.63957 8.47432 8.36729 8.6678C8.2272 8.76736 8.09428 8.87605 7.9815 8.96826L7.98147 8.96828L7.98081 8.96882C7.86142 9.06644 7.76512 9.1451 7.67289 9.2108C7.56746 9.2859 7.3676 9.375 7 9.375C6.6324 9.375 6.43254 9.2859 6.32711 9.2108C6.23488 9.1451 6.13858 9.06644 6.01919 8.96882L6.01851 8.96827L6.01846 8.96822C5.90568 8.87601 5.77278 8.76734 5.63271 8.6678C5.36043 8.47432 4.97425 8.25 4.5 8.25H1.625V4ZM9.5 9.5H12.375V10C12.375 11.3117 11.3117 12.375 10 12.375H4C2.68832 12.375 1.625 11.3117 1.625 10V9.5H4.5C4.57804 9.5 4.69919 9.5379 4.90863 9.68673C5.00912 9.75814 5.11039 9.8404 5.22794 9.93651L5.24129 9.94743C5.34939 10.0358 5.47448 10.1382 5.60189 10.2289C5.95658 10.4816 6.42263 10.625 7 10.625C7.57737 10.625 8.04342 10.4816 8.39811 10.2289C8.52552 10.1382 8.65062 10.0358 8.75871 9.94743L8.77206 9.93651C8.88961 9.8404 8.99088 9.75814 9.09137 9.68673C9.30081 9.5379 9.42196 9.5 9.5 9.5ZM10.1193 5.43103L13.4526 1.93103L12.5474 1.06897L9.63313 4.12896L8.4181 3.03544L7.5819 3.96456L9.24856 5.46456L9.7002 5.87104L10.1193 5.43103Z" fill="currentColor"/>
</svg>
