<svg width="14" height="16" viewBox="0 0 14 16" fill="none" xmlns="http://www.w3.org/2000/svg">
<path fill-rule="evenodd" clip-rule="evenodd" d="M6.375 2.3344V6L7.625 6V2.3344L9.59988 3.98014L10.4001 3.01986L7.40012 0.519861L7 0.186432L6.59988 0.519861L3.59988 3.01986L4.40011 3.98014L6.375 2.3344ZM1.625 5.25C1.625 4.35254 2.35254 3.625 3.25 3.625V2.375C1.66218 2.375 0.375 3.66218 0.375 5.25V10.875V12C0.375 14.002 1.99797 15.625 4 15.625H10C12.002 15.625 13.625 14.002 13.625 12V10.875V5.25C13.625 3.66218 12.3378 2.375 10.75 2.375V3.625C11.6475 3.625 12.375 4.35254 12.375 5.25V10.25H9.5C9.02575 10.25 8.63957 10.4743 8.36729 10.6678C8.22719 10.7674 8.09426 10.8761 7.98147 10.9683L7.98081 10.9688C7.86142 11.0664 7.76512 11.1451 7.67289 11.2108C7.56746 11.2859 7.3676 11.375 7 11.375C6.6324 11.375 6.43254 11.2859 6.32711 11.2108C6.23488 11.1451 6.13858 11.0664 6.01919 10.9688L6.01851 10.9683L6.0185 10.9683C5.90572 10.876 5.7728 10.7674 5.63271 10.6678C5.36043 10.4743 4.97425 10.25 4.5 10.25H1.625V5.25ZM9.5 11.5H12.375V12C12.375 13.3117 11.3117 14.375 10 14.375H4C2.68832 14.375 1.625 13.3117 1.625 12V11.5H4.5C4.57804 11.5 4.69919 11.5379 4.90863 11.6867C5.00912 11.7581 5.11039 11.8404 5.22794 11.9365L5.24129 11.9474C5.34939 12.0358 5.47448 12.1382 5.60189 12.2289C5.95658 12.4816 6.42263 12.625 7 12.625C7.57737 12.625 8.04342 12.4816 8.39811 12.2289C8.52552 12.1382 8.65062 12.0358 8.75871 11.9474L8.77206 11.9365C8.88961 11.8404 8.99088 11.7581 9.09137 11.6867C9.30081 11.5379 9.42196 11.5 9.5 11.5Z" fill="currentColor"/>
</svg>
