<svg width="12" height="15" viewBox="0 0 12 15" fill="none" xmlns="http://www.w3.org/2000/svg">
<path fill-rule="evenodd" clip-rule="evenodd" d="M4.8868 1.86025C4.79143 1.93539 4.75 2.02764 4.75 2.18182V2.70232C5.13808 2.63408 5.5543 2.5979 6 2.5979C6.4457 2.5979 6.86192 2.63408 7.25 2.70232V2.18182C7.25 2.02764 7.20857 1.93539 7.1132 1.86025C6.98946 1.76275 6.68487 1.625 6 1.625C5.31513 1.625 5.01054 1.76275 4.8868 1.86025ZM8.5 3.06719V2.18182C8.5 1.74509 8.35393 1.24643 7.8868 0.878386C7.44804 0.532703 6.81513 0.375 6 0.375C5.18487 0.375 4.55196 0.532703 4.1132 0.878386C3.64607 1.24643 3.5 1.74509 3.5 2.18182V3.06719C1.03971 4.10974 0.375 6.5939 0.375 7.95018V14.625H11.625V7.95018C11.625 6.5939 10.9603 4.10974 8.5 3.06719ZM6 3.8479C5.34163 3.8479 4.78679 3.94088 4.31957 4.09394C2.23041 4.77834 1.625 6.79638 1.625 7.95018V13.375H10.375V7.95018C10.375 6.79638 9.76959 4.77834 7.68043 4.09394C7.21321 3.94088 6.65837 3.8479 6 3.8479ZM6 10.3479C4.59465 10.3479 3.47735 10.7204 3.14211 10.8789L2.60789 9.74877C3.10599 9.5133 4.40535 9.09791 6 9.09791C7.59465 9.09791 8.89402 9.5133 9.39211 9.74877L8.85789 10.8789C8.52265 10.7204 7.40535 10.3479 6 10.3479Z" fill="currentColor"/>
</svg>
