<svg width="11" height="16" viewBox="0 0 11 16" fill="none" xmlns="http://www.w3.org/2000/svg">
<path fill-rule="evenodd" clip-rule="evenodd" d="M2.29707 1.51196C3.36517 0.657474 4.63568 0.375 5.5 0.375C6.36432 0.375 7.63483 0.657474 8.70293 1.51196C9.7982 2.38817 10.625 3.82266 10.625 6C10.625 7.85023 10.0282 9.17109 9.16275 10.069C8.58772 10.6656 7.91492 11.0542 7.26724 11.2937L8.20402 12.625H6.09341C6.03566 12.9991 5.93906 13.3798 5.78976 13.7396C5.58591 14.2308 5.27319 14.7076 4.80237 15.0619C4.32475 15.4213 3.72333 15.625 3 15.625V14.375C3.47667 14.375 3.80858 14.2454 4.05075 14.0631C4.29973 13.8757 4.49326 13.6026 4.63524 13.2604C4.71846 13.0599 4.78024 12.8445 4.82427 12.625H2.72301L3.7518 11.3007C3.11215 11.0669 2.44726 10.6881 1.87507 10.1078C0.989876 9.20996 0.375 7.87797 0.375 6C0.375 3.82266 1.2018 2.38817 2.29707 1.51196ZM3.07793 2.48804C2.2982 3.11183 1.625 4.17734 1.625 6C1.625 7.58308 2.13314 8.58912 2.7652 9.2302C3.41045 9.88466 4.23464 10.2082 4.92641 10.3243C5.13963 10.36 5.33436 10.375 5.5 10.375C5.68123 10.375 5.89698 10.3571 6.13338 10.3138C6.82373 10.1873 7.63218 9.85576 8.26274 9.20153C8.88114 8.55993 9.375 7.56061 9.375 6C9.375 4.17734 8.7018 3.11183 7.92207 2.48804C7.11517 1.84253 6.13568 1.625 5.5 1.625C4.86432 1.625 3.88483 1.84253 3.07793 2.48804Z" fill="currentColor"/>
</svg>
