<svg width="14" height="14" viewBox="0 0 14 14" fill="none" xmlns="http://www.w3.org/2000/svg">
<path fill-rule="evenodd" clip-rule="evenodd" d="M7.26724 2.16241C7.12034 2.01317 6.87966 2.01317 6.73276 2.16241L2.36724 6.59722H11.6328L7.26724 2.16241ZM11.625 7.84722H9.375V12.375H11.625V7.84722ZM12.875 12.375H14V13.625H0V12.375H1.125V7.84722H0.886938C0.327964 7.84722 0.045967 7.17349 0.437967 6.77527L5.84194 1.28552C6.47855 0.638806 7.52145 0.638806 8.15806 1.28552L13.562 6.77527C13.9541 7.17355 13.6719 7.84722 13.1131 7.84722H12.875V12.375ZM2.375 7.84722V12.375H4.625V7.84722H2.375ZM5.875 7.84722V12.375H8.125V7.84722H5.875Z" fill="currentColor"/>
</svg>
