<svg width="14" height="14" viewBox="0 0 14 14" fill="none" xmlns="http://www.w3.org/2000/svg">
<path fill-rule="evenodd" clip-rule="evenodd" d="M2.60517 3.02527C2.6113 2.78625 2.69434 2.4174 2.90687 2.12447C3.09935 1.85916 3.41612 1.625 3.99999 1.625C5.25169 1.625 5.35197 2.05637 5.35618 2.05544C5.35684 2.05529 5.35514 2.04454 5.35514 2.01985H6.60514C6.60514 1.15768 5.72044 0.375 3.99999 0.375C2.99974 0.375 2.3132 0.814123 1.8951 1.39042C1.49908 1.93627 1.3638 2.57306 1.35526 3.00757L1.35511 3.01527L1.37186 6.375H0.32074L0.377148 7.0519C0.500942 8.53742 1.25434 10.2858 3.16734 11.296L2.4432 12.7161L3.55678 13.2839L4.32987 11.7678C5.09489 11.9976 5.98065 12.125 6.99999 12.125C8.01933 12.125 8.90509 11.9976 9.67011 11.7678L10.4432 13.2839L11.5568 12.7161L10.8326 11.296C12.7456 10.2858 13.499 8.53742 13.6228 7.0519L13.6792 6.375H2.62188L2.60517 3.02527ZM1.73331 7.625C2.00003 8.70811 2.72715 9.81928 4.24883 10.4185C4.95844 10.6979 5.86052 10.875 6.99999 10.875C8.13946 10.875 9.04154 10.6979 9.75115 10.4185C11.2728 9.81928 12 8.70811 12.2667 7.625H1.73331Z" fill="currentColor"/>
</svg>
