<svg width="15" height="13" viewBox="0 0 15 13" fill="none" xmlns="http://www.w3.org/2000/svg">
<path fill-rule="evenodd" clip-rule="evenodd" d="M7.75 2.25V0.689768L6.84313 1.95938L3.09313 7.20938L2.52841 8H3.5H5.25V11.25V12.8102L6.15687 11.5406L9.90687 6.29062L10.4716 5.5H9.5H7.75V2.25ZM5.75 7H4.47159L6.75 3.81023V6V6.5H7.25H8.52841L6.25 9.68977V7.5V7H5.75ZM1.625 5C1.625 4.24061 2.24061 3.625 3 3.625H3.5V2.375H3C1.55025 2.375 0.375 3.55025 0.375 5V9C0.375 10.4497 1.55025 11.625 3 11.625H3.5V10.375H3C2.24061 10.375 1.625 9.75939 1.625 9V5ZM10 2.375H9.5V3.625H10C10.7594 3.625 11.375 4.24061 11.375 5V9C11.375 9.75939 10.7594 10.375 10 10.375H9.5V11.625H10C11.4497 11.625 12.625 10.4497 12.625 9V5C12.625 3.55025 11.4497 2.375 10 2.375ZM14.625 4H13.375V10H14.625V4Z" fill="currentColor"/>
</svg>
