<svg width="15" height="10" viewBox="0 0 15 10" fill="none" xmlns="http://www.w3.org/2000/svg">
<path fill-rule="evenodd" clip-rule="evenodd" d="M3 1.625C2.24061 1.625 1.625 2.24061 1.625 3V7C1.625 7.75939 2.24061 8.375 3 8.375H10C10.7594 8.375 11.375 7.75939 11.375 7V3C11.375 2.24061 10.7594 1.625 10 1.625H3ZM0.375 3C0.375 1.55025 1.55025 0.375 3 0.375H10C11.4497 0.375 12.625 1.55025 12.625 3V7C12.625 8.44975 11.4497 9.625 10 9.625H3C1.55025 9.625 0.375 8.44975 0.375 7V3ZM13.375 8V2H14.625V8H13.375ZM2.375 3.25C2.375 2.76675 2.76675 2.375 3.25 2.375H3.75C4.23325 2.375 4.625 2.76675 4.625 3.25V6.75C4.625 7.23325 4.23325 7.625 3.75 7.625H3.25C2.76675 7.625 2.375 7.23325 2.375 6.75V3.25ZM5.375 3.25C5.375 2.76675 5.76675 2.375 6.25 2.375H6.75C7.23325 2.375 7.625 2.76675 7.625 3.25V6.75C7.625 7.23325 7.23325 7.625 6.75 7.625H6.25C5.76675 7.625 5.375 7.23325 5.375 6.75V3.25ZM8.375 3.25C8.375 2.76675 8.76675 2.375 9.25 2.375H9.75C10.2332 2.375 10.625 2.76675 10.625 3.25V6.75C10.625 7.23325 10.2332 7.625 9.75 7.625H9.25C8.76675 7.625 8.375 7.23325 8.375 6.75V3.25Z" fill="currentColor"/>
</svg>
