<svg width="12" height="15" viewBox="0 0 12 15" fill="none" xmlns="http://www.w3.org/2000/svg">
<path fill-rule="evenodd" clip-rule="evenodd" d="M2.29136 14.2534L9.94643 0.90789L8.86974 0.290291L1.21467 13.6358L2.29136 14.2534ZM6.00001 14.125C4.8996 14.125 4.08683 13.7838 3.51271 13.297L4.15224 12.182C4.49003 12.5462 5.05132 12.875 6.00001 12.875C7.01901 12.875 7.59105 12.4957 7.91926 12.1006C8.04927 11.9441 8.14535 11.7798 8.21486 11.625H4.47177L5.18877 10.375H10.2896C10.1417 9.225 10.0968 8.87296 10.0711 8.51951C10.06 8.36583 10.0525 8.21188 10.0418 7.99194L10.0418 7.99177L10.0418 7.99173C10.0309 7.76617 10.0165 7.47121 9.99143 7.036C9.93619 6.07843 9.71529 4.68589 9.10215 3.5526L9.80696 2.32386C9.95128 2.52572 10.0814 2.73629 10.1985 2.95205C10.9392 4.31791 11.1793 5.92287 11.2394 6.964C11.2647 7.40308 11.2787 7.6957 11.2894 7.91726L11.2894 7.91745L11.2894 7.91761L11.2894 7.91765L11.2894 7.91781C11.2994 8.12543 11.3063 8.27064 11.3168 8.41561C11.3411 8.75283 11.3844 9.08869 11.5281 10.2056L11.6199 10.9205L11.7103 11.625H11H9.53647C9.43146 12.0257 9.22569 12.4842 8.88075 12.8994C8.30897 13.5876 7.38101 14.125 6.00001 14.125ZM6.00001 1.625C6.49241 1.625 6.92306 1.7066 7.30071 1.85293L7.92827 0.758868C7.37644 0.516247 6.73741 0.375 6.00001 0.375C3.86871 0.375 2.55923 1.55493 1.80156 2.95205C1.06084 4.31791 0.820726 5.92287 0.760661 6.964C0.735317 7.40331 0.721264 7.696 0.710624 7.9176C0.700651 8.12533 0.693677 8.27059 0.683211 8.41561C0.658874 8.75283 0.615659 9.08869 0.471946 10.2056L0.471945 10.2056L0.380082 10.9205L0.289764 11.625H1.00001H1.69538L2.41239 10.375H1.71042C1.85827 9.225 1.90325 8.87296 1.92887 8.51952C1.94001 8.36582 1.94749 8.21187 1.95818 7.99192L1.95818 7.9919C1.96914 7.76632 1.98347 7.47132 2.00859 7.036C2.06391 6.07713 2.28533 4.68209 2.90038 3.54795C3.49848 2.44507 4.439 1.625 6.00001 1.625Z" fill="currentColor"/>
</svg>
