<svg width="12" height="14" viewBox="0 0 12 14" fill="none" xmlns="http://www.w3.org/2000/svg">
<path fill-rule="evenodd" clip-rule="evenodd" d="M2.00857 6.786C2.06389 5.82713 2.28531 4.43209 2.90036 3.29795C3.49846 2.19507 4.43898 1.375 5.99999 1.375C7.561 1.375 8.50152 2.19507 9.09962 3.29795C9.71467 4.43209 9.9361 5.82713 9.99142 6.786C10.0165 7.22135 10.0309 7.51635 10.0418 7.74194C10.0525 7.96188 10.06 8.11583 10.0711 8.26951C10.0968 8.62296 10.1417 8.975 10.2896 10.125H1.7104C1.85825 8.975 1.90323 8.62296 1.92885 8.26952C1.93999 8.11582 1.94747 7.96186 1.95816 7.7419C1.96912 7.51632 1.98346 7.22132 2.00857 6.786ZM5.99999 0.125C3.8687 0.125 2.55921 1.30493 1.80154 2.70205C1.06083 4.06792 0.820711 5.67287 0.760646 6.714C0.735301 7.15331 0.721249 7.446 0.710609 7.6676C0.700636 7.87533 0.693661 8.02059 0.683196 8.16561C0.658859 8.50283 0.615643 8.8387 0.47193 9.95561C0.445013 10.1648 0.414571 10.4014 0.380067 10.6705L0.289749 11.375H0.999993H2.46353C2.56854 11.7757 2.77431 12.2342 3.11925 12.6494C3.69104 13.3376 4.61899 13.875 5.99999 13.875C7.38099 13.875 8.30895 13.3376 8.88074 12.6494C9.22568 12.2342 9.43144 11.7757 9.53645 11.375H11H11.7102L11.6199 10.6705C11.5854 10.4014 11.555 10.1648 11.5281 9.95557C11.3843 8.83869 11.3411 8.50283 11.3168 8.16561C11.3063 8.0206 11.2994 7.87533 11.2894 7.66761C11.2787 7.446 11.2647 7.15331 11.2393 6.714C11.1793 5.67287 10.9392 4.06792 10.1984 2.70205C9.44077 1.30493 8.13129 0.125 5.99999 0.125ZM8.21485 11.375H3.78514C3.85465 11.5298 3.95073 11.6941 4.08074 11.8506C4.40895 12.2457 4.98099 12.625 5.99999 12.625C7.01899 12.625 7.59104 12.2457 7.91925 11.8506C8.04925 11.6941 8.14534 11.5298 8.21485 11.375Z" fill="currentColor"/>
</svg>
