<svg width="17" height="15" viewBox="0 0 17 15" fill="none" xmlns="http://www.w3.org/2000/svg">
<path fill-rule="evenodd" clip-rule="evenodd" d="M7.29768 0.450443L7 0.2892L6.70232 0.450443L0.702323 3.70044L0.375 3.87774V4.25V10.75V11.1223L0.702323 11.2996L6.70232 14.5496L7 14.7108L7.29768 14.5496L10.2977 12.9246L9.70232 11.8254L7.625 12.9507V7.87226L12.375 5.29934V7.5H13.625V4.25V3.87774L13.2977 3.70044L7.29768 0.450443ZM6.375 7.87226V12.9507L1.625 10.3777V5.29934L6.375 7.87226ZM7 6.7892L2.31224 4.25L7 1.7108L11.6878 4.25L7 6.7892ZM11.7883 9.78834C12.3855 9.19119 13.3536 9.19119 13.9508 9.78834C14.5479 10.3855 14.5479 11.3536 13.9508 11.9508C13.3536 12.5479 12.3855 12.5479 11.7883 11.9508C11.1912 11.3536 11.1912 10.3855 11.7883 9.78834ZM14.6579 9.08123C13.6702 8.09356 12.0689 8.09356 11.0812 9.08123C10.0936 10.0689 10.0936 11.6702 11.0812 12.6579C11.9479 13.5245 13.287 13.6307 14.2694 12.9765L15.6464 14.3536L16.3536 13.6464L14.9765 12.2694C15.6307 11.287 15.5245 9.94787 14.6579 9.08123Z" fill="currentColor"/>
</svg>
