<svg width="17" height="17" viewBox="0 0 17 17" fill="none" xmlns="http://www.w3.org/2000/svg">
<path fill-rule="evenodd" clip-rule="evenodd" d="M11.12 4.45986L12.8165 5.27431C12.5869 4.60188 12.2364 3.8934 11.7449 3.31463C10.9652 2.39646 9.83262 1.79435 8.14076 2.18542L7.85925 0.967532C10.0646 0.457761 11.6559 1.27877 12.6977 2.50549C13.3421 3.26434 13.7757 4.17303 14.0454 5.00919L15.2307 3.50967L16.2113 4.28482L13.9159 7.18872L10.579 5.58673L11.12 4.45986ZM11.625 7.38046L6 4.28671L0.375 7.38046V13.6196L6 16.7133L11.625 13.6196V7.38046ZM5.375 10.8696L1.625 8.80705V12.8805L5.375 14.943V10.8696ZM10.375 12.8805L6.625 14.943V10.8696L10.375 8.80705V12.8805ZM9.7031 7.75001L6 9.78671L2.2969 7.75001L6 5.7133L9.7031 7.75001Z" fill="currentColor"/>
</svg>
