<svg width="15" height="15" viewBox="0 0 15 15" fill="none" xmlns="http://www.w3.org/2000/svg">
<path fill-rule="evenodd" clip-rule="evenodd" d="M4.32886 2.36073C4.3858 2.21835 4.52368 2.125 4.67706 2.125H10.323C10.4763 2.125 10.6142 2.21835 10.6711 2.36073L11.0768 3.375H7.5H3.92316L4.32886 2.36073ZM11.8317 1.89649L12.4232 3.375H13C13.8975 3.375 14.625 4.10254 14.625 5V5.97915C14.625 6.59466 14.2772 7.15733 13.7267 7.43259L13.596 7.49795L13.2652 11.7985C13.16 13.1661 12.0196 14.2222 10.6479 14.2222H4.35205C2.98041 14.2222 1.83997 13.1661 1.7348 11.7985L1.40399 7.49795L1.27325 7.43259C0.722778 7.15733 0.375 6.59465 0.375 5.97915V5C0.375 4.10254 1.10254 3.375 2 3.375H2.57684L3.16827 1.89649C3.41504 1.27955 4.01257 0.875 4.67706 0.875H10.323C10.9874 0.875 11.585 1.27955 11.8317 1.89649ZM13.1677 6.31456L12.735 6.53094L9.65179 7.87788C8.27991 8.47725 6.72009 8.47725 5.34821 7.87788L2.26501 6.53094L1.83228 6.31456C1.70526 6.25104 1.625 6.12119 1.625 5.97915V5C1.625 4.79289 1.79291 4.625 2 4.625H3H7.5H12H13C13.2071 4.625 13.375 4.79289 13.375 5V5.97915C13.375 6.12119 13.2947 6.25104 13.1677 6.31456ZM2.98114 11.7026L2.70294 8.08632L4.84778 9.02335C6.53876 9.7621 8.46124 9.76209 10.1522 9.02334L12.2971 8.08632L12.0189 11.7026C11.9638 12.419 11.3665 12.9722 10.6479 12.9722H4.35205C3.63354 12.9722 3.03619 12.419 2.98114 11.7026ZM7.5 8C7.77612 8 8 7.77615 8 7.5C8 7.22385 7.77612 7 7.5 7C7.22388 7 7 7.22385 7 7.5C7 7.77615 7.22388 8 7.5 8Z" fill="currentColor"/>
</svg>
