<svg width="14" height="14" viewBox="0 0 14 14" fill="none" xmlns="http://www.w3.org/2000/svg">
<path fill-rule="evenodd" clip-rule="evenodd" d="M6.5 14V10.9691C6.6638 10.9895 6.83067 11 7 11C7.16933 11 7.3362 10.9895 7.5 10.9691V14H6.5ZM3.84008 9.45283C4.04538 9.71694 4.28307 9.95463 4.54719 10.1599L2.40383 12.3033L1.69672 11.5962L3.84008 9.45283ZM3 7C3 7.16933 3.01052 7.3362 3.03095 7.5H0V6.5H3.03095C3.01052 6.6638 3 6.83067 3 7ZM4.54717 3.84008C4.28306 4.04539 4.04537 4.28308 3.84006 4.54719L1.64643 2.35355L2.35353 1.64644L4.54717 3.84008ZM7 3C6.83067 3 6.6638 3.01052 6.5 3.03095V0H7.5V3.03095C7.3362 3.01052 7.16933 3 7 3ZM10.1599 4.54719C9.95463 4.28307 9.71694 4.04538 9.45283 3.84008L11.5962 1.69669L12.3033 2.4038L10.1599 4.54719ZM11 7C11 6.83067 10.9895 6.6638 10.9691 6.5H14V7.5H10.9691C10.9895 7.3362 11 7.16933 11 7ZM9.45281 10.1599C9.71693 9.95463 9.95461 9.71694 10.1599 9.45283L12.253 11.5459L11.5459 12.253L9.45281 10.1599ZM8.75 7C8.75 7.9665 7.9665 8.75 7 8.75C6.0335 8.75 5.25 7.9665 5.25 7C5.25 6.0335 6.0335 5.25 7 5.25C7.9665 5.25 8.75 6.0335 8.75 7ZM10 7C10 8.65685 8.65685 10 7 10C5.34315 10 4 8.65685 4 7C4 5.34315 5.34315 4 7 4C8.65685 4 10 5.34315 10 7Z" fill="currentColor"/>
</svg>
