<svg width="14" height="14" viewBox="0 0 14 14" fill="none" xmlns="http://www.w3.org/2000/svg">
<path fill-rule="evenodd" clip-rule="evenodd" d="M6.5 14V11.9753C6.66445 11.9916 6.83125 12 7 12C7.16875 12 7.33555 11.9916 7.5 11.9753V14H6.5ZM3.12853 10.1644C3.34012 10.4229 3.57709 10.6599 3.83564 10.8715L2.40383 12.3033L1.69672 11.5962L3.12853 10.1644ZM2 7C2 7.16875 2.00836 7.33555 2.02469 7.5H0V6.5H2.02469C2.00836 6.66445 2 6.83125 2 7ZM3.83562 3.12853C3.57707 3.34012 3.3401 3.57709 3.12852 3.83564L1.64643 2.35355L2.35353 1.64644L3.83562 3.12853ZM7 2C6.83125 2 6.66445 2.00836 6.5 2.02469V0H7.5V2.02469C7.33555 2.00836 7.16875 2 7 2ZM10.8715 3.83564C10.6599 3.57709 10.4229 3.34012 10.1644 3.12853L11.5962 1.69669L12.3033 2.4038L10.8715 3.83564ZM12 7C12 6.83125 11.9916 6.66445 11.9753 6.5H14V7.5H11.9753C11.9916 7.33555 12 7.16875 12 7ZM10.1644 10.8715C10.4229 10.6599 10.6599 10.4229 10.8715 10.1644L12.253 11.5459L11.5459 12.253L10.1644 10.8715ZM8.75 7C8.75 7.9665 7.9665 8.75 7 8.75C6.0335 8.75 5.25 7.9665 5.25 7C5.25 6.0335 6.0335 5.25 7 5.25C7.9665 5.25 8.75 6.0335 8.75 7ZM10 7C10 8.65685 8.65685 10 7 10C5.34315 10 4 8.65685 4 7C4 5.34315 5.34315 4 7 4C8.65685 4 10 5.34315 10 7Z" fill="currentColor"/>
</svg>
