<svg width="14" height="12" viewBox="0 0 14 12" fill="none" xmlns="http://www.w3.org/2000/svg">
<path fill-rule="evenodd" clip-rule="evenodd" d="M2.875 2.63061V3H4.125V2.625H9.875V3H11.125V2.63061C11.8258 2.69376 12.375 3.28274 12.375 4V9C12.375 9.75939 11.7594 10.375 11 10.375H3C2.24061 10.375 1.625 9.75939 1.625 9V4C1.625 3.28274 2.17419 2.69376 2.875 2.63061ZM11.125 1.37792C12.5167 1.44317 13.625 2.59216 13.625 4V9C13.625 10.4497 12.4497 11.625 11 11.625H3C1.55025 11.625 0.375 10.4497 0.375 9V4C0.375 2.59216 1.4833 1.44317 2.875 1.37792V0H4.125V1.375H9.875V0H11.125V1.37792ZM11 5.125H3V3.875H11V5.125Z" fill="currentColor"/>
</svg>
