<svg width="15" height="13" viewBox="0 0 15 13" fill="none" xmlns="http://www.w3.org/2000/svg">
<path fill-rule="evenodd" clip-rule="evenodd" d="M2.875 3V2.63061C2.17419 2.69376 1.625 3.28274 1.625 4V9C1.625 9.75939 2.24061 10.375 3 10.375H8.00001V11.625H3C1.55025 11.625 0.375 10.4497 0.375 9V4C0.375 2.59216 1.4833 1.44317 2.875 1.37792V0H4.12501V1.375H9.87502V0H11.125V1.37792C12.5167 1.44317 13.625 2.59216 13.625 4V6H12.375V4C12.375 3.28274 11.8258 2.69376 11.125 2.63061V3H9.87502V2.625H4.12501V3H2.875ZM3 5.125H11V3.875H3V5.125ZM9.78835 7.78834C10.3855 7.19119 11.3537 7.19119 11.9508 7.78834C12.548 8.38548 12.548 9.35365 11.9508 9.95079C11.3537 10.5479 10.3855 10.5479 9.78835 9.95079C9.1912 9.35365 9.1912 8.38548 9.78835 7.78834ZM12.6579 7.08123C11.6702 6.09356 10.0689 6.09356 9.08124 7.08123C8.09357 8.0689 8.09357 9.67023 9.08124 10.6579C9.94788 11.5245 11.287 11.6307 12.2694 10.9765L13.6465 12.3536L14.3536 11.6464L12.9765 10.2694C13.6308 9.28697 13.5246 7.94786 12.6579 7.08123Z" fill="currentColor"/>
</svg>
