<svg width="14" height="12" viewBox="0 0 14 12" fill="none" xmlns="http://www.w3.org/2000/svg">
<path fill-rule="evenodd" clip-rule="evenodd" d="M2.875 3V2.63061C2.17419 2.69376 1.625 3.28274 1.625 4V9C1.625 9.75939 2.24061 10.375 3 10.375H9V11.625H3C1.55025 11.625 0.375 10.4497 0.375 9V4C0.375 2.59216 1.4833 1.44317 2.875 1.37792V0H4.125V1.375H9.875V0H11.125V1.37792C12.5167 1.44317 13.625 2.59216 13.625 4V7H12.375V4C12.375 3.28274 11.8258 2.69376 11.125 2.63061V3H9.875V2.625H4.125V3H2.875ZM3 5.125H11V3.875H3V5.125ZM12.625 8V9.375H14V10.625H12.625V12H11.375V10.625H10V9.375H11.375V8H12.625Z" fill="currentColor"/>
</svg>
