<svg width="15" height="13" viewBox="0 0 15 13" fill="none" xmlns="http://www.w3.org/2000/svg">
<path fill-rule="evenodd" clip-rule="evenodd" d="M2.875 3V2.6306C2.17419 2.69376 1.625 3.28274 1.625 4V9C1.625 9.75939 2.24061 10.375 3 10.375H8.00001V11.625H3C1.55025 11.625 0.375 10.4497 0.375 9V4C0.375 2.59216 1.4833 1.44317 2.875 1.37792V0H4.125V1.375H9.87501V0H11.125V1.37792C12.5167 1.44317 13.625 2.59216 13.625 4V6H12.375V4C12.375 3.28274 11.8258 2.69376 11.125 2.6306V3H9.87501V2.625H4.125V3H2.875ZM3 5.125H11V3.875H3V5.125ZM13.6036 7.54653C12.4418 6.38477 10.5582 6.38477 9.39645 7.54653C8.23469 8.70829 8.23469 10.5919 9.39645 11.7536C10.4377 12.7949 12.0589 12.9029 13.2204 12.0776L13.25 12.1072L13.6036 11.7536C14.7653 10.5919 14.7653 8.70829 13.6036 7.54653ZM12.8965 8.25364C13.5455 8.90272 13.6483 9.89123 13.2049 10.6478L10.5023 7.94523C11.2589 7.50175 12.2474 7.60455 12.8965 8.25364ZM12.4978 11.3549L9.79515 8.65234C9.35167 9.40894 9.45447 10.3974 10.1036 11.0465C10.7526 11.6956 11.7412 11.7984 12.4978 11.3549Z" fill="currentColor"/>
</svg>
