<svg width="16" height="10" viewBox="0 0 16 10" fill="none" xmlns="http://www.w3.org/2000/svg">
<path fill-rule="evenodd" clip-rule="evenodd" d="M2 0.375C1.10254 0.375 0.375 1.10254 0.375 2V5H1.625V2C1.625 1.79289 1.79289 1.625 2 1.625H9.43478C9.64189 1.625 9.80978 1.79289 9.80978 2V6.33333V8C9.80978 8.20711 9.64189 8.375 9.43478 8.375H5.71739V9.625H9.43478C10.3322 9.625 11.0598 8.89746 11.0598 8V7.28949L14.7492 8.90581L15.625 9.28949V8.33333V1.66667V0.710511L14.7492 1.09419L11.0598 2.71051V2C11.0598 1.10254 10.3322 0.375 9.43478 0.375H2ZM14.375 7.37718L11.0598 5.9248V4.0752L14.375 2.62282V7.37718ZM0 8.125H2.5H5V6.875H2.5H0V8.125Z" fill="currentColor"/>
</svg>
