<svg width="16" height="10" viewBox="0 0 16 10" fill="none" xmlns="http://www.w3.org/2000/svg">
<path fill-rule="evenodd" clip-rule="evenodd" d="M2 1.625C1.79289 1.625 1.625 1.79289 1.625 2V8C1.625 8.20711 1.79289 8.375 2 8.375H9.43478C9.64189 8.375 9.80978 8.20711 9.80978 8V2C9.80978 1.79289 9.64189 1.625 9.43478 1.625H2ZM0.375 2C0.375 1.10254 1.10254 0.375 2 0.375H9.43478C10.3322 0.375 11.0598 1.10254 11.0598 2V2.71051L15.625 0.710511V9.28949L11.0598 7.28949V8C11.0598 8.89746 10.3322 9.625 9.43478 9.625H2C1.10254 9.625 0.375 8.89746 0.375 8V2ZM11.0598 5.9248L14.375 7.37718V2.62282L11.0598 4.0752V5.9248Z" fill="currentColor"/>
</svg>
