<svg width="17" height="11" viewBox="0 0 17 11" fill="none" xmlns="http://www.w3.org/2000/svg">
<path fill-rule="evenodd" clip-rule="evenodd" d="M2.99999 0.375C2.10253 0.375 1.37499 1.10254 1.37499 2V4H2.62499V2C2.62499 1.79289 2.79289 1.625 2.99999 1.625H10.4348C10.6419 1.625 10.8098 1.79289 10.8098 2V6.33333V8C10.8098 8.20711 10.6419 8.375 10.4348 8.375H6.71738V9.625H10.4348C11.3322 9.625 12.0598 8.89746 12.0598 8V7.28949L15.7492 8.90581L16.625 9.28949V8.33333V1.66667V0.710511L15.7492 1.09419L12.0598 2.71051V2C12.0598 1.10254 11.3322 0.375 10.4348 0.375H2.99999ZM15.375 7.37718L12.0598 5.9248V4.0752L15.375 2.62282V7.37718ZM5.60355 5.39645C4.44179 4.23469 2.5582 4.23469 1.39644 5.39645C0.234678 6.55821 0.234678 8.44179 1.39644 9.60355C2.43771 10.6448 4.05886 10.7528 5.22041 9.92752L5.24999 9.95711L5.60355 9.60355C6.76531 8.44179 6.76531 6.55821 5.60355 5.39645ZM4.89644 6.10355C5.54553 6.75264 5.64833 7.74115 5.20485 8.49775L2.50224 5.79515C3.25885 5.35166 4.24735 5.45447 4.89644 6.10355ZM4.49774 9.20485L1.79514 6.50225C1.35166 7.25885 1.45446 8.24736 2.10355 8.89645C2.75263 9.54553 3.74114 9.64834 4.49774 9.20485Z" fill="currentColor"/>
</svg>
