<svg width="18" height="11" viewBox="0 0 18 11" fill="none" xmlns="http://www.w3.org/2000/svg">
<path fill-rule="evenodd" clip-rule="evenodd" d="M4 0.375C3.10254 0.375 2.375 1.10254 2.375 2V4H3.625V2C3.625 1.79289 3.79289 1.625 4 1.625H11.4348C11.6419 1.625 11.8098 1.79289 11.8098 2V6.33333V8C11.8098 8.20711 11.6419 8.375 11.4348 8.375H7.5V9.625H11.4348C12.3322 9.625 13.0598 8.89746 13.0598 8V7.28949L16.7492 8.90581L17.625 9.28949V8.33333V1.66667V0.710511L16.7492 1.09419L13.0598 2.71051V2C13.0598 1.10254 12.3322 0.375 11.4348 0.375H4ZM16.375 7.37718L13.0598 5.9248V4.0752L16.375 2.62282V7.37718ZM2.41334 6.41334C3.01048 5.81619 3.97865 5.81619 4.57579 6.41334C5.17294 7.01048 5.17294 7.97865 4.57579 8.57579C3.97865 9.17294 3.01048 9.17294 2.41334 8.57579C1.81619 7.97865 1.81619 7.01048 2.41334 6.41334ZM5.2829 5.70623C4.29523 4.71856 2.6939 4.71856 1.70623 5.70623C0.718558 6.6939 0.718558 8.29523 1.70623 9.2829C2.57286 10.1495 3.91197 10.2557 4.8944 9.60151L6.27145 10.9786L6.97855 10.2714L5.60151 8.89441C6.25574 7.91197 6.14954 6.57286 5.2829 5.70623Z" fill="currentColor"/>
</svg>
