<svg width="11" height="11" viewBox="0 0 11 11" fill="none" xmlns="http://www.w3.org/2000/svg">
<path fill-rule="evenodd" clip-rule="evenodd" d="M1.80806 1.80806C3.84706 -0.230942 7.15294 -0.230942 9.19194 1.80806C11.2309 3.84706 11.2309 7.15294 9.19194 9.19194L8.75 9.63389L8.72382 9.60771C6.67479 11.22 3.69751 11.0814 1.80806 9.19194C-0.230942 7.15294 -0.230942 3.84706 1.80806 1.80806ZM8.71542 7.83154C9.84433 6.27868 9.70854 4.09242 8.30806 2.69194C6.90758 1.29146 4.72132 1.15568 3.16846 2.28458L8.71542 7.83154ZM2.28458 3.16846L7.83154 8.71542C6.27868 9.84433 4.09242 9.70854 2.69194 8.30806C1.29146 6.90758 1.15568 4.72132 2.28458 3.16846Z" fill="currentColor"/>
</svg>
