<svg width="13" height="17" viewBox="0 0 13 17" fill="none" xmlns="http://www.w3.org/2000/svg">
<path fill-rule="evenodd" clip-rule="evenodd" d="M4.5 2.125C4.29289 2.125 4.125 2.29289 4.125 2.5V3.35484V3.5C4.125 3.70711 4.29289 3.875 4.5 3.875H8.5C8.70711 3.875 8.875 3.70711 8.875 3.5V3.35484V2.5C8.875 2.29289 8.70711 2.125 8.5 2.125H4.5ZM2.875 2.5C2.875 1.60254 3.60254 0.875 4.5 0.875H8.5C9.39746 0.875 10.125 1.60254 10.125 2.5V2.72984H11C11.8975 2.72984 12.625 3.45737 12.625 4.35484V15C12.625 15.8975 11.8975 16.625 11 16.625H2C1.10254 16.625 0.375 15.8975 0.375 15V4.35484C0.375 3.45738 1.10254 2.72984 2 2.72984H2.875V2.5ZM2.94701 3.97984H2C1.79289 3.97984 1.625 4.14773 1.625 4.35484V15C1.625 15.2071 1.79289 15.375 2 15.375H11C11.2071 15.375 11.375 15.2071 11.375 15V4.35484C11.375 4.14773 11.2071 3.97984 11 3.97984H10.053C9.8483 4.64307 9.23043 5.125 8.5 5.125H4.5C3.76957 5.125 3.1517 4.64307 2.94701 3.97984Z" fill="currentColor"/>
</svg>
