<svg width="16" height="15" viewBox="0 0 16 15" fill="none" xmlns="http://www.w3.org/2000/svg">
<path fill-rule="evenodd" clip-rule="evenodd" d="M5.33684 0.884578C6.01509 0.550681 6.88877 0.375 8 0.375C9.11123 0.375 9.98491 0.550681 10.6632 0.884578C11.3536 1.22448 11.8109 1.71372 12.0999 2.27732C12.3822 2.82779 12.4915 3.42448 12.5359 3.97312C12.5625 4.30339 12.5666 4.63858 12.5657 4.94774C12.9822 5.02977 13.499 5.18727 13.985 5.45037C14.7899 5.88609 15.625 6.68409 15.625 8C15.625 9.12584 15.2932 9.92001 14.7919 10.4357C14.302 10.9395 13.6993 11.125 13.25 11.125H2.75C2.30073 11.125 1.69798 10.9395 1.20813 10.4357C0.706784 9.92001 0.375 9.12584 0.375 8C0.375 6.68409 1.21008 5.88609 2.01496 5.45037C2.50096 5.18727 3.01778 5.02977 3.43433 4.94774C3.43343 4.63858 3.43746 4.30339 3.46414 3.97312C3.50845 3.42448 3.61783 2.82779 3.90011 2.27732C4.18911 1.71372 4.6464 1.22448 5.33684 0.884578ZM4.68588 5.17233C4.68669 5.2808 4.6875 5.38992 4.6875 5.5V6.125H4.0625C3.87077 6.125 3.20795 6.22595 2.61004 6.54963C2.02951 6.86391 1.625 7.31591 1.625 8C1.625 8.87416 1.87655 9.32999 2.10437 9.56433C2.34369 9.81048 2.61593 9.875 2.75 9.875H13.25C13.3841 9.875 13.6563 9.81048 13.8956 9.56433C14.1235 9.32999 14.375 8.87416 14.375 8C14.375 7.31591 13.9705 6.86391 13.39 6.54963C12.792 6.22595 12.1292 6.125 11.9375 6.125H11.3125V5.5C11.3125 5.38992 11.3133 5.2808 11.3141 5.17234C11.3169 4.80269 11.3195 4.44061 11.2899 4.07375C11.2522 3.60677 11.1647 3.19304 10.9876 2.84768C10.8172 2.51544 10.5526 2.22344 10.1111 2.00605C9.65728 1.78265 8.98877 1.625 8 1.625C7.01123 1.625 6.34272 1.78265 5.88894 2.00605C5.44735 2.22344 5.18276 2.51544 5.01239 2.84768C4.8353 3.19304 4.7478 3.60677 4.71008 4.07375C4.68045 4.44061 4.68314 4.80269 4.68588 5.17233ZM2.125 14V12H3.375V14H2.125ZM4.75 15V12H6V15H4.75ZM7.375 15V12H8.625V15H7.375ZM10 15V12H11.25V15H10ZM12.625 14V12H13.875V14H12.625Z" fill="currentColor"/>
</svg>
