<svg width="16" height="11" viewBox="0 0 16 11" fill="none" xmlns="http://www.w3.org/2000/svg">
<path fill-rule="evenodd" clip-rule="evenodd" d="M3.9066 2.18275C4.51778 1.05361 5.7766 0.375 8 0.375C10.2234 0.375 11.4822 1.05361 12.0934 2.18275C12.3801 2.71251 12.4909 3.2864 12.5356 3.81122C12.5615 4.11464 12.5662 4.42278 12.5658 4.70768C12.9784 4.7852 13.4904 4.93336 13.9727 5.18072C14.7679 5.58853 15.625 6.35056 15.625 7.63158C15.625 8.71455 15.287 9.47987 14.7799 9.97394C14.2878 10.4535 13.6888 10.625 13.25 10.625H2.75C2.31123 10.625 1.71224 10.4535 1.22007 9.97394C0.713029 9.47987 0.375 8.71455 0.375 7.63158C0.375 6.35056 1.23212 5.58853 2.02728 5.18072C2.50958 4.93337 3.02157 4.7852 3.43425 4.70768C3.43376 4.42278 3.4385 4.11464 3.46437 3.81122C3.50911 3.2864 3.61986 2.71251 3.9066 2.18275ZM4.68588 4.95043C4.68669 5.05362 4.6875 5.15773 4.6875 5.26316V5.88816H4.0625C3.86501 5.88816 3.19781 5.9852 2.59772 6.29297C2.00747 6.59569 1.625 7.01786 1.625 7.63158C1.625 8.44334 1.8703 8.86224 2.09243 9.07869C2.32943 9.30962 2.60544 9.375 2.75 9.375H13.25C13.3946 9.375 13.6706 9.30962 13.9076 9.07869C14.1297 8.86224 14.375 8.44334 14.375 7.63158C14.375 7.01786 13.9925 6.59569 13.4023 6.29297C12.8022 5.9852 12.135 5.88816 11.9375 5.88816H11.3125V5.26316C11.3125 5.15773 11.3133 5.05363 11.3141 4.95043C11.3169 4.60083 11.3195 4.26171 11.2901 3.9174C11.2529 3.48004 11.1667 3.0967 10.9941 2.77778C10.6865 2.20954 9.9766 1.625 8 1.625C6.0234 1.625 5.31347 2.20954 5.0059 2.77778C4.83327 3.0967 4.74714 3.48004 4.70985 3.9174C4.6805 4.26171 4.68315 4.60083 4.68588 4.95043Z" fill="currentColor"/>
</svg>
