<svg width="15" height="15" viewBox="0 0 15 15" fill="none" xmlns="http://www.w3.org/2000/svg">
<path fill-rule="evenodd" clip-rule="evenodd" d="M7.50007 1.76776L5.80628 3.46155L7.50007 5.15533L9.19385 3.46155L7.50007 1.76776ZM4.9224 2.57766L4.03851 3.46155L4.9224 4.34543L6.61618 6.03922L7.50007 6.9231L8.38395 6.03922L10.0777 4.34543L10.9616 3.46155L10.0777 2.57766L8.38395 0.883877L7.50007 -6.1377e-06L6.61618 0.883877L4.9224 2.57766ZM1.76777 7.50005L3.46155 5.80626L5.15534 7.50005L3.46155 9.19383L1.76777 7.50005ZM0 7.50005L0.883883 6.61616L2.57767 4.92238L3.46155 4.03849L4.34544 4.92238L6.03922 6.61616L6.92311 7.50005L6.03922 8.38393L4.34544 10.0777L3.46155 10.9616L2.57767 10.0777L0.883883 8.38393L0 7.50005ZM5.80628 11.5385L7.50007 9.84474L9.19385 11.5385L7.50007 13.2323L5.80628 11.5385ZM4.03851 11.5385L4.9224 10.6546L6.61618 8.96086L7.50007 8.07697L8.38395 8.96086L10.0777 10.6546L10.9616 11.5385L10.0777 12.4224L8.38395 14.1162L7.50007 15.0001L6.61618 14.1162L4.9224 12.4224L4.03851 11.5385ZM9.84467 7.50005L11.5385 5.80626L13.2322 7.50005L11.5385 9.19383L9.84467 7.50005ZM8.0769 7.50005L8.96079 6.61616L10.6546 4.92238L11.5385 4.03849L12.4223 4.92238L14.1161 6.61616L15 7.50005L14.1161 8.38393L12.4223 10.0777L11.5385 10.9616L10.6546 10.0777L8.96079 8.38393L8.0769 7.50005Z" fill="currentColor"/>
</svg>
