<svg width="15" height="12" viewBox="0 0 15 12" fill="none" xmlns="http://www.w3.org/2000/svg">
<path fill-rule="evenodd" clip-rule="evenodd" d="M7.44999 2.5L14.5 2.5L14.5 3.5L7.44999 3.5C7.21836 4.64112 6.20948 5.5 5 5.5C3.79052 5.5 2.78164 4.64112 2.55001 3.5L0.5 3.5L0.5 2.5L2.55001 2.5C2.78164 1.35888 3.79052 0.5 5 0.5C6.20948 0.5 7.21836 1.35888 7.44999 2.5ZM5 4.5C4.17157 4.5 3.5 3.82843 3.5 3C3.5 2.17157 4.17157 1.5 5 1.5C5.82843 1.5 6.5 2.17157 6.5 3C6.5 3.82843 5.82843 4.5 5 4.5ZM0.5 8.5L0.5 9.5L7.55001 9.5C7.78164 10.6411 8.79052 11.5 10 11.5C11.2095 11.5 12.2184 10.6411 12.45 9.5L14.5 9.5L14.5 8.5L12.45 8.5C12.2184 7.35888 11.2095 6.5 10 6.5C8.79052 6.5 7.78164 7.35888 7.55001 8.5L0.5 8.5ZM10 10.5C10.8284 10.5 11.5 9.82843 11.5 9C11.5 8.17157 10.8284 7.5 10 7.5C9.17157 7.5 8.5 8.17157 8.5 9C8.5 9.82843 9.17157 10.5 10 10.5Z" fill="currentColor" fill-opacity="0.8"/>
</svg>
