<svg width="14" height="14" viewBox="0 0 14 14" fill="none" xmlns="http://www.w3.org/2000/svg">
<path fill-rule="evenodd" clip-rule="evenodd" d="M1.54029 2.54029C1.89639 2.18419 2.35727 1.99583 2.875 1.91838V0H4.125V1.91838C4.64273 1.99583 5.10361 2.18419 5.45971 2.54029C5.95387 3.03445 6.125 3.73036 6.125 4.5C6.125 5.26964 5.95387 5.96555 5.45971 6.45971C5.10361 6.81581 4.64273 7.00417 4.125 7.08162V14H2.875V7.08162C2.35727 7.00417 1.89639 6.81581 1.54029 6.45971C1.04613 5.96555 0.875 5.26964 0.875 4.5C0.875 3.73036 1.04613 3.03445 1.54029 2.54029ZM2.125 4.5C2.125 3.88892 2.26351 3.58484 2.42417 3.42417C2.58484 3.26351 2.88892 3.125 3.5 3.125C4.11108 3.125 4.41516 3.26351 4.57583 3.42417C4.73649 3.58484 4.875 3.88892 4.875 4.5C4.875 5.11108 4.73649 5.41516 4.57583 5.57583C4.41516 5.73649 4.11108 5.875 3.5 5.875C2.88892 5.875 2.58484 5.73649 2.42417 5.57583C2.26351 5.41516 2.125 5.11108 2.125 4.5ZM12.4597 11.4597C12.1036 11.8158 11.6427 12.0042 11.125 12.0816V14H9.875V12.0816C9.35727 12.0042 8.89639 11.8158 8.54029 11.4597C8.04613 10.9656 7.875 10.2696 7.875 9.5C7.875 8.73036 8.04613 8.03445 8.54029 7.54029C8.89639 7.18419 9.35727 6.99583 9.875 6.91838V0H11.125V6.91838C11.6427 6.99583 12.1036 7.18419 12.4597 7.54029C12.9539 8.03445 13.125 8.73036 13.125 9.5C13.125 10.2696 12.9539 10.9656 12.4597 11.4597ZM11.875 9.5C11.875 10.1111 11.7365 10.4152 11.5758 10.5758C11.4152 10.7365 11.1111 10.875 10.5 10.875C9.88892 10.875 9.58484 10.7365 9.42418 10.5758C9.26351 10.4152 9.125 10.1111 9.125 9.5C9.125 8.88892 9.26351 8.58484 9.42418 8.42417C9.58484 8.26351 9.88892 8.125 10.5 8.125C11.1111 8.125 11.4152 8.26351 11.5758 8.42417C11.7365 8.58484 11.875 8.88892 11.875 9.5Z" fill="currentColor"/>
</svg>
