<svg width="15" height="14" viewBox="0 0 15 14" fill="none" xmlns="http://www.w3.org/2000/svg">
<path fill-rule="evenodd" clip-rule="evenodd" d="M2.66529 12.4597C2.30919 12.1036 2.12083 11.6427 2.04338 11.125L0.125 11.125L0.125 9.875L2.04338 9.875C2.12083 9.35727 2.30919 8.89639 2.66529 8.54029C3.15945 8.04613 3.85536 7.875 4.625 7.875C5.39464 7.875 6.09055 8.04613 6.58471 8.54029C6.94081 8.89639 7.12917 9.35727 7.20662 9.875L14.125 9.875L14.125 11.125L7.20662 11.125C7.12917 11.6427 6.94081 12.1036 6.58471 12.4597C6.09055 12.9539 5.39464 13.125 4.625 13.125C3.85536 13.125 3.15945 12.9539 2.66529 12.4597ZM4.625 11.875C4.01392 11.875 3.70984 11.7365 3.54917 11.5758C3.38851 11.4152 3.25 11.1111 3.25 10.5C3.25 9.88892 3.38851 9.58484 3.54917 9.42417C3.70984 9.26351 4.01392 9.125 4.625 9.125C5.23608 9.125 5.54016 9.26351 5.70083 9.42417C5.86149 9.58484 6 9.88892 6 10.5C6 11.1111 5.86149 11.4152 5.70083 11.5758C5.54016 11.7365 5.23608 11.875 4.625 11.875ZM11.5847 1.54029C11.9408 1.89639 12.1292 2.35727 12.2066 2.875L14.125 2.875L14.125 4.125L12.2066 4.125C12.1292 4.64273 11.9408 5.10361 11.5847 5.45971C11.0906 5.95386 10.3946 6.125 9.625 6.125C8.85536 6.125 8.15945 5.95386 7.66529 5.45971C7.30919 5.10361 7.12083 4.64273 7.04338 4.125L0.125 4.125L0.125 2.875L7.04338 2.875C7.12083 2.35727 7.30919 1.89639 7.66529 1.54029C8.15945 1.04613 8.85536 0.875 9.625 0.875C10.3946 0.875 11.0906 1.04613 11.5847 1.54029ZM9.625 2.125C10.2361 2.125 10.5402 2.26351 10.7008 2.42417C10.8615 2.58484 11 2.88892 11 3.5C11 4.11108 10.8615 4.41516 10.7008 4.57582C10.5402 4.73649 10.2361 4.875 9.625 4.875C9.01392 4.875 8.70984 4.73649 8.54917 4.57582C8.38851 4.41516 8.25 4.11108 8.25 3.5C8.25 2.88892 8.38851 2.58484 8.54917 2.42417C8.70984 2.26351 9.01392 2.125 9.625 2.125Z" fill="currentColor"/>
</svg>
