<svg width="13" height="13" viewBox="0 0 13 13" fill="none" xmlns="http://www.w3.org/2000/svg">
<path fill-rule="evenodd" clip-rule="evenodd" d="M8.4 1.25H2C1.58579 1.25 1.25 1.58579 1.25 2V8.4C1.25 8.72029 1.45077 8.99369 1.73333 9.10121V10.1333C1.73333 10.2184 1.73864 10.3022 1.74894 10.3844C0.762877 10.2609 0 9.41954 0 8.4V2C0 0.895432 0.895431 0 2 0H8.4C9.41954 0 10.2609 0.762876 10.3844 1.74894C10.3022 1.73864 10.2184 1.73333 10.1333 1.73333H9.10121C8.99369 1.45077 8.72029 1.25 8.4 1.25ZM4.6 3.85H11C11.4142 3.85 11.75 4.18579 11.75 4.6V11C11.75 11.4142 11.4142 11.75 11 11.75H4.6C4.18579 11.75 3.85 11.4142 3.85 11V4.6C3.85 4.18579 4.18579 3.85 4.6 3.85ZM2.6 4.6C2.6 3.49543 3.49543 2.6 4.6 2.6H11C12.1046 2.6 13 3.49543 13 4.6V11C13 12.1046 12.1046 13 11 13H4.6C3.49543 13 2.6 12.1046 2.6 11V4.6Z" fill="currentColor"/>
</svg>
