<svg width="16" height="16" viewBox="0 0 16 16" fill="none" xmlns="http://www.w3.org/2000/svg">
<path fill-rule="evenodd" clip-rule="evenodd" d="M6.625 3L6.625 0.5H5.375L5.375 3H5C3.89543 3 3 3.89543 3 5V5.875H0.5V7.125H3V9.875H0.5V11.125H3V11C3 12.1046 3.89543 13 5 13H5.375V15.5H6.625V13H9.375V15.5H10.625V13H11C12.1046 13 13 12.1046 13 11V10.625H15.5V9.375H13V6.625H15.5V5.375H13V5C13 3.89543 12.1046 3 11 3H10.625V0.5H9.375V3H6.625ZM11 4.25H5C4.58579 4.25 4.25 4.58579 4.25 5V11C4.25 11.4142 4.58579 11.75 5 11.75H11C11.4142 11.75 11.75 11.4142 11.75 11V5C11.75 4.58579 11.4142 4.25 11 4.25Z" fill="currentColor"/>
</svg>
