<svg width="14" height="14" viewBox="0 0 14 14" fill="none" xmlns="http://www.w3.org/2000/svg">
<path fill-rule="evenodd" clip-rule="evenodd" d="M5.625 0L5.625 2L8.375 2V0H9.625V2H10C11.1046 2 12 2.89543 12 4V4.375H14V5.625H12V8.375H14V9.625H12V10C12 11.1046 11.1046 12 10 12H9.625V14H8.375V12H5.625V14H4.375V12H4C2.89543 12 2 11.1046 2 10V9.625H0V8.375H2V5.625H0V4.375H2V4C2 2.89543 2.89543 2 4 2L4.375 2L4.375 0H5.625ZM4 3.25H10C10.4142 3.25 10.75 3.58579 10.75 4V10C10.75 10.4142 10.4142 10.75 10 10.75H4C3.58579 10.75 3.25 10.4142 3.25 10V4C3.25 3.58579 3.58579 3.25 4 3.25ZM5.125 5.125C5 5.25 5 5.5 5 6V8C5 8.5 5 8.75 5.125 8.875C5.25 9 5.5 9 6 9H8C8.5 9 8.75 9 8.875 8.875C9 8.75 9 8.5 9 8V6C9 5.5 9 5.25 8.875 5.125C8.75 5 8.5 5 8 5H6C5.5 5 5.25 5 5.125 5.125Z" fill="currentColor"/>
</svg>
