<svg width="13" height="14" viewBox="0 0 13 14" fill="none" xmlns="http://www.w3.org/2000/svg">
<path fill-rule="evenodd" clip-rule="evenodd" d="M6.5 0.517296L9.06901 6.62064L12.625 3L12.6249 11.4C12.6249 11.748 12.4505 12.0632 12.2052 12.3129C11.9561 12.5666 11.5998 12.7913 11.1341 12.9795C10.2046 13.355 8.73962 13.625 6.49994 13.625C4.26026 13.625 2.79531 13.355 1.8658 12.9795C1.40004 12.7913 1.04377 12.5666 0.794659 12.3129C0.549376 12.0632 0.374939 11.748 0.374939 11.4L0.375 3L3.93099 6.62064L6.5 0.517296ZM6.5 3.73935L4.35473 8.836L1.625 6.05664L1.62494 11.3619C1.63342 11.3759 1.65131 11.4013 1.68647 11.4371C1.7811 11.5334 1.97484 11.6754 2.33408 11.8205C3.05456 12.1116 4.33962 12.375 6.49994 12.375C8.66026 12.375 9.94531 12.1116 10.6658 11.8205C11.025 11.6754 11.2188 11.5334 11.3134 11.4371C11.3486 11.4013 11.3665 11.3759 11.3749 11.3619L11.375 6.05664L8.64527 8.836L6.5 3.73935ZM1.61815 11.3489L1.61869 11.3502Z" fill="currentColor"/>
</svg>
