<svg width="15" height="17" viewBox="0 0 15 17" fill="none" xmlns="http://www.w3.org/2000/svg">
<path fill-rule="evenodd" clip-rule="evenodd" d="M7.5 0.406502L10.4968 7.43498L14.625 3.28564V14.1333C14.625 14.5064 14.4353 14.8503 14.1587 15.1283C13.878 15.4105 13.4717 15.6651 12.9315 15.8805C11.853 16.3107 10.1391 16.625 7.5 16.625C4.86093 16.625 3.14701 16.3107 2.06845 15.8805C1.52828 15.6651 1.12203 15.4105 0.841304 15.1283C0.56468 14.8503 0.375 14.5064 0.375 14.1333V3.28564L4.50317 7.43498L7.5 0.406502ZM7.5 3.59349L4.92541 9.63169L1.625 6.31436V14.1121C1.63171 14.128 1.65527 14.1741 1.72745 14.2467C1.85297 14.3729 2.09672 14.546 2.53155 14.7195C3.40299 15.0671 4.93907 15.375 7.5 15.375C10.0609 15.375 11.597 15.0671 12.4685 14.7195C12.9033 14.546 13.147 14.3729 13.2726 14.2467C13.3447 14.1741 13.3683 14.128 13.375 14.1121V6.31436L10.0746 9.63169L7.5 3.59349Z" fill="currentColor"/>
</svg>
