<svg width="12" height="17" viewBox="0 0 12 17" fill="none" xmlns="http://www.w3.org/2000/svg">
<path fill-rule="evenodd" clip-rule="evenodd" d="M6.66021 3.39493C6.66999 3.24368 6.68247 3.10418 6.69842 2.97502C6.77041 2.39183 6.89967 2.15615 7.0431 2.02706C7.2003 1.88558 7.49706 1.75966 8.17157 1.69221C8.83614 1.62575 9.73623 1.625 11 1.625V0.375H10.9631C9.74435 0.374992 8.78146 0.374987 8.04718 0.448414C7.31544 0.521589 6.6747 0.676916 6.2069 1.09794C5.72533 1.53135 5.54209 2.13942 5.45783 2.82186C5.43615 2.99752 5.42014 3.18717 5.40832 3.39096C2.61001 3.54393 0.998227 4.76247 0.478303 5.55056L0.339508 5.76094L0.385489 6.00876L2.26049 16.114L2.3553 16.625H2.875H9.125H9.6447L9.73951 16.114L11.6145 6.00876L11.6605 5.76094L11.5217 5.55056C11.006 4.76892 9.41633 3.56386 6.66021 3.39493ZM5.37648 4.64496C5.37499 4.90084 5.375 5.17114 5.375 5.45601L5.375 5.5H6.625C6.625 5.19066 6.62508 4.90659 6.62664 4.64516C8.24043 4.75103 9.30406 5.25457 9.90816 5.69271C8.90664 6.08507 7.39622 6.53289 6 6.53289C4.60378 6.53289 3.09336 6.08507 2.09184 5.69272C2.69633 5.25429 3.76094 4.75038 5.37648 4.64496ZM3.3947 15.375L1.82777 6.93006C2.93061 7.34444 4.49746 7.78289 6 7.78289C7.50254 7.78289 9.06939 7.34444 10.1722 6.93006L8.6053 15.375H3.3947Z" fill="currentColor"/>
</svg>
