<svg width="12" height="14" viewBox="0 0 12 14" fill="none" xmlns="http://www.w3.org/2000/svg">
<path fill-rule="evenodd" clip-rule="evenodd" d="M1.82777 3.93006L3.3947 12.375H8.6053L10.1722 3.93006C9.06939 4.34444 7.50254 4.78289 6 4.78289C4.49746 4.78289 2.93061 4.34444 1.82777 3.93006ZM9.90816 2.69271C8.90664 3.08507 7.39622 3.53289 6 3.53289C4.60378 3.53289 3.09336 3.08507 2.09184 2.69272C2.77094 2.20018 4.03074 1.625 6 1.625C7.96926 1.625 9.22906 2.20018 9.90816 2.69271ZM0.478303 2.55056C1.03384 1.70849 2.8359 0.375 6 0.375C9.1641 0.375 10.9662 1.70849 11.5217 2.55056L11.6605 2.76094L9.6447 13.625H2.3553L0.339508 2.76094L0.478303 2.55056Z" fill="currentColor"/>
</svg>
