<svg width="13" height="15" viewBox="0 0 13 15" fill="none" xmlns="http://www.w3.org/2000/svg">
<path fill-rule="evenodd" clip-rule="evenodd" d="M1.625 6.98948V4.29747C1.65983 4.31533 1.69526 4.33285 1.73129 4.35C2.59779 4.76262 3.9515 5.05357 6 5.05357C8.0485 5.05357 9.40221 4.76262 10.2687 4.35C10.3047 4.33285 10.3402 4.31533 10.375 4.29747V6.98948C10.375 6.98871 10.3749 6.98832 10.3747 6.98829C10.3744 6.98822 10.3736 6.99 10.3722 6.9935C10.3576 7.02983 10.2681 7.25152 9.73129 7.50714C9.09779 7.80881 7.9515 8.08929 6 8.08929C4.0485 8.08929 2.90221 7.80881 2.26871 7.50714C1.73192 7.25153 1.64244 7.02983 1.62778 6.9935C1.62637 6.99 1.62565 6.98822 1.62529 6.98829C1.62513 6.98832 1.62505 6.98871 1.625 6.98948ZM11.625 7V2.71429C11.625 2.07172 11.1075 1.47798 10.2687 1.07857C9.40221 0.66595 8.0485 0.375 6 0.375C3.9515 0.375 2.59779 0.66595 1.73129 1.07857C0.892534 1.47798 0.375 2.07172 0.375 2.71429V7V11.2857C0.375 11.9283 0.892534 12.522 1.73129 12.9214C2.59779 13.3341 3.9515 13.625 6 13.625C6.5895 13.625 7.36321 13.556 8.143 13.3728L7.857 12.1559C7.1801 12.315 6.50309 12.375 6 12.375C4.0485 12.375 2.90221 12.0945 2.26871 11.7929C1.73192 11.5372 1.64244 11.3155 1.62778 11.2792C1.62637 11.2757 1.62565 11.2739 1.62529 11.274C1.62513 11.274 1.62505 11.2744 1.625 11.2752V8.58318C1.65983 8.60105 1.69526 8.61856 1.73129 8.63572C2.59779 9.04834 3.9515 9.33929 6 9.33929C8.0485 9.33929 9.40221 9.04834 10.2687 8.63572C10.3047 8.61856 10.3402 8.60105 10.375 8.58318V10H11.625V7ZM9.73129 2.20714C10.2423 2.45048 10.3479 2.66307 10.3695 2.71429C10.3479 2.7655 10.2423 2.97809 9.73129 3.22143C9.09779 3.52309 7.9515 3.80357 6 3.80357C4.0485 3.80357 2.90221 3.52309 2.26871 3.22143C1.75771 2.97809 1.65207 2.7655 1.63045 2.71429C1.65207 2.66307 1.75771 2.45048 2.26871 2.20714C2.90221 1.90548 4.0485 1.625 6 1.625C7.9515 1.625 9.09779 1.90548 9.73129 2.20714ZM11.625 11V12.375H13V13.625H11.625V15H10.375V13.625H9V12.375H10.375V11H11.625Z" fill="currentColor"/>
</svg>
