<svg width="12" height="14" viewBox="0 0 12 14" fill="none" xmlns="http://www.w3.org/2000/svg">
<path fill-rule="evenodd" clip-rule="evenodd" d="M1.625 4.29747V6.98948C1.62505 6.98871 1.62513 6.98832 1.62529 6.98829C1.62937 6.98749 1.68028 7.22694 2.26871 7.50714C2.90221 7.80881 4.0485 8.08929 6 8.08929C7.9515 8.08929 9.09779 7.80881 9.73129 7.50714C10.3197 7.22694 10.3706 6.98749 10.3747 6.98829C10.3749 6.98832 10.375 6.98871 10.375 6.98948V4.29747C10.3402 4.31533 10.3047 4.33285 10.2687 4.35C9.40221 4.76262 8.0485 5.05357 6 5.05357C3.9515 5.05357 2.59779 4.76262 1.73129 4.35C1.69526 4.33285 1.65983 4.31533 1.625 4.29747ZM11.625 2.71429V11.2857C11.625 11.9283 11.1075 12.522 10.2687 12.9214C9.40221 13.3341 8.0485 13.625 6 13.625C3.9515 13.625 2.59779 13.3341 1.73129 12.9214C0.892534 12.522 0.375 11.9283 0.375 11.2857V2.71429C0.375 2.07172 0.892534 1.47798 1.73129 1.07857C2.59779 0.66595 3.9515 0.375 6 0.375C8.0485 0.375 9.40221 0.66595 10.2687 1.07857C11.1075 1.47798 11.625 2.07172 11.625 2.71429ZM1.625 8.58318V11.2752C1.62505 11.2744 1.62513 11.274 1.62529 11.274C1.62937 11.2732 1.68028 11.5127 2.26871 11.7929C2.90221 12.0945 4.0485 12.375 6 12.375C7.9515 12.375 9.09779 12.0945 9.73129 11.7929C10.3197 11.5127 10.3706 11.2732 10.3747 11.274C10.3749 11.274 10.375 11.2744 10.375 11.2752V8.58318C10.3402 8.60105 10.3047 8.61856 10.2687 8.63572C9.40221 9.04834 8.0485 9.33929 6 9.33929C3.9515 9.33929 2.59779 9.04834 1.73129 8.63572C1.69526 8.61856 1.65983 8.60105 1.625 8.58318ZM10.3695 2.71429C10.3479 2.66307 10.2423 2.45048 9.73129 2.20714C9.09779 1.90548 7.9515 1.625 6 1.625C4.0485 1.625 2.90221 1.90548 2.26871 2.20714C1.75771 2.45048 1.65207 2.66307 1.63045 2.71429C1.65207 2.7655 1.75771 2.97809 2.26871 3.22143C2.90221 3.52309 4.0485 3.80357 6 3.80357C7.9515 3.80357 9.09779 3.52309 9.73129 3.22143C10.2423 2.97809 10.3479 2.7655 10.3695 2.71429Z" fill="currentColor"/>
</svg>
