<svg width="13" height="14" viewBox="0 0 13 14" fill="none" xmlns="http://www.w3.org/2000/svg">
<path fill-rule="evenodd" clip-rule="evenodd" d="M1.25 6.98948V4.29747C1.28483 4.31533 1.32026 4.33285 1.35629 4.35C2.22279 4.76262 3.5765 5.05357 5.625 5.05357C7.6735 5.05357 9.02721 4.76262 9.89371 4.35C9.92974 4.33285 9.96517 4.31533 10 4.29747V6.98948C9.99995 6.98871 9.99987 6.98832 9.99971 6.98829C9.99935 6.98822 9.99863 6.99 9.99722 6.9935C9.98256 7.02983 9.89309 7.25152 9.35629 7.50714C8.72279 7.80881 7.5765 8.08929 5.625 8.08929C3.6735 8.08929 2.52721 7.80881 1.89371 7.50714C1.35692 7.25153 1.26744 7.02983 1.25278 6.9935C1.25137 6.99 1.25065 6.98822 1.25029 6.98829C1.25013 6.98832 1.25005 6.98871 1.25 6.98948ZM11.25 7V2.71429C11.25 2.07172 10.7325 1.47798 9.89371 1.07857C9.02721 0.66595 7.6735 0.375 5.625 0.375C3.5765 0.375 2.22279 0.66595 1.35629 1.07857C0.517534 1.47798 0 2.07172 0 2.71429V7V11.2857C0 11.9283 0.517534 12.522 1.35629 12.9214C2.22279 13.3341 3.5765 13.625 5.625 13.625C6.2145 13.625 6.98821 13.556 7.768 13.3728L7.482 12.1559C6.8051 12.315 6.12809 12.375 5.625 12.375C3.6735 12.375 2.52721 12.0945 1.89371 11.7929C1.35692 11.5372 1.26744 11.3155 1.25278 11.2792C1.25137 11.2757 1.25065 11.2739 1.25029 11.274C1.25013 11.274 1.25005 11.2744 1.25 11.2752V8.58318C1.28483 8.60105 1.32026 8.61856 1.35629 8.63572C2.22279 9.04834 3.5765 9.33929 5.625 9.33929C7.6735 9.33929 9.02721 9.04834 9.89371 8.63572C9.92974 8.61856 9.96517 8.60105 10 8.58318V10H11.25V7ZM9.35629 2.20714C9.86729 2.45048 9.97293 2.66307 9.99455 2.71429C9.97293 2.7655 9.86729 2.97809 9.35629 3.22143C8.72279 3.52309 7.5765 3.80357 5.625 3.80357C3.6735 3.80357 2.52721 3.52309 1.89371 3.22143C1.38271 2.97809 1.27707 2.7655 1.25545 2.71429C1.27707 2.66307 1.38271 2.45048 1.89371 2.20714C2.52721 1.90548 3.6735 1.625 5.625 1.625C7.5765 1.625 8.72279 1.90548 9.35629 2.20714ZM8.625 12.625H10.625H12.625V11.375H10.625H8.625V12.625Z" fill="currentColor"/>
</svg>
