<svg width="15" height="15" viewBox="0 0 15 15" fill="none" xmlns="http://www.w3.org/2000/svg">
<path fill-rule="evenodd" clip-rule="evenodd" d="M1.625 6.98948V4.29747C1.65983 4.31533 1.69526 4.33285 1.73129 4.35C2.59779 4.76262 3.9515 5.05357 6 5.05357C8.0485 5.05357 9.40221 4.76262 10.2687 4.35C10.3047 4.33285 10.3402 4.31533 10.375 4.29747V7H11.625V2.71429C11.625 2.07172 11.1075 1.47798 10.2687 1.07857C9.40221 0.66595 8.0485 0.375 6 0.375C3.9515 0.375 2.59779 0.66595 1.73129 1.07857C0.892534 1.47798 0.375 2.07172 0.375 2.71429V7V11.2857C0.375 11.9283 0.892534 12.522 1.73129 12.9214C2.59779 13.3341 3.9515 13.625 6 13.625C6.5895 13.625 7.36321 13.556 8.143 13.3728L7.857 12.1559C7.1801 12.315 6.50309 12.375 6 12.375C4.0485 12.375 2.90221 12.0945 2.26871 11.7929C1.73192 11.5372 1.64244 11.3155 1.62778 11.2792C1.62637 11.2757 1.62565 11.2739 1.62529 11.274C1.62513 11.274 1.62505 11.2744 1.625 11.2752V8.58318C1.65983 8.60105 1.69526 8.61856 1.73129 8.63572C2.59779 9.04834 3.9515 9.33929 6 9.33929C6.93472 9.33929 7.72145 9.27868 8.38149 9.17496C8.65855 9.13142 8.91395 9.08018 9.14913 9.02239L8.85087 7.8085C8.65291 7.85714 8.43244 7.90161 8.18744 7.94011C7.60272 8.032 6.88208 8.08929 6 8.08929C4.0485 8.08929 2.90221 7.80881 2.26871 7.50714C1.73192 7.25153 1.64244 7.02983 1.62778 6.9935C1.62637 6.99 1.62565 6.98822 1.62529 6.98829C1.62513 6.98832 1.62505 6.98871 1.625 6.98948ZM9.73129 3.22143C10.2423 2.97809 10.3479 2.7655 10.3695 2.71429C10.3479 2.66307 10.2423 2.45048 9.73129 2.20714C9.09779 1.90548 7.9515 1.625 6 1.625C4.0485 1.625 2.90221 1.90548 2.26871 2.20714C1.75771 2.45048 1.65207 2.66307 1.63045 2.71429C1.65207 2.7655 1.75771 2.97809 2.26871 3.22143C2.90221 3.52309 4.0485 3.80357 6 3.80357C7.9515 3.80357 9.09779 3.52309 9.73129 3.22143ZM11.0018 9.1C11.0018 9.04477 11.0466 9 11.1018 9H12.4064C12.4616 9 12.5064 9.04477 12.5064 9.1V9.79129H11.0018V9.1ZM13.5064 9.1V9.87661C14.089 10.0823 14.5082 10.6373 14.5082 11.2913V11.8739C14.5082 13.2546 13.3889 14.3739 12.0082 14.3739H11.5C10.1193 14.3739 9 13.2546 9 11.8739V11.2913C9 10.6373 9.41914 10.0823 10.0018 9.87661V9.1C10.0018 8.49249 10.4943 8 11.1018 8H12.4064C13.0139 8 13.5064 8.49249 13.5064 9.1ZM10 11.2913C10 11.0163 10.2245 10.7913 10.5018 10.7913H13.0064C13.2837 10.7913 13.5082 11.0163 13.5082 11.2913V11.8739C13.5082 12.7023 12.8366 13.3739 12.0082 13.3739H11.5C10.6716 13.3739 10 12.7023 10 11.8739V11.2913Z" fill="currentColor"/>
</svg>
