<svg width="9" height="12" viewBox="0 0 9 12" fill="none" xmlns="http://www.w3.org/2000/svg">
<path fill-rule="evenodd" clip-rule="evenodd" d="M3.09162 1.15893C3.72395 0.0858711 5.27605 0.0858687 5.90839 1.15892L8.11296 4.90003C9.09585 6.56796 8.80922 8.69195 7.41937 10.0397C5.79272 11.617 3.20728 11.617 1.58063 10.0397C0.190779 8.69195 -0.0958515 6.56796 0.88704 4.90003L3.09162 1.15893ZM4.83146 1.79354C4.68264 1.541 4.31736 1.541 4.16854 1.79354L1.96396 5.53464C1.27404 6.70541 1.47524 8.1963 2.45082 9.14232C3.59261 10.2495 5.4074 10.2495 6.54919 9.14232C7.52477 8.1963 7.72596 6.70541 7.03604 5.53464L4.83146 1.79354Z" fill="white"/>
</svg>
