<svg width="14" height="14" viewBox="0 0 14 14" fill="none" xmlns="http://www.w3.org/2000/svg">
<path fill-rule="evenodd" clip-rule="evenodd" d="M10.3178 12C9.36749 12.6318 8.22674 13 7 13C3.68629 13 1 10.3137 1 7C1 6.39383 1.08989 5.80865 1.25707 5.25707L3 7V9.5L5.5 10.5L7 10V7L5.5 6L5 5L8 3L5.43768 1.29179C5.40533 1.27022 5.37196 1.25069 5.33778 1.23323C5.86561 1.08136 6.42331 1 7 1C7.28337 1 7.56214 1.01964 7.83505 1.05764L7.55806 1.44194L9.05806 2.94194L9.19187 3.07575L9.37743 3.11286L11.8774 3.61286L11.9024 3.53995C12.3861 4.22397 12.7302 5.01367 12.8933 5.8676L10.5 4.5L8.5 6.5L9 8.5L8.5 10.5L9.5 12H10.3178ZM14 7C14 10.866 10.866 14 7 14C3.13401 14 0 10.866 0 7C0 3.13401 3.13401 0 7 0C10.866 0 14 3.13401 14 7Z" fill="currentColor"/>
</svg>
