<svg width="16" height="13" viewBox="0 0 16 13" fill="none" xmlns="http://www.w3.org/2000/svg">
<path fill-rule="evenodd" clip-rule="evenodd" d="M8.11966 1.69978C8.04202 1.67364 7.95796 1.67364 7.88032 1.69978L2.95846 3.35715L4.92255 4.01852L7.74996 2.78434L8.25003 3.92995L6.68642 4.61248L7.88032 5.01451C7.95796 5.04065 8.04202 5.04065 8.11966 5.01451L13.0415 3.35715L8.11966 1.69978ZM4.38549 5.15664L3.37499 4.81637V7.22384C3.37499 7.60292 3.53037 7.95484 3.78973 8.20804C4.145 7.12453 4.36372 6.00399 4.38549 5.15664ZM4.93137 8.73578C5.28781 7.68299 5.54162 6.54637 5.61522 5.57074L7.48141 6.19915C7.81785 6.31244 8.18213 6.31244 8.51857 6.19915L12.625 4.81637V7.22384C12.625 7.81413 12.2482 8.33856 11.6888 8.52694L7.99999 9.76909L4.93137 8.73578ZM3.32145 9.4263C3.11254 9.892 2.88638 10.3064 2.65443 10.6392C2.30559 11.1397 2.01723 11.3494 1.84164 11.3954L2.15834 12.6046C2.78276 12.4411 3.29022 11.9131 3.67992 11.354C3.97168 10.9354 4.24013 10.437 4.47797 9.90207L7.99999 11.0881L12.0877 9.71158C13.1557 9.35195 13.875 8.35077 13.875 7.22384V4.39546L15.1994 3.94947V2.76483L8.51857 0.515144C8.18213 0.401853 7.81785 0.401853 7.48141 0.515144L0.800537 2.76483L0.800537 3.94947L2.12499 4.39546V7.22384C2.12499 8.1275 2.58751 8.95031 3.32145 9.4263Z" fill="currentColor"/>
</svg>
