<svg width="14" height="14" viewBox="0 0 14 14" fill="none" xmlns="http://www.w3.org/2000/svg">
<path fill-rule="evenodd" clip-rule="evenodd" d="M12.75 7C12.75 10.1756 10.1756 12.75 7 12.75C3.82436 12.75 1.25 10.1756 1.25 7C1.25 3.82436 3.82436 1.25 7 1.25C10.1756 1.25 12.75 3.82436 12.75 7ZM14 7C14 10.866 10.866 14 7 14C3.13401 14 0 10.866 0 7C0 3.13401 3.13401 0 7 0C10.866 0 14 3.13401 14 7ZM4 6C4.55228 6 5 5.55228 5 5C5 4.44772 4.55228 4 4 4C3.44772 4 3 4.44772 3 5C3 5.55228 3.44772 6 4 6ZM11 5C11 5.55228 10.5523 6 10 6C9.44771 6 9 5.55228 9 5C9 4.44772 9.44771 4 10 4C10.5523 4 11 4.44772 11 5ZM3.57086 9.45438C3.59933 9.48127 3.6359 9.51879 3.68055 9.56462C4.09401 9.98889 5.20118 11.125 7 11.125C8.98326 11.125 10.2187 9.774 10.5106 9.36043L9.4894 8.63957C9.31074 8.89266 8.40497 9.875 7 9.875C5.7624 9.875 5.0231 9.13643 4.58304 8.69681C4.52703 8.64086 4.47586 8.58975 4.42914 8.54562L3.57086 9.45438Z" fill="currentColor"/>
</svg>
