<svg width="14" height="14" viewBox="0 0 14 14" fill="none" xmlns="http://www.w3.org/2000/svg">
<path fill-rule="evenodd" clip-rule="evenodd" d="M12.75 7C12.75 10.1756 10.1756 12.75 7 12.75C3.82436 12.75 1.25 10.1756 1.25 7C1.25 3.82436 3.82436 1.25 7 1.25C10.1756 1.25 12.75 3.82436 12.75 7ZM14 7C14 10.866 10.866 14 7 14C3.13401 14 0 10.866 0 7C0 3.13401 3.13401 0 7 0C10.866 0 14 3.13401 14 7ZM4 6C4.55228 6 5 5.55228 5 5C5 4.44772 4.55228 4 4 4C3.44772 4 3 4.44772 3 5C3 5.55228 3.44772 6 4 6ZM11 5C11 5.55228 10.5523 6 10 6C9.44771 6 9 5.55228 9 5C9 4.44772 9.44771 4 10 4C10.5523 4 11 4.44772 11 5ZM10.4291 10.0456C10.4007 10.0187 10.3641 9.98121 10.3194 9.93538C9.90599 9.51111 8.79882 8.375 7 8.375C5.01674 8.375 3.78133 9.726 3.4894 10.1396L4.5106 10.8604C4.68926 10.6073 5.59503 9.625 7 9.625C8.2376 9.625 8.9769 10.3636 9.41696 10.8032C9.47297 10.8591 9.52414 10.9103 9.57086 10.9544L10.4291 10.0456Z" fill="currentColor"/>
</svg>
