<svg width="15" height="13" viewBox="0 0 15 13" fill="none" xmlns="http://www.w3.org/2000/svg">
<path fill-rule="evenodd" clip-rule="evenodd" d="M8.60576 1.27655C9.2415 0.63516 10.2783 0.63516 10.914 1.27655L13.7461 4.13382C14.374 4.76724 14.374 5.78831 13.7461 6.42173L8.83645 11.375H13.6971V12.625H2.77241L0.525421 9.43188L8.60576 1.27655ZM7.07645 11.375L8.15118 10.2907L4.77639 6.91594L2.14977 9.56812L3.42126 11.375H7.07645ZM9.03115 9.40294L12.8583 5.54177C13.0032 5.39559 13.0032 5.15996 12.8583 5.01379L10.0262 2.15652C9.8795 2.0085 9.64025 2.0085 9.49354 2.15652L5.65618 6.02796L9.03115 9.40294Z" fill="currentColor"/>
</svg>
