<svg width="13" height="16" viewBox="0 0 13 16" fill="none" xmlns="http://www.w3.org/2000/svg">
<path fill-rule="evenodd" clip-rule="evenodd" d="M4.05556 0H3.43056V0.625V4.21428L0.188394 12.7451C-0.340123 14.1357 0.687091 15.625 2.17477 15.625H10.8253C12.3129 15.625 13.3402 14.1357 12.8116 12.7451L9.56945 4.21428V0.625V0H8.94445H4.05556ZM4.68056 4.32904V1.25H8.31945V4.32904V4.4438L8.36022 4.55108L9.84874 8.46767C9.32346 8.68254 8.88652 8.77657 8.46934 8.77657C7.92342 8.77657 7.34365 8.61555 6.57635 8.23342C5.74408 7.81892 5.05769 7.55918 4.32839 7.55918C4.03293 7.55918 3.74452 7.60181 3.45059 7.68009L4.63979 4.55108L4.68056 4.4438V4.32904Z" fill="currentColor"/>
</svg>
