<svg width="14" height="14" viewBox="0 0 14 14" fill="none" xmlns="http://www.w3.org/2000/svg">
<path fill-rule="evenodd" clip-rule="evenodd" d="M0.96986 4.74708C0.567608 3.55968 0.774802 2.48504 1.13301 1.82498L1.43111 1.27566L6.0605 3.78794C7.04696 2.19075 8.16992 1.33673 9.25298 0.969821C10.4404 0.567569 11.515 0.774761 12.1751 1.13297L12.7244 1.43107L10.2121 6.06045C11.8093 7.04691 12.6633 8.16988 13.0302 9.25294C13.4325 10.4403 13.2253 11.515 12.8671 12.175L12.569 12.7244L7.9396 10.2121C6.95314 11.8093 5.83018 12.6633 4.74712 13.0302C3.55973 13.4325 2.48509 13.2253 1.82503 12.8671L1.2757 12.5689L3.78799 7.93957C2.19079 6.9531 1.33677 5.83014 0.96986 4.74708ZM2.15377 4.34601C2.43614 5.17951 3.18301 6.20855 4.92536 7.15409L5.47468 7.4522L3.0251 11.966C3.38882 12.0269 3.84424 12.0163 4.34605 11.8463C5.17955 11.5639 6.20858 10.817 7.15412 9.0747L7.45223 8.52538L11.9661 10.975C12.027 10.6112 12.0163 10.1558 11.8463 9.65401C11.564 8.8205 10.8171 7.79147 9.07475 6.84592L8.52542 6.54782L10.975 2.034C10.6113 1.97311 10.1559 1.98373 9.65405 2.15373C8.82055 2.4361 7.79152 3.18297 6.84598 4.92531L6.54787 5.47464L2.03404 3.02506C1.97315 3.38878 1.98377 3.8442 2.15377 4.34601ZM7.19196 7.19195C7.29797 7.08594 7.29797 6.91407 7.19196 6.80806C7.08595 6.70206 6.91408 6.70206 6.80808 6.80806C6.70207 6.91407 6.70207 7.08594 6.80808 7.19195C6.91408 7.29795 7.08596 7.29795 7.19196 7.19195ZM6.30808 7.69195C5.92593 7.3098 5.92593 6.69021 6.30808 6.30806C6.69023 5.92592 7.30981 5.92591 7.69196 6.30806C8.07411 6.69021 8.07411 7.3098 7.69196 7.69195C7.30981 8.0741 6.69023 8.0741 6.30808 7.69195Z" fill="currentColor"/>
</svg>
