<svg width="12" height="14" viewBox="0 0 12 14" fill="none" xmlns="http://www.w3.org/2000/svg">
<path fill-rule="evenodd" clip-rule="evenodd" d="M1.625 4C1.625 2.68832 2.68832 1.625 4 1.625H6.375V4.5C6.375 5.39746 7.10254 6.125 8 6.125H10.375V10C10.375 11.3117 9.31168 12.375 8 12.375V13.625C10.002 13.625 11.625 12.002 11.625 10V5.5V5.26238L11.4671 5.08477L7.46713 0.584773L7.28067 0.375H7H4C1.99797 0.375 0.375 1.99797 0.375 4V10C0.375 12.002 1.99797 13.625 4 13.625V12.375C2.68832 12.375 1.625 11.3117 1.625 10V4ZM9.60822 4.875L7.625 2.64387V4.5C7.625 4.70711 7.79289 4.875 8 4.875H9.60822ZM6.625 10.6656V7H5.375V10.6656L3.40012 9.01986L2.59988 9.98014L5.59989 12.4801L6 12.8136L6.40012 12.4801L9.40012 9.98014L8.59989 9.01986L6.625 10.6656Z" fill="currentColor"/>
</svg>
