<svg width="14" height="16" viewBox="0 0 14 16" fill="none" xmlns="http://www.w3.org/2000/svg">
<path fill-rule="evenodd" clip-rule="evenodd" d="M1.625 4.5C1.625 3.18832 2.68832 2.125 4 2.125H6.375V5C6.375 5.89746 7.10254 6.625 8 6.625H10.375V9.75H11.625V6V5.76238L11.4671 5.58477L7.46713 1.08477L7.28067 0.875H7H4C1.99797 0.875 0.375 2.49797 0.375 4.5V10.5C0.375 12.502 1.99797 14.125 4 14.125H7.5V12.875H4C2.68832 12.875 1.625 11.8117 1.625 10.5V4.5ZM9.60822 5.375L7.625 3.14387V5C7.625 5.20711 7.79289 5.375 8 5.375H9.60822ZM11.625 11V12.875H13.5V14.125H11.625V16H10.375V14.125H8.5V12.875H10.375V11H11.625Z" fill="currentColor"/>
</svg>
