<svg width="13" height="15" viewBox="0 0 13 15" fill="none" xmlns="http://www.w3.org/2000/svg">
<path fill-rule="evenodd" clip-rule="evenodd" d="M2.125 3.75C2.125 2.43832 3.18832 1.375 4.5 1.375H6.875V4.25C6.875 5.14746 7.60254 5.875 8.5 5.875H10.875V8.75H12.125V5.25V5.01238L11.9671 4.83477L7.96713 0.334773L7.78067 0.125H7.5H4.5C2.49797 0.125 0.875 1.74797 0.875 3.75V9.75C0.875 11.752 2.49797 13.375 4.5 13.375H6.5V12.125H4.5C3.18832 12.125 2.125 11.0617 2.125 9.75V3.75ZM10.1082 4.625L8.125 2.39387V4.25C8.125 4.45711 8.29289 4.625 8.5 4.625H10.1082ZM9.61925 13.681L12.9526 10.181L12.0474 9.31897L9.13313 12.379L7.9181 11.2854L7.0819 12.2146L8.74856 13.7146L9.2002 14.121L9.61925 13.681Z" fill="currentColor"/>
</svg>
