<svg width="14" height="14" viewBox="0 0 14 14" fill="none" xmlns="http://www.w3.org/2000/svg">
<path fill-rule="evenodd" clip-rule="evenodd" d="M1.25 4.125C1.25 2.81332 2.31332 1.75 3.625 1.75H6V4.625C6 5.52246 6.72754 6.25 7.625 6.25H10V9.375H11.25V5.625V5.38738L11.0921 5.20977L7.09213 0.709773L6.90567 0.5H6.625H3.625C1.62297 0.5 0 2.12297 0 4.125V10.125C0 12.127 1.62297 13.75 3.625 13.75H7.125V12.5H3.625C2.31332 12.5 1.25 11.4367 1.25 10.125V4.125ZM9.23322 5L7.25 2.76887V4.625C7.25 4.83211 7.41789 5 7.625 5H9.23322ZM8.125 12.125H10.625H13.125V10.875H10.625H8.125V12.125Z" fill="currentColor"/>
</svg>
