<svg width="14" height="16" viewBox="0 0 14 16" fill="none" xmlns="http://www.w3.org/2000/svg">
<path fill-rule="evenodd" clip-rule="evenodd" d="M1.625 4C1.625 2.68832 2.68832 1.625 4 1.625H6.375V4.5C6.375 5.39746 7.10254 6.125 8 6.125H10.375V8.5H11.625V5.5V5.26238L11.4671 5.08477L7.46713 0.584773L7.28067 0.375H7H4C1.99797 0.375 0.375 1.99797 0.375 4V10C0.375 12.002 1.99797 13.625 4 13.625H7.5V12.375H4C2.68832 12.375 1.625 11.3117 1.625 10V4ZM9.60822 4.875L7.625 2.64387V4.5C7.625 4.70711 7.79289 4.875 8 4.875H9.60822ZM10.0018 10.1C10.0018 10.0448 10.0466 10 10.1018 10H11.4064C11.4616 10 11.5064 10.0448 11.5064 10.1V10.7913H10.0018V10.1ZM12.5064 10.1V10.8766C13.089 11.0823 13.5082 11.6373 13.5082 12.2913V12.8739C13.5082 14.2546 12.3889 15.3739 11.0082 15.3739H10.5C9.11929 15.3739 8 14.2546 8 12.8739V12.2913C8 11.6373 8.41914 11.0823 9.00181 10.8766V10.1C9.00181 9.49249 9.4943 9 10.1018 9H11.4064C12.0139 9 12.5064 9.49249 12.5064 10.1ZM9 12.2913C9 12.0163 9.22449 11.7913 9.50181 11.7913H12.0064C12.2837 11.7913 12.5082 12.0163 12.5082 12.2913V12.8739C12.5082 13.7023 11.8366 14.3739 11.0082 14.3739H10.5C9.67157 14.3739 9 13.7023 9 12.8739V12.2913Z" fill="currentColor"/>
</svg>
