<svg width="13" height="15" viewBox="0 0 13 15" fill="none" xmlns="http://www.w3.org/2000/svg">
<path fill-rule="evenodd" clip-rule="evenodd" d="M2.125 4.5C2.125 3.18832 3.18832 2.125 4.5 2.125H6.875V5C6.875 5.89746 7.60254 6.625 8.5 6.625H10.875V8.5H12.125V5.76238L7.78067 0.875H4.5C2.49797 0.875 0.875 2.49797 0.875 4.5V10.5C0.875 12.502 2.49797 14.125 4.5 14.125H6.5V12.875H4.5C3.18832 12.875 2.125 11.8117 2.125 10.5V4.5ZM10.1082 5.375L8.125 3.14387V5C8.125 5.20711 8.29289 5.375 8.5 5.375H10.1082ZM8.28834 10.2883C8.88548 9.69119 9.85365 9.69119 10.4508 10.2883C11.0479 10.8855 11.0479 11.8536 10.4508 12.4508C9.85365 13.0479 8.88548 13.0479 8.28834 12.4508C7.69119 11.8536 7.69119 10.8855 8.28834 10.2883ZM11.1579 9.58123C10.1702 8.59356 8.5689 8.59356 7.58123 9.58123C6.59356 10.5689 6.59356 12.1702 7.58123 13.1579C8.44786 14.0245 9.78697 14.1307 10.7694 13.4765L12.1464 14.8536L12.8536 14.1464L11.4765 12.7694C12.1307 11.787 12.0245 10.4479 11.1579 9.58123Z" fill="currentColor"/>
</svg>
