<svg width="13" height="15" viewBox="0 0 13 15" fill="none" xmlns="http://www.w3.org/2000/svg">
<path fill-rule="evenodd" clip-rule="evenodd" d="M1.625 4C1.625 2.68832 2.68832 1.625 4 1.625H6.375V4.5C6.375 5.39746 7.10254 6.125 8 6.125H10.375V8H11.625V5.5V5.26238L11.4671 5.08477L7.46713 0.584773L7.28067 0.375H7H4C1.99797 0.375 0.375 1.99797 0.375 4V10C0.375 12.002 1.99797 13.625 4 13.625H6V12.375H4C2.68832 12.375 1.625 11.3117 1.625 10V4ZM9.60822 4.875L7.625 2.64387V4.5C7.625 4.70711 7.79289 4.875 8 4.875H9.60822ZM11.6036 9.39645C10.4418 8.23469 8.55821 8.23469 7.39645 9.39645C6.23469 10.5582 6.23469 12.4418 7.39645 13.6036C8.43772 14.6448 10.0589 14.7528 11.2204 13.9275L11.25 13.9571L11.6036 13.6036C12.7653 12.4418 12.7653 10.5582 11.6036 9.39645ZM10.8964 10.1036C11.5455 10.7526 11.6483 11.7411 11.2049 12.4977L8.50225 9.79515C9.25885 9.35166 10.2474 9.45447 10.8964 10.1036ZM10.4977 13.2049L7.79515 10.5023C7.35166 11.2589 7.45447 12.2474 8.10355 12.8964C8.75264 13.5455 9.74115 13.6483 10.4977 13.2049Z" fill="currentColor"/>
</svg>
