<svg width="12" height="14" viewBox="0 0 12 14" fill="none" xmlns="http://www.w3.org/2000/svg">
<path fill-rule="evenodd" clip-rule="evenodd" d="M4 1.625C2.68832 1.625 1.625 2.68832 1.625 4V10C1.625 11.3117 2.68832 12.375 4 12.375H8C9.31168 12.375 10.375 11.3117 10.375 10V6.125H8C7.10254 6.125 6.375 5.39746 6.375 4.5V1.625H4ZM7.625 2.64387L9.60822 4.875H8C7.79289 4.875 7.625 4.70711 7.625 4.5V2.64387ZM0.375 4C0.375 1.99797 1.99797 0.375 4 0.375H7.28067L11.625 5.26238V10C11.625 12.002 10.002 13.625 8 13.625H4C1.99797 13.625 0.375 12.002 0.375 10V4Z" fill="currentColor"/>
</svg>
