<svg width="10" height="12" viewBox="0 0 10 12" fill="none" xmlns="http://www.w3.org/2000/svg">
<path fill-rule="evenodd" clip-rule="evenodd" d="M1.625 1.65311V4.83004C2.84181 4.46624 4.07065 4.58656 5.27951 5.19098C6.32143 5.71195 7.33811 5.76391 8.375 5.34689V2.16996C7.15819 2.53376 5.92935 2.41344 4.72049 1.80902C3.67857 1.28805 2.66189 1.23609 1.625 1.65311ZM1.625 6.15311C2.66189 5.73609 3.67857 5.78805 4.72049 6.30902C6.22978 7.06366 7.77022 7.06366 9.27951 6.30902L9.625 6.13627V0.238729L8.72049 0.690983C7.56311 1.26967 6.43689 1.26967 5.27951 0.690983C3.77022 -0.063661 2.22978 -0.063661 0.720491 0.690983L0.375 0.863729V11.25H1.625V6.15311Z" fill="currentColor"/>
</svg>
