<svg width="16" height="17" viewBox="0 0 16 17" fill="none" xmlns="http://www.w3.org/2000/svg">
<path fill-rule="evenodd" clip-rule="evenodd" d="M0.375 3.5V4.125V11.375V12.5C0.375 14.502 1.99797 16.125 4 16.125H5.08333H10.9167H12C14.002 16.125 15.625 14.502 15.625 12.5V11.375V6.5C15.625 4.49797 14.002 2.875 12 2.875H9.85387L8.82724 1.16394C8.53356 0.674486 8.00461 0.375 7.43381 0.375H3.5C1.77411 0.375 0.375 1.77411 0.375 3.5ZM7.75537 1.80706L8.39613 2.875H1.73169C1.98909 2.14675 2.68361 1.625 3.5 1.625H7.43381C7.56553 1.625 7.6876 1.69411 7.75537 1.80706ZM9.5 4.125H1.625V11.375V12.5C1.625 13.8117 2.68832 14.875 4 14.875H5.08333H10.9167H12C13.3117 14.875 14.375 13.8117 14.375 12.5V11.375V6.5C14.375 5.18832 13.3117 4.125 12 4.125H9.5ZM8.625 7V8.875H10.5V10.125H8.625V12H7.375V10.125H5.5V8.875H7.375V7H8.625Z" fill="currentColor"/>
</svg>
