<svg width="16" height="16" viewBox="0 0 16 16" fill="none" xmlns="http://www.w3.org/2000/svg">
<path fill-rule="evenodd" clip-rule="evenodd" d="M0 3.125V3.75V11V12.125C0 14.127 1.62297 15.75 3.625 15.75H4.70833H10.5417H11.625C13.627 15.75 15.25 14.127 15.25 12.125V11V6.125C15.25 4.12297 13.627 2.5 11.625 2.5H9.47887L8.45224 0.788944C8.15856 0.299486 7.62961 0 7.05881 0H3.125C1.39911 0 0 1.39911 0 3.125ZM7.38037 1.43206L8.02113 2.5H1.35669C1.61409 1.77175 2.30861 1.25 3.125 1.25H7.05881C7.19053 1.25 7.3126 1.31911 7.38037 1.43206ZM9.125 3.75H1.25V11V12.125C1.25 13.4367 2.31332 14.5 3.625 14.5H4.70833H10.5417H11.625C12.9367 14.5 14 13.4367 14 12.125V11V6.125C14 4.81332 12.9367 3.75 11.625 3.75H9.125ZM6.41334 7.41334C7.01048 6.81619 7.97865 6.81619 8.57579 7.41334C9.17294 8.01048 9.17294 8.97865 8.57579 9.57579C7.97865 10.1729 7.01048 10.1729 6.41334 9.57579C5.81619 8.97865 5.81619 8.01048 6.41334 7.41334ZM9.2829 6.70623C8.29523 5.71856 6.6939 5.71856 5.70623 6.70623C4.71856 7.6939 4.71856 9.29523 5.70623 10.2829C6.57286 11.1495 7.91197 11.2557 8.89441 10.6015L10.2714 11.9786L10.9786 11.2714L9.60151 9.89441C10.2557 8.91197 10.1495 7.57286 9.2829 6.70623Z" fill="currentColor"/>
</svg>
