<svg width="16" height="17" viewBox="0 0 16 17" fill="none" xmlns="http://www.w3.org/2000/svg">
<path fill-rule="evenodd" clip-rule="evenodd" d="M0.375 3.5V4.125V11.375V12.5C0.375 14.502 1.99797 16.125 4 16.125H5.08333H10.9167H12C14.002 16.125 15.625 14.502 15.625 12.5V11.375V6.5C15.625 4.49797 14.002 2.875 12 2.875H9.85387L8.82724 1.16394C8.53356 0.674486 8.00461 0.375 7.43381 0.375H3.5C1.77411 0.375 0.375 1.77411 0.375 3.5ZM7.75537 1.80706L8.39613 2.875H1.73169C1.98909 2.14675 2.68361 1.625 3.5 1.625H7.43381C7.56553 1.625 7.6876 1.69411 7.75537 1.80706ZM9.5 4.125H1.625V11.375V12.5C1.625 13.8117 2.68832 14.875 4 14.875H5.08333H10.9167H12C13.3117 14.875 14.375 13.8117 14.375 12.5V11.375V6.5C14.375 5.18832 13.3117 4.125 12 4.125H9.5ZM10.3536 7.14645C9.05372 5.84661 6.94628 5.84661 5.64645 7.14645C4.34661 8.44628 4.34661 10.5537 5.64645 11.8536C6.82611 13.0332 8.67097 13.1423 9.97362 12.1807L10 12.2071L10.3536 11.8536C11.6534 10.5537 11.6534 8.44628 10.3536 7.14645ZM9.64645 7.85355C10.4344 8.64149 10.5396 9.85366 9.96195 10.7548L6.74516 7.53805C7.64634 6.96044 8.85851 7.06561 9.64645 7.85355ZM9.25484 11.4619L6.03805 8.24516C5.46044 9.14634 5.56561 10.3585 6.35355 11.1464C7.14149 11.9344 8.35366 12.0396 9.25484 11.4619Z" fill="currentColor"/>
</svg>
