<svg width="16" height="16" viewBox="0 0 16 16" fill="none" xmlns="http://www.w3.org/2000/svg">
<path fill-rule="evenodd" clip-rule="evenodd" d="M0 3.125V3.75V11V12.125C0 14.127 1.62297 15.75 3.625 15.75H4.70833H10.5417H11.625C13.627 15.75 15.25 14.127 15.25 12.125V11V6.125C15.25 4.12297 13.627 2.5 11.625 2.5H9.47887L8.45224 0.788944C8.15856 0.299486 7.62961 0 7.05881 0H3.125C1.39911 0 0 1.39911 0 3.125ZM7.38037 1.43206L8.02113 2.5H1.35669C1.61409 1.77175 2.30861 1.25 3.125 1.25H7.05881C7.19053 1.25 7.3126 1.31911 7.38037 1.43206ZM9.125 3.75H1.25V11V12.125C1.25 13.4367 2.31332 14.5 3.625 14.5H4.70833H10.5417H11.625C12.9367 14.5 14 13.4367 14 12.125V11V6.125C14 4.81332 12.9367 3.75 11.625 3.75H9.125ZM7 7.9594L7 11.625H8.25V7.9594L10.2249 9.60514L11.0251 8.64486L8.02512 6.14486L7.625 5.81143L7.22488 6.14486L4.22488 8.64486L5.02511 9.60514L7 7.9594Z" fill="currentColor"/>
</svg>
