<svg width="16" height="17" viewBox="0 0 16 17" fill="none" xmlns="http://www.w3.org/2000/svg">
<path fill-rule="evenodd" clip-rule="evenodd" d="M0.375 3.5V4.125V11.375V12.5C0.375 14.502 1.99797 16.125 4 16.125H5.08333H10.9167H12C14.002 16.125 15.625 14.502 15.625 12.5V11.375V6.5C15.625 4.49797 14.002 2.875 12 2.875H9.85387L8.82724 1.16394C8.53356 0.674486 8.00461 0.375 7.43381 0.375H3.5C1.77411 0.375 0.375 1.77411 0.375 3.5ZM7.75537 1.80706L8.39613 2.875H1.73169C1.98909 2.14675 2.68361 1.625 3.5 1.625H7.43381C7.56553 1.625 7.6876 1.69411 7.75537 1.80706ZM9.5 4.125H1.625V11.375V12.5C1.625 13.8117 2.68832 14.875 4 14.875H5.08333H10.9167H12C13.3117 14.875 14.375 13.8117 14.375 12.5V11.375V6.5C14.375 5.18832 13.3117 4.125 12 4.125H9.5ZM7.00181 7.1C7.00181 7.04477 7.04659 7 7.10181 7H8.40635C8.46158 7 8.50635 7.04477 8.50635 7.1V7.79129H7.00181V7.1ZM9.50635 7.1V7.87661C10.089 8.08233 10.5082 8.63734 10.5082 9.29129V9.87387C10.5082 11.2546 9.38888 12.3739 8.00817 12.3739H7.5C6.11929 12.3739 5 11.2546 5 9.87387V9.29129C5 8.63735 5.41914 8.08233 6.00181 7.87661V7.1C6.00181 6.49249 6.4943 6 7.10181 6H8.40635C9.01387 6 9.50635 6.49249 9.50635 7.1ZM6 9.29129C6 9.01633 6.22449 8.79129 6.50181 8.79129H9.00635C9.28368 8.79129 9.50817 9.01632 9.50817 9.29129V9.87387C9.50817 10.7023 8.83659 11.3739 8.00817 11.3739H7.5C6.67157 11.3739 6 10.7023 6 9.87387V9.29129Z" fill="currentColor"/>
</svg>
