<svg width="16" height="17" viewBox="0 0 16 17" fill="none" xmlns="http://www.w3.org/2000/svg">
<path fill-rule="evenodd" clip-rule="evenodd" d="M0.375 4C0.375 2.27411 1.77411 0.875 3.5 0.875H7.43381C8.00461 0.875 8.53356 1.17449 8.82724 1.66394L9.85387 3.375H12C14.002 3.375 15.625 4.99797 15.625 7V13C15.625 15.002 14.002 16.625 12 16.625H4C1.99797 16.625 0.375 15.002 0.375 13V4ZM8.39613 3.375L7.75537 2.30706C7.6876 2.19411 7.56553 2.125 7.43381 2.125H3.5C2.68361 2.125 1.98909 2.64675 1.73169 3.375H8.39613ZM1.625 4.625H12C13.3117 4.625 14.375 5.68832 14.375 7V13C14.375 14.3117 13.3117 15.375 12 15.375H4C2.68832 15.375 1.625 14.3117 1.625 13V4.625Z" fill="currentColor"/>
</svg>
