<svg width="16" height="16" viewBox="0 0 16 16" fill="none" xmlns="http://www.w3.org/2000/svg">
<path fill-rule="evenodd" clip-rule="evenodd" d="M8 1.23631C8.61951 0.854791 9.26451 0.713625 9.85285 0.804139C10.566 0.913846 11.1606 1.36631 11.4011 2.03978C11.6427 2.71638 11.4873 3.49491 10.9626 4.20095C10.791 4.43178 10.579 4.65739 10.3247 4.875L13.5 4.875C14.3975 4.875 15.125 5.60254 15.125 6.5V7.38197C15.125 7.99747 14.7772 8.56015 14.2267 8.83541L14.096 8.90076L13.7652 13.2013C13.66 14.5689 12.5196 15.625 11.1479 15.625H4.85206C3.4804 15.625 2.34 14.5689 2.23479 13.2013L1.90398 8.90076L1.77327 8.83541C1.22275 8.56014 0.875 7.99747 0.875 7.38197V6.5C0.875 5.60254 1.60254 4.875 2.5 4.875H5.67535C5.42102 4.65739 5.20901 4.43178 5.03744 4.20095C4.51269 3.49491 4.35727 2.71638 4.59891 2.03978C4.83944 1.3663 5.43405 0.913844 6.14715 0.804137C6.73549 0.713624 7.38049 0.854789 8 1.23631ZM7.375 6.125H2.5C2.29289 6.125 2.125 6.29289 2.125 6.5V7.38197C2.125 7.52401 2.20525 7.65385 2.33229 7.71738L2.64754 7.875L7.375 7.875V6.125ZM7.375 9.125L3.17492 9.125L3.48111 13.1055C3.53622 13.8218 4.13357 14.375 4.85206 14.375L7.375 14.375V9.125ZM8.625 14.375V9.125L12.8251 9.125L12.5189 13.1055C12.4638 13.8218 11.8664 14.375 11.1479 14.375L8.625 14.375ZM13.3525 7.875L8.625 7.875V6.125L13.5 6.125C13.7071 6.125 13.875 6.29289 13.875 6.5V7.38197C13.875 7.52401 13.7947 7.65385 13.6677 7.71738L13.3525 7.875ZM8.625 4.52151C9.29147 4.16042 9.71288 3.78686 9.95932 3.45529C10.2939 3.00508 10.2948 2.65861 10.2239 2.46021C10.1519 2.25868 9.9653 2.08615 9.66278 2.0396C9.40714 2.00028 9.04348 2.05261 8.625 2.3195V4.52151ZM7.375 4.52151V2.3195C6.95652 2.05261 6.59286 2.00027 6.33722 2.0396C6.0347 2.08614 5.84806 2.25868 5.77609 2.4602C5.70523 2.65861 5.70606 3.00507 6.04068 3.45529C6.28712 3.78686 6.70853 4.16042 7.375 4.52151Z" fill="currentColor"/>
</svg>
