<svg width="15" height="16" viewBox="0 0 15 16" fill="none" xmlns="http://www.w3.org/2000/svg">
<path fill-rule="evenodd" clip-rule="evenodd" d="M7.5 0.833489C8.11951 0.451974 8.76451 0.310809 9.35285 0.401322C10.066 0.511029 10.6606 0.963489 10.9011 1.63697C11.1427 2.31356 10.9873 3.0921 10.4626 3.79813C10.291 4.02897 10.079 4.25457 9.82465 4.47218L13 4.47218C13.8975 4.47218 14.625 5.19972 14.625 6.09718V6.97915C14.625 7.59465 14.2772 8.15733 13.7267 8.43259L13.596 8.49794L13.2652 12.7985C13.16 14.1661 12.0196 15.2222 10.6479 15.2222H4.35206C2.9804 15.2222 1.84 14.1661 1.73479 12.7985L1.40398 8.49795L1.27327 8.43259C0.722752 8.15733 0.375 7.59465 0.375 6.97915V6.09718C0.375 5.19972 1.10254 4.47218 2 4.47218H5.17535C4.92102 4.25457 4.70901 4.02897 4.53744 3.79813C4.01269 3.0921 3.85727 2.31356 4.09891 1.63697C4.33944 0.963487 4.93405 0.511027 5.64715 0.40132C6.23549 0.310807 6.88049 0.451973 7.5 0.833489ZM8.125 4.11869C8.79147 3.7576 9.21288 3.38404 9.45932 3.05248C9.79394 2.60226 9.79477 2.2558 9.72391 2.05739C9.65194 1.85587 9.4653 1.68333 9.16278 1.63679C8.90714 1.59746 8.54348 1.6498 8.125 1.91669V4.11869ZM6.875 4.11869V1.91669C6.45652 1.6498 6.09286 1.59746 5.83722 1.63678C5.5347 1.68333 5.34806 1.85587 5.27609 2.05739C5.20523 2.25579 5.20606 2.60226 5.54068 3.05248C5.78712 3.38404 6.20853 3.7576 6.875 4.11869ZM2.67492 8.72219L2.98111 12.7026C3.03622 13.419 3.63357 13.9722 4.35206 13.9722H10.6479C11.3664 13.9722 11.9638 13.419 12.0189 12.7026L12.3251 8.72218L2.67492 8.72219ZM12.8525 7.47218L13.1677 7.31456C13.2947 7.25104 13.375 7.12119 13.375 6.97915V6.09718C13.375 5.89008 13.2071 5.72218 13 5.72218L2 5.72218C1.79289 5.72218 1.625 5.89007 1.625 6.09718V6.97915C1.625 7.12119 1.70525 7.25104 1.83229 7.31456L2.14754 7.47219L12.8525 7.47218Z" fill="currentColor"/>
</svg>
