<svg width="12" height="12" viewBox="0 0 12 12" fill="none" xmlns="http://www.w3.org/2000/svg">
<path fill-rule="evenodd" clip-rule="evenodd" d="M1.63467 5.72659C2.6809 5.73587 3.625 6.57915 3.625 7.73607V9.38197C3.625 9.99747 3.27725 10.5601 2.72672 10.8354C1.64626 11.3756 0.375 10.59 0.375 9.38197V6C0.375 5.06665 0.649863 3.68054 1.49279 2.50981C2.35866 1.30721 3.7963 0.375 6 0.375C8.2037 0.375 9.64134 1.30721 10.5072 2.50981C11.3501 3.68054 11.625 5.06665 11.625 6V9.38197C11.625 10.59 10.3537 11.3756 9.27328 10.8354C8.72275 10.5601 8.375 9.99747 8.375 9.38197V7.73607C8.375 6.57915 9.3191 5.73587 10.3653 5.72659C10.3161 5.00761 10.0726 4.04552 9.49279 3.24019C8.85866 2.35946 7.7963 1.625 6 1.625C4.2037 1.625 3.14134 2.35946 2.50721 3.24019C1.92737 4.04552 1.68389 5.00761 1.63467 5.72659ZM10.375 6.97816C9.98067 6.98203 9.625 7.29997 9.625 7.73607V9.38197C9.625 9.52401 9.70525 9.65385 9.83229 9.71738C10.0816 9.84204 10.375 9.66073 10.375 9.38197V6.97816ZM1.625 6.97816V9.38197C1.625 9.66073 1.91837 9.84204 2.16771 9.71738C2.29475 9.65385 2.375 9.52401 2.375 9.38197V7.73607C2.375 7.29997 2.01933 6.98203 1.625 6.97816Z" fill="currentColor"/>
</svg>
