<svg width="12" height="11" viewBox="0 0 12 11" fill="none" xmlns="http://www.w3.org/2000/svg">
<path fill-rule="evenodd" clip-rule="evenodd" d="M5.00975 2.47941C4.10749 1.57715 2.617 1.67627 1.84216 2.69006C1.23701 3.48182 1.2685 4.58906 1.91767 5.34515L4.92644 8.84951C5.52301 9.54434 6.60044 9.53805 7.18885 8.83629L10.1655 5.28618C10.777 4.55699 10.812 3.50475 10.2506 2.73644C9.50167 1.71168 8.01506 1.59676 7.11757 2.49425L6.07108 3.54074L5.00975 2.47941ZM0.849014 1.931C2.083 0.316465 4.45672 0.158609 5.89363 1.59553L6.07108 1.77297L6.23368 1.61037C7.67348 0.170566 10.0584 0.354926 11.2598 1.9989C12.1605 3.23146 12.1042 4.91951 11.1234 6.08931L8.1467 9.63943C7.06251 10.9325 5.07726 10.9441 3.97804 9.66379L0.969269 6.15942C-0.0645696 4.95529 -0.114718 3.19194 0.849014 1.931Z" fill="currentColor"/>
</svg>
