<svg width="16" height="16" viewBox="0 0 16 16" fill="none" xmlns="http://www.w3.org/2000/svg">
<path fill-rule="evenodd" clip-rule="evenodd" d="M4.80981 1.625C3.61381 1.625 2.60439 2.51434 2.45372 3.70082L1.625 10.227V12C1.625 13.3117 2.68832 14.375 4 14.375H4.45833V9.58333C4.45833 8.68587 5.18587 7.95833 6.08333 7.95833H9.91667C10.8141 7.95833 11.5417 8.68587 11.5417 9.58333V14.375H12C13.3117 14.375 14.375 13.3117 14.375 12V10.227L13.5463 3.70081C13.3956 2.51434 12.3862 1.625 11.1902 1.625H4.80981ZM10.2917 14.375V9.58333C10.2917 9.37623 10.1238 9.20833 9.91667 9.20833H6.08333C5.87623 9.20833 5.70833 9.37623 5.70833 9.58333V14.375H10.2917ZM1.21368 3.54335C1.44364 1.73242 2.98433 0.375 4.80981 0.375H11.1902C13.0157 0.375 14.5564 1.73241 14.7863 3.54335L15.625 10.148V12C15.625 14.002 14.002 15.625 12 15.625H4C1.99797 15.625 0.375 14.002 0.375 12V10.148L1.21368 3.54335Z" fill="currentColor"/>
</svg>
