<svg width="18" height="16" viewBox="0 0 18 16" fill="none" xmlns="http://www.w3.org/2000/svg">
<path fill-rule="evenodd" clip-rule="evenodd" d="M1.82115 11.4377C2.00397 11.9825 2.51865 12.375 3.125 12.375H11V13.625H3.125C1.67525 13.625 0.5 12.4497 0.5 11V9.66667V4.33333V3C0.5 1.55025 1.67525 0.375 3.125 0.375H10.3125H13.125C14.5748 0.375 15.75 1.55025 15.75 3V8H14.5V3C14.5 2.24061 13.8844 1.625 13.125 1.625L10.3125 1.625L3.125 1.625C2.36561 1.625 1.75 2.24061 1.75 3V4.33333L1.75 9.66667V9.74112L5.38129 6.10983C5.72299 5.76813 6.27701 5.76813 6.61872 6.10983L9.52677 9.01787L11.0354 7.68674C11.3819 7.38103 11.9063 7.39741 12.233 7.72413L12.942 8.43306L12.0581 9.31694L11.5982 8.85712L10.0896 10.1883C9.74316 10.494 9.21871 10.4776 8.89199 10.1509L6 7.25888L1.82115 11.4377ZM14.1018 10C14.0466 10 14.0018 10.0448 14.0018 10.1V10.7913H15.5064V10.1C15.5064 10.0448 15.4616 10 15.4064 10H14.1018ZM16.5064 10.8766V10.1C16.5064 9.49249 16.0139 9 15.4064 9H14.1018C13.4943 9 13.0018 9.49248 13.0018 10.1V10.8766C12.4192 11.0823 12 11.6373 12 12.2913V12.8739C12 14.2546 13.1193 15.3739 14.5 15.3739H15.0082C16.3889 15.3739 17.5082 14.2546 17.5082 12.8739V12.2913C17.5082 11.6373 17.089 11.0823 16.5064 10.8766ZM13.5018 11.7913C13.2245 11.7913 13 12.0163 13 12.2913V12.8739C13 13.7023 13.6716 14.3739 14.5 14.3739H15.0082C15.8366 14.3739 16.5082 13.7023 16.5082 12.8739V12.2913C16.5082 12.0163 16.2837 11.7913 16.0064 11.7913H13.5018ZM11 5C11.5523 5 12 4.55228 12 4C12 3.44771 11.5523 3 11 3C10.4477 3 10 3.44771 10 4C10 4.55228 10.4477 5 11 5Z" fill="currentColor"/>
</svg>
