<svg width="16" height="14" viewBox="0 0 16 14" fill="none" xmlns="http://www.w3.org/2000/svg">
<path fill-rule="evenodd" clip-rule="evenodd" d="M5.94196 5.55806L9.5 9.1161L11.058 7.55806L11.5 7.11612L11.942 7.55806L14.375 9.9911V3C14.375 2.24062 13.7594 1.625 13 1.625H10.1875H3C2.2406 1.625 1.625 2.24062 1.625 3V4.33333V8.9911L5.05804 5.55806L5.5 5.11612L5.94196 5.55806ZM0.375 11C0.375 12.4498 1.55026 13.625 3 13.625H10.1875H13C14.4497 13.625 15.625 12.4498 15.625 11V3C15.625 1.55025 14.4497 0.375 13 0.375H10.1875H3C1.55026 0.375 0.375 1.55025 0.375 3V4.33333V9.66667V11ZM10 5C10.5523 5 11 4.55229 11 4C11 3.44771 10.5523 3 10 3C9.44772 3 9 3.44771 9 4C9 4.55229 9.44772 5 10 5Z" fill="currentColor"/>
</svg>
