<svg width="16" height="14" viewBox="0 0 16 14" fill="none" xmlns="http://www.w3.org/2000/svg">
<path fill-rule="evenodd" clip-rule="evenodd" d="M2.625 12C2.01865 12 1.50397 11.6075 1.32114 11.0627L5.5 6.88388L8.39198 9.77587C8.71871 10.1026 9.24316 10.119 9.58962 9.81326L11.0982 8.48212L13.8555 11.2393C13.6299 11.6903 13.1636 12 12.625 12L9.8125 12H2.625ZM4.88128 5.73483L1.25 9.36612V9.29167L1.25 3.95833L1.25 2.625C1.25 1.86561 1.86561 1.25 2.625 1.25L9.8125 1.25L12.625 1.25C13.3844 1.25 14 1.86561 14 2.625V9.61612L11.733 7.34913C11.4063 7.02241 10.8818 7.00604 10.5354 7.31174L9.02676 8.64288L6.11872 5.73483C5.77701 5.39313 5.22299 5.39313 4.88128 5.73483ZM0 10.625C0 12.0747 1.17525 13.25 2.625 13.25H9.8125L12.625 13.25C14.0747 13.25 15.25 12.0747 15.25 10.625V2.625C15.25 1.17525 14.0747 0 12.625 0H9.8125H2.625C1.17525 0 0 1.17525 0 2.625V3.95833V9.29167V10.625ZM9.625 4.625C10.1773 4.625 10.625 4.17728 10.625 3.625C10.625 3.07272 10.1773 2.625 9.625 2.625C9.07271 2.625 8.625 3.07272 8.625 3.625C8.625 4.17728 9.07271 4.625 9.625 4.625Z" fill="currentColor"/>
</svg>
