<svg width="17" height="15" viewBox="0 0 17 15" fill="none" xmlns="http://www.w3.org/2000/svg">
<path fill-rule="evenodd" clip-rule="evenodd" d="M1.32114 11.0627C1.50397 11.6075 2.01865 12 2.625 12H9.5V13.25H2.625C1.17525 13.25 0 12.0747 0 10.625V9.29167V3.95833V2.625C0 1.17525 1.17525 0 2.625 0H9.8125H12.625C14.0747 0 15.25 1.17525 15.25 2.625V7.5H14V2.625C14 1.86561 13.3844 1.25 12.625 1.25L9.8125 1.25L2.625 1.25C1.86561 1.25 1.25 1.86561 1.25 2.625L1.25 3.95833L1.25 9.29167V9.36612L4.88128 5.73483C5.22299 5.39313 5.77701 5.39313 6.11872 5.73483L9.02676 8.64288L10.5354 7.31174C10.8818 7.00604 11.4063 7.02241 11.733 7.34913L11.9419 7.55806L11.3102 8.18983L11.1599 8.34009C11.2327 8.33122 11.3035 8.30097 11.3624 8.24904L9.58962 9.81326C9.24316 10.119 8.71871 10.1026 8.39199 9.77587L5.5 6.88388L1.32114 11.0627ZM10.625 3.625C10.625 4.17728 10.1773 4.625 9.625 4.625C9.07272 4.625 8.625 4.17728 8.625 3.625C8.625 3.07272 9.07272 2.625 9.625 2.625C10.1773 2.625 10.625 3.07272 10.625 3.625ZM15.6036 9.39645C14.4418 8.23469 12.5582 8.23469 11.3964 9.39645C10.2347 10.5582 10.2347 12.4418 11.3964 13.6036C12.4377 14.6448 14.0589 14.7528 15.2204 13.9275L15.25 13.9571L15.6036 13.6036C16.7653 12.4418 16.7653 10.5582 15.6036 9.39645ZM14.8964 10.1036C15.5455 10.7526 15.6483 11.7411 15.2049 12.4977L12.5023 9.79515C13.2589 9.35166 14.2474 9.45447 14.8964 10.1036ZM14.4977 13.2049L11.7951 10.5023C11.3517 11.2589 11.4545 12.2474 12.1036 12.8964C12.7526 13.5455 13.7411 13.6483 14.4977 13.2049Z" fill="currentColor"/>
</svg>
