<svg width="16" height="14" viewBox="0 0 16 14" fill="none" xmlns="http://www.w3.org/2000/svg">
<path fill-rule="evenodd" clip-rule="evenodd" d="M1.32114 11.0627C1.50397 11.6075 2.01865 12 2.625 12H10V13.25H2.625C1.17525 13.25 0 12.0747 0 10.625V9.29167V3.95833V2.625C0 1.17525 1.17525 0 2.625 0H9.8125H12.625C14.0747 0 15.25 1.17525 15.25 2.625V8H14V2.625C14 1.86561 13.3844 1.25 12.625 1.25L9.8125 1.25L2.625 1.25C1.86561 1.25 1.25 1.86561 1.25 2.625L1.25 3.95833L1.25 9.29167V9.36612L4.88128 5.73483C5.22299 5.39313 5.77701 5.39313 6.11872 5.73483L9.02676 8.64288L10.5354 7.31174C10.8818 7.00604 11.4063 7.02241 11.733 7.34913L12.4419 8.05806L11.5581 8.94194L11.0982 8.48213L9.58962 9.81326C9.24316 10.119 8.71871 10.1026 8.39198 9.77587L5.5 6.88388L1.32114 11.0627ZM10.625 3.625C10.625 4.17728 10.1773 4.625 9.625 4.625C9.07271 4.625 8.625 4.17728 8.625 3.625C8.625 3.07272 9.07271 2.625 9.625 2.625C10.1773 2.625 10.625 3.07272 10.625 3.625ZM14.125 9V10.875H16V12.125H14.125V14H12.875V12.125H11V10.875H12.875V9H14.125Z" fill="currentColor"/>
</svg>
