<svg width="12" height="12" viewBox="0 0 12 12" fill="none" xmlns="http://www.w3.org/2000/svg">
<path fill-rule="evenodd" clip-rule="evenodd" d="M9.05805 2.94194C7.36914 1.25302 4.63086 1.25302 2.94194 2.94194L2.44194 3.44194C1.02916 4.85472 1.02916 7.14528 2.44194 8.55806L2.94194 9.05806C4.63086 10.747 7.36913 10.747 9.05805 9.05806C10.747 7.36914 10.747 4.63086 9.05805 2.94194ZM2.05805 2.05806C4.23513 -0.119015 7.76486 -0.119016 9.94194 2.05806C12.119 4.23513 12.119 7.76487 9.94194 9.94194C7.76486 12.119 4.23513 12.119 2.05805 9.94194L1.55805 9.44194C-0.342877 7.54101 -0.342879 4.45899 1.55805 2.55806L2.05805 2.05806ZM5.375 6V3H6.625V6H5.375ZM5.375 8.5V7.5H6.625V8.5H5.375Z" fill="currentColor"/>
</svg>
