<svg width="16" height="15" viewBox="0 0 16 15" fill="none" xmlns="http://www.w3.org/2000/svg">
<path fill-rule="evenodd" clip-rule="evenodd" d="M7 0.875H12V2.125H10.125V12.875H12V14.125H7V12.875H8.875V2.125H7V0.875ZM3 4.125C2.24061 4.125 1.625 4.74061 1.625 5.5V9.5C1.625 10.2594 2.24061 10.875 3 10.875H7.5V12.125H3C1.55025 12.125 0.375 10.9497 0.375 9.5V5.5C0.375 4.05025 1.55025 2.875 3 2.875H7.5V4.125H3ZM11.5 2.875H13C14.4497 2.875 15.625 4.05025 15.625 5.5V9.5C15.625 10.9497 14.4497 12.125 13 12.125H11.5V10.875H13C13.7594 10.875 14.375 10.2594 14.375 9.5V5.5C14.375 4.74061 13.7594 4.125 13 4.125H11.5V2.875Z" fill="currentColor"/>
</svg>
