<svg width="16" height="12" viewBox="0 0 16 12" fill="none" xmlns="http://www.w3.org/2000/svg">
<path fill-rule="evenodd" clip-rule="evenodd" d="M8.86361 2.04545C9.44476 2.04545 9.85623 1.79211 10.1057 1.44556C10.3369 1.12451 10.4091 0.754254 10.4091 0.5H9.40907C9.40907 0.594231 9.37669 0.746707 9.29421 0.861257C9.23009 0.950312 9.11884 1.04545 8.86361 1.04545C8.18279 1.04545 7.78099 1.49111 7.57649 1.91716C7.46757 2.14407 7.40048 2.38824 7.36207 2.61364H3.0227C1.64199 2.61364 0.522705 3.73292 0.522705 5.11364V9.47727C0.522705 10.858 1.64199 11.9773 3.0227 11.9773H12.6136C13.9943 11.9773 15.1136 10.858 15.1136 9.47727V5.11364C15.1136 3.73292 13.9943 2.61364 12.6136 2.61364H8.38381C8.40773 2.52177 8.43881 2.43156 8.47801 2.34989C8.58715 2.12252 8.70808 2.04545 8.86361 2.04545ZM1.52271 5.11364C1.52271 4.28521 2.19428 3.61364 3.0227 3.61364H7.81816H12.6136C13.442 3.61364 14.1136 4.28521 14.1136 5.11364V9.47727C14.1136 10.3057 13.442 10.9773 12.6136 10.9773H3.0227C2.19428 10.9773 1.52271 10.3057 1.52271 9.47727V5.11364ZM3.63634 6.25C3.92504 6.25 4.15907 6.01597 4.15907 5.72727C4.15907 5.43858 3.92504 5.20455 3.63634 5.20455C3.34765 5.20455 3.11361 5.43858 3.11361 5.72727C3.11361 6.01597 3.34765 6.25 3.63634 6.25ZM4.15907 7.81818C4.15907 8.10688 3.92504 8.34091 3.63634 8.34091C3.34765 8.34091 3.11361 8.10688 3.11361 7.81818C3.11361 7.52949 3.34765 7.29545 3.63634 7.29545C3.92504 7.29545 4.15907 7.52949 4.15907 7.81818ZM5.72725 6.25C6.01594 6.25 6.24998 6.01597 6.24998 5.72727C6.24998 5.43858 6.01594 5.20455 5.72725 5.20455C5.43856 5.20455 5.20452 5.43858 5.20452 5.72727C5.20452 6.01597 5.43856 6.25 5.72725 6.25ZM6.24998 7.81818C6.24998 8.10688 6.01594 8.34091 5.72725 8.34091C5.43856 8.34091 5.20452 8.10688 5.20452 7.81818C5.20452 7.52949 5.43856 7.29545 5.72725 7.29545C6.01594 7.29545 6.24998 7.52949 6.24998 7.81818ZM7.81816 6.25C8.10685 6.25 8.34089 6.01597 8.34089 5.72727C8.34089 5.43858 8.10685 5.20455 7.81816 5.20455C7.52947 5.20455 7.29543 5.43858 7.29543 5.72727C7.29543 6.01597 7.52947 6.25 7.81816 6.25ZM8.34089 7.81818C8.34089 8.10688 8.10685 8.34091 7.81816 8.34091C7.52947 8.34091 7.29543 8.10688 7.29543 7.81818C7.29543 7.52949 7.52947 7.29545 7.81816 7.29545C8.10685 7.29545 8.34089 7.52949 8.34089 7.81818ZM9.90907 6.25C10.1978 6.25 10.4318 6.01597 10.4318 5.72727C10.4318 5.43858 10.1978 5.20455 9.90907 5.20455C9.62037 5.20455 9.38634 5.43858 9.38634 5.72727C9.38634 6.01597 9.62037 6.25 9.90907 6.25ZM10.4318 7.81818C10.4318 8.10688 10.1978 8.34091 9.90907 8.34091C9.62037 8.34091 9.38634 8.10688 9.38634 7.81818C9.38634 7.52949 9.62037 7.29545 9.90907 7.29545C10.1978 7.29545 10.4318 7.52949 10.4318 7.81818ZM12 6.25C12.2887 6.25 12.5227 6.01597 12.5227 5.72727C12.5227 5.43858 12.2887 5.20455 12 5.20455C11.7113 5.20455 11.4773 5.43858 11.4773 5.72727C11.4773 6.01597 11.7113 6.25 12 6.25ZM12.5227 7.81818C12.5227 8.10688 12.2887 8.34091 12 8.34091C11.7113 8.34091 11.4773 8.10688 11.4773 7.81818C11.4773 7.52949 11.7113 7.29545 12 7.29545C12.2887 7.29545 12.5227 7.52949 12.5227 7.81818ZM5.72725 8.86364C5.43856 8.86364 5.20452 9.09767 5.20452 9.38636C5.20452 9.67506 5.43856 9.90909 5.72725 9.90909H9.90907C10.1978 9.90909 10.4318 9.67506 10.4318 9.38636C10.4318 9.09767 10.1978 8.86364 9.90907 8.86364H5.72725Z" fill="currentColor"/>
</svg>
