<svg width="14" height="14" viewBox="0 0 14 14" fill="none" xmlns="http://www.w3.org/2000/svg">
<path fill-rule="evenodd" clip-rule="evenodd" d="M10.4992 1.78347C10.0034 1.89004 9.5875 2.17967 9.4336 2.33356L7.08111 4.68606L6.19722 3.80218L8.54972 1.44968C8.85202 1.14738 9.47701 0.724629 10.2366 0.56138C11.0335 0.390106 11.9968 0.506273 12.8295 1.339C13.6622 2.17173 13.7784 3.13503 13.6071 3.93193C13.4439 4.69148 13.0211 5.31648 12.7188 5.61878L10.3663 7.97127L9.48244 7.08739L11.8349 4.73489C11.9888 4.58099 12.2785 4.16508 12.385 3.66927C12.4836 3.21079 12.427 2.70424 11.9456 2.22288C11.4643 1.74153 10.9577 1.68494 10.4992 1.78347ZM6.27588 1.34864L5.95024 3.90904L4.71023 3.75133L5.03587 1.19093L6.27588 1.34864ZM10.161 8.2229L12.5119 7.96013L12.6507 9.20239L10.2999 9.46516L10.161 8.2229ZM8.4613 12.0024L8.76652 9.6026L10.0065 9.76031L9.70131 12.1601L8.4613 12.0024ZM1.58988 4.54869L4.25138 4.21019L4.40909 5.4502L1.74759 5.7887L1.58988 4.54869ZM5.02822 6.73895L2.59063 9.17653C2.42944 9.33772 2.06854 9.83218 1.90158 10.4122C1.74131 10.969 1.77987 11.5026 2.22289 11.9456C2.66592 12.3886 3.19946 12.4272 3.75626 12.2669C4.33631 12.1 4.83077 11.7391 4.99196 11.5779L7.42955 9.14028L8.31343 10.0242L5.87585 12.4617C5.58084 12.7568 4.90586 13.2368 4.10202 13.4681C3.2749 13.7062 2.21007 13.7005 1.33901 12.8295C0.46795 11.9584 0.462276 10.8936 0.700352 10.0665C0.93173 9.26263 1.41174 8.58766 1.70675 8.29265L4.14433 5.85507L5.02822 6.73895Z" fill="currentColor"/>
</svg>
