<svg width="14" height="14" viewBox="0 0 14 14" fill="none" xmlns="http://www.w3.org/2000/svg">
<path fill-rule="evenodd" clip-rule="evenodd" d="M10.4783 1.74885C9.98869 1.86348 9.57184 2.15715 9.41452 2.31448L7.06202 4.66697L6.17814 3.78309L8.53063 1.43059C8.82951 1.13172 9.44705 0.706495 10.1933 0.531766C10.9747 0.348813 11.9301 0.439585 12.7452 1.25475C13.5604 2.06992 13.6512 3.02533 13.4682 3.8067C13.2935 4.55295 12.8683 5.17049 12.5694 5.46937L10.2169 7.82186L9.33303 6.93798L11.6855 4.58548C11.8428 4.42816 12.1365 4.01131 12.2511 3.52173C12.3576 3.06728 12.3082 2.58542 11.8614 2.13864C11.4146 1.69185 10.9327 1.64244 10.4783 1.74885ZM5.00913 6.71986L2.57155 9.15745C2.40739 9.32161 2.04218 9.81652 1.86644 10.3903C1.69621 10.9461 1.73098 11.4537 2.13864 11.8614C2.54631 12.269 3.05391 12.3038 3.60972 12.1336C4.18348 11.9578 4.67839 11.5926 4.84255 11.4285L7.28014 8.99087L8.16402 9.87475L5.72644 12.3123C5.4344 12.6044 4.76639 13.0866 3.9758 13.3287C3.16724 13.5764 2.10905 13.5995 1.25476 12.7452C0.400469 11.8909 0.423598 10.8328 0.67125 10.0242C0.913402 9.23361 1.39563 8.5656 1.68766 8.27356L4.12525 5.83598L5.00913 6.71986Z" fill="currentColor"/>
</svg>
