<svg width="13" height="16" viewBox="0 0 13 16" fill="none" xmlns="http://www.w3.org/2000/svg">
<path fill-rule="evenodd" clip-rule="evenodd" d="M2.56844 3.52105C3.27563 2.48676 4.47116 1.625 6.49999 1.625C8.52883 1.625 9.72436 2.48676 10.4315 3.52105C10.9719 4.31134 11.0507 5.23037 10.8099 6.21703C10.5664 7.21465 10.0032 8.23885 9.32693 9.14876L6.49999 12.9523L3.67306 9.14876C2.99678 8.23885 2.43357 7.21465 2.19009 6.21703C1.94928 5.23037 2.02808 4.31134 2.56844 3.52105ZM6.49999 0.375C4.04331 0.375 2.46809 1.45317 1.53659 2.81552C0.74279 3.97647 0.676046 5.28552 0.975731 6.51341C1.27274 7.73036 1.93607 8.90719 2.66982 9.89441L5.99837 14.3728L6.49999 15.0477L7.00162 14.3728L10.3302 9.89441C11.0639 8.90719 11.7272 7.73036 12.0243 6.51341C12.3239 5.28552 12.2572 3.97647 11.4634 2.81552C10.5319 1.45317 8.95668 0.375 6.49999 0.375ZM5.69403 4.77057C5.90271 4.68349 6.166 4.625 6.49999 4.625C6.83399 4.625 7.09728 4.68349 7.30596 4.77057C7.58871 4.88858 7.69938 5.04167 7.74858 5.18966C7.80593 5.36215 7.80664 5.61528 7.70301 5.94759C7.51856 6.53909 7.05689 7.20418 6.49999 7.69873C5.9431 7.20418 5.48143 6.53909 5.29698 5.94759C5.19335 5.61528 5.19406 5.36215 5.25141 5.18966C5.30061 5.04167 5.41128 4.88858 5.69403 4.77057ZM6.49999 3.375C6.01663 3.375 5.58782 3.46041 5.2126 3.617C4.63391 3.85851 4.24082 4.26726 4.06526 4.79527C3.89784 5.29879 3.95276 5.83583 4.10366 6.31972C4.40327 7.28052 5.14671 8.25052 5.97083 8.88193L6.11988 8.99613L6.49999 9.28735L6.8801 8.99613L7.02916 8.88193C7.85328 8.25052 8.59672 7.28052 8.89633 6.31972C9.04723 5.83583 9.10215 5.29879 8.93473 4.79527C8.75917 4.26726 8.36607 3.85851 7.78739 3.61701C7.41217 3.46041 6.98336 3.375 6.49999 3.375Z" fill="currentColor"/>
</svg>
