<svg width="12" height="13" viewBox="0 0 12 13" fill="none" xmlns="http://www.w3.org/2000/svg">
<path fill-rule="evenodd" clip-rule="evenodd" d="M4.125 2.13586V4.46195H8.5H9.5C10.3975 4.46195 11.125 5.18949 11.125 6.08695V10.2391C11.125 11.6889 9.94975 12.8641 8.5 12.8641H3.5C2.05025 12.8641 0.875 11.6889 0.875 10.2391V6.08695C0.875 5.18949 1.60254 4.46195 2.5 4.46195H2.875V2.11086C2.875 1.43432 3.42345 0.885864 4.1 0.885864H8C8.62132 0.885864 9.125 1.38954 9.125 2.01086V3H7.875V2.13586H4.125ZM2.5 5.71195C2.29289 5.71195 2.125 5.87984 2.125 6.08695V10.2391C2.125 10.9985 2.74061 11.6141 3.5 11.6141H8.5C9.25939 11.6141 9.875 10.9985 9.875 10.2391V6.08695C9.875 5.87984 9.70711 5.71195 9.5 5.71195H8.5H3.5H2.5Z" fill="currentColor"/>
</svg>
