<svg width="16" height="14" viewBox="0 0 16 14" fill="none" xmlns="http://www.w3.org/2000/svg">
<path fill-rule="evenodd" clip-rule="evenodd" d="M12.545 0.24424V2.53741C12.944 2.62617 13.4057 2.80039 13.8287 3.09688C14.5369 3.5932 15.125 4.42837 15.125 5.69565C15.125 6.96293 14.5369 7.7981 13.8287 8.29442C13.4057 8.59091 12.944 8.76512 12.545 8.85389V11.1471L6.34922 9.96296L5.95962 12.0991C5.79844 12.9828 5.02857 13.625 4.13027 13.625C3.2183 13.625 2.44091 12.9636 2.29477 12.0635L1.81301 9.09603L1.69496 9.07347C0.928985 8.92708 0.375 8.2572 0.375 7.47736V3.91394C0.375 3.1341 0.928985 2.46421 1.69496 2.31783L12.545 0.24424ZM3.11992 9.3458L3.52862 11.8631C3.57652 12.1582 3.83134 12.375 4.13027 12.375C4.42472 12.375 4.67707 12.1645 4.7299 11.8748L5.1214 9.72831L3.11992 9.3458ZM12.545 7.55654C12.7294 7.49257 12.9269 7.40002 13.1113 7.27079C13.5198 6.9845 13.875 6.51532 13.875 5.69565C13.875 4.87598 13.5198 4.40679 13.1113 4.12051C12.9269 3.99128 12.7294 3.89873 12.545 3.83476V7.55654ZM8.905 2.21251V9.17878L11.295 9.63554V1.75575L8.905 2.21251ZM7.655 8.93989V2.45141L1.92961 3.5456C1.75284 3.57939 1.625 3.73398 1.625 3.91394V7.47736C1.625 7.65732 1.75284 7.81191 1.92961 7.84569L7.655 8.93989Z" fill="currentColor"/>
</svg>
