<svg width="10" height="15" viewBox="0 0 10 15" fill="none" xmlns="http://www.w3.org/2000/svg">
<path fill-rule="evenodd" clip-rule="evenodd" d="M1.79752 14.9446L9.45259 1.59909L8.3759 0.981491L0.720833 14.327L1.79752 14.9446ZM4.375 12.5926C4.19828 12.5738 4.02838 12.547 3.8651 12.5129L4.53091 11.3522C4.67946 11.3671 4.83569 11.375 5 11.375C6.3963 11.375 7.20866 10.8072 7.69279 10.1348C8.19986 9.43054 8.375 8.56665 8.375 8H9.625C9.625 8.76668 9.40014 9.90279 8.70721 10.8652C8.07753 11.7397 7.08286 12.4373 5.625 12.5926V15H4.375V12.5926ZM5 10.625C4.98265 10.625 4.9654 10.6249 4.94824 10.6246L5.77439 9.18433C5.91203 9.09946 6.01412 8.99408 6.09279 8.88481C6.25852 8.65463 6.33974 8.37558 6.36556 8.15371L7.625 5.95807V8C7.625 8.43335 7.50014 9.06946 7.10721 9.61519C6.69134 10.1928 6.0037 10.625 5 10.625ZM2.81582 9.50194L3.6281 8.08586C3.626 8.0557 3.625 8.02698 3.625 8V4C3.625 3.76668 3.70014 3.40279 3.90721 3.11519C4.09134 2.85946 4.4037 2.625 5 2.625C5.5963 2.625 5.90866 2.85946 6.09279 3.11519C6.17241 3.22577 6.23252 3.34763 6.27636 3.46901L6.98667 2.23069C6.56334 1.732 5.9122 1.375 5 1.375C3.9963 1.375 3.30866 1.80721 2.89279 2.38481C2.49986 2.93054 2.375 3.56665 2.375 4V8C2.375 8.40368 2.48335 8.98332 2.81582 9.50194ZM1.73519 11.3859L2.38991 10.2445C2.36132 10.2083 2.33377 10.1717 2.30721 10.1348C1.80014 9.43054 1.625 8.56665 1.625 8H0.375C0.375 8.76668 0.599863 9.90279 1.29279 10.8652C1.42409 11.0476 1.57126 11.2222 1.73519 11.3859Z" fill="currentColor"/>
</svg>
