<svg width="10" height="14" viewBox="0 0 10 14" fill="none" xmlns="http://www.w3.org/2000/svg">
<path fill-rule="evenodd" clip-rule="evenodd" d="M3.90721 2.11519C3.70014 2.40279 3.625 2.76668 3.625 3V7C3.625 7.23332 3.70014 7.59721 3.90721 7.88481C4.09134 8.14054 4.4037 8.375 5 8.375C5.5963 8.375 5.90866 8.14054 6.09279 7.88481C6.29986 7.59721 6.375 7.23332 6.375 7V3C6.375 2.76668 6.29986 2.40279 6.09279 2.11519C5.90866 1.85946 5.5963 1.625 5 1.625C4.4037 1.625 4.09134 1.85946 3.90721 2.11519ZM2.89279 1.38481C3.30866 0.807208 3.9963 0.375 5 0.375C6.0037 0.375 6.69134 0.807208 7.10721 1.38481C7.50014 1.93054 7.625 2.56665 7.625 3V7C7.625 7.43335 7.50014 8.06946 7.10721 8.61519C6.69134 9.19279 6.0037 9.625 5 9.625C3.9963 9.625 3.30866 9.19279 2.89279 8.61519C2.49986 8.06946 2.375 7.43335 2.375 7V3C2.375 2.56665 2.49986 1.93054 2.89279 1.38481ZM2.30721 9.13481C2.79134 9.80721 3.6037 10.375 5 10.375C6.3963 10.375 7.20866 9.80721 7.69279 9.13481C8.19986 8.43054 8.375 7.56665 8.375 7H9.625C9.625 7.76668 9.40014 8.90279 8.70721 9.86519C8.07753 10.7397 7.08286 11.4373 5.625 11.5926V14H4.375V11.5926C2.91714 11.4373 1.92247 10.7397 1.29279 9.86519C0.599863 8.90279 0.375 7.76668 0.375 7H1.625C1.625 7.56665 1.80014 8.43054 2.30721 9.13481Z" fill="currentColor"/>
</svg>
