<svg width="14" height="14" viewBox="0 0 14 14" fill="none" xmlns="http://www.w3.org/2000/svg">
<path fill-rule="evenodd" clip-rule="evenodd" d="M1.625 8.5C1.625 9.25939 2.24061 9.875 3 9.875L11 9.875C11.7594 9.875 12.375 9.25939 12.375 8.5L12.375 3.5C12.375 2.74061 11.7594 2.125 11 2.125L3 2.125C2.24061 2.125 1.625 2.74061 1.625 3.5L1.625 8.5ZM3 11.125C1.55025 11.125 0.375 9.94975 0.375 8.5L0.375 3.5C0.375 2.05025 1.55025 0.875 3 0.875L11 0.875C12.4497 0.874999 13.625 2.05025 13.625 3.5L13.625 8.5C13.625 9.94975 12.4497 11.125 11 11.125L3 11.125ZM10.5 13.125L3.5 13.125L3.5 11.875L10.5 11.875L10.5 13.125Z" fill="currentColor"/>
</svg>
