<svg width="11" height="14" viewBox="0 0 11 14" fill="none" xmlns="http://www.w3.org/2000/svg">
<path fill-rule="evenodd" clip-rule="evenodd" d="M2.0592 4.68013C2.37244 3.70992 2.9287 2.88786 3.50474 2.26927C3.03045 6.49226 5.35678 10.5167 9.19829 12.2345C8.38467 12.4151 7.41482 12.4783 6.43856 12.2685C5.09983 11.9808 3.71996 11.1752 2.68302 9.37917C1.64558 7.58226 1.63832 5.98373 2.0592 4.68013ZM4.61741 1.55485C4.70602 0.973138 4.0291 0.464228 3.49269 0.907415C2.61868 1.62954 1.60655 2.82738 1.10757 4.37288C0.602432 5.93745 0.633961 7.83009 1.817 9.87917C2.99943 11.9272 4.62171 12.9009 6.22847 13.2462C7.81568 13.5873 9.35862 13.3104 10.4214 12.915C10.7209 12.8036 10.877 12.524 10.8648 12.2502C10.8528 11.982 10.6811 11.7257 10.3928 11.6287C6.37231 10.276 3.90527 6.22989 4.54407 2.03631L4.61741 1.55485ZM6.75923 4.45554L6.96393 4.57836L6.97182 4.5831L7.59615 4.95769C7.64195 4.98517 7.67775 5.0266 7.69829 5.07591L7.95833 5.7L7.99635 5.79125L8.17226 6.21345L8.26923 6.44616C8.3547 6.65128 8.64529 6.65128 8.73076 6.44616L8.82773 6.21345L9.00364 5.79125L9.04166 5.7L9.3017 5.07591C9.32224 5.0266 9.35804 4.98517 9.40384 4.95769L10.0282 4.5831L10.0361 4.57836L10.2408 4.45554L10.6427 4.21437C10.8045 4.11727 10.8045 3.88273 10.6427 3.78563L10.2408 3.54446L10.0361 3.42164L10.0282 3.41691L9.40384 3.04231C9.35804 3.01483 9.32224 2.9734 9.3017 2.92409L9.04166 2.3L9.00364 2.20875L8.82773 1.78656L8.73076 1.55385C8.6453 1.34872 8.3547 1.34872 8.26923 1.55385L8.17226 1.78656L7.99635 2.20875L7.95833 2.3L7.69829 2.92409C7.67775 2.9734 7.64195 3.01483 7.59615 3.04231L6.97182 3.41691L6.96393 3.42164L6.75923 3.54446L6.35728 3.78563C6.19545 3.88273 6.19545 4.11727 6.35728 4.21437L6.75923 4.45554ZM8.11064 4.1002L7.94365 4L8.11064 3.8998C8.26628 3.80642 8.3988 3.68084 8.5 3.53257C8.60119 3.68083 8.73371 3.80642 8.88935 3.8998L9.05634 4L8.88935 4.1002C8.73372 4.19358 8.60119 4.31917 8.5 4.46744C8.39881 4.31917 8.26628 4.19358 8.11064 4.1002Z" fill="currentColor"/>
</svg>
