<svg width="14" height="15" viewBox="0 0 14 15" fill="none" xmlns="http://www.w3.org/2000/svg">
<path fill-rule="evenodd" clip-rule="evenodd" d="M9.87717 1.30463C10.5067 0.706536 11.4953 0.70912 12.1217 1.3105L13.1966 2.34233C13.8534 2.97284 13.864 4.01986 13.2203 4.66364L11.999 5.88488L4.27069 14.125H0.375V10.7411L8.56372 2.5524L9.87717 1.30463ZM11.5412 4.57488L12.3364 3.77975C12.4849 3.63119 12.4825 3.38957 12.3309 3.24407L11.2561 2.21224C11.1115 2.07346 10.8834 2.07286 10.7381 2.21088L9.90476 3.00256L11.5412 4.57488ZM9.00875 3.87514L1.625 11.2589V12.875H3.72931L10.6717 5.47287L9.00875 3.87514Z" fill="currentColor"/>
</svg>
