<svg width="12" height="14" viewBox="0 0 12 14" fill="none" xmlns="http://www.w3.org/2000/svg">
<path fill-rule="evenodd" clip-rule="evenodd" d="M3.38014 1.63015C2.67687 1.69088 2.125 2.28099 2.125 3V11C2.125 11.7594 2.74061 12.375 3.5 12.375H8.5C9.25939 12.375 9.875 11.7594 9.875 11V3C9.875 2.28099 9.32313 1.69088 8.61986 1.63015C8.55356 2.46676 7.85365 3.125 7 3.125H5C4.14635 3.125 3.44644 2.46676 3.38014 1.63015ZM0.875 3C0.875 1.55025 2.05025 0.375 3.5 0.375H8.5C9.94975 0.375 11.125 1.55025 11.125 3V11C11.125 12.4497 9.94975 13.625 8.5 13.625H3.5C2.05025 13.625 0.875 12.4497 0.875 11V3Z" fill="currentColor"/>
</svg>
