<svg width="10" height="14" viewBox="0 0 10 14" fill="none" xmlns="http://www.w3.org/2000/svg"> <path fill-rule="evenodd" clip-rule="evenodd" d="M2.46875 3.65527H0.46875V6.78027C0.46875 6.90476 0.500739 7.00969 0.523277 7.07222C0.548813 7.14307 0.581332 7.21067 0.614804 7.27187C0.681965 7.39468 0.771894 7.52611 0.877112 7.65864C1.08867 7.92511 1.38913 8.23006 1.76742 8.51909C2.40496 9.0062 3.29145 9.46847 4.375 9.60153V10.5146C4.375 10.748 4.29986 11.1119 4.09279 11.3995C3.90866 11.6552 3.5963 11.8896 3 11.8896V13.1396C4.0037 13.1396 4.69134 12.7074 5.10721 12.1298C5.50014 11.5841 5.625 10.948 5.625 10.5146V9.60153C6.70855 9.46847 7.59504 9.0062 8.23258 8.51909C8.61087 8.23006 8.91133 7.92511 9.12289 7.65864C9.22811 7.52611 9.31804 7.39468 9.3852 7.27187C9.41867 7.21067 9.45119 7.14307 9.47672 7.07222C9.49926 7.00969 9.53125 6.90476 9.53125 6.78027V3.65527H7.125V0.860352H5.875V3.65527H3.71875V0.860352H2.46875V3.65527ZM1.71875 4.90527V6.68499C1.74476 6.73025 1.78927 6.79723 1.85609 6.8814C2.00196 7.06513 2.22806 7.29794 2.52633 7.52583C3.12329 7.98194 3.97001 8.38965 5 8.38965C6.02999 8.38965 6.87671 7.98194 7.47367 7.52583C7.77194 7.29794 7.99804 7.06513 8.14391 6.8814C8.21073 6.79723 8.25524 6.73025 8.28125 6.68499V4.90527H1.71875Z" fill="currentColor"/> </svg>