<svg width="15" height="17" viewBox="0 0 15 17" fill="none" xmlns="http://www.w3.org/2000/svg">
<path fill-rule="evenodd" clip-rule="evenodd" d="M4.51499 3.40758C4.51499 2.64819 5.1306 2.03258 5.88999 2.03258H8.70689C9.46628 2.03258 10.0819 2.64819 10.0819 3.40758V3.76497H4.51499V3.40758ZM11.3319 3.40758V3.81892C13.0263 4.11488 14.3143 5.59321 14.3143 7.37236V9.9287C14.3143 11.6568 13.0991 13.1012 11.4766 13.4538L11.5886 14.2376C11.7285 15.2166 10.9688 16.0924 9.97994 16.0924H4.61694C3.62805 16.0924 2.86842 15.2166 3.00827 14.2376L3.12025 13.4538C1.49777 13.1012 0.282593 11.6568 0.282593 9.92871V7.37237C0.282593 5.59321 1.57057 4.11489 3.26499 3.81892V3.40758C3.26499 1.95783 4.44024 0.782578 5.88999 0.782578H8.70689C10.1566 0.782578 11.3319 1.95783 11.3319 3.40758ZM3.29778 12.2111L3.57467 10.2728C3.68904 9.47228 4.37466 8.87765 5.18334 8.87765H9.41354C10.2222 8.87765 10.9078 9.47228 11.0222 10.2728L11.2991 12.2111C12.3144 11.9484 13.0643 11.0261 13.0643 9.9287V7.37236C13.0643 6.07041 12.0088 5.01497 10.7069 5.01497H3.88999C2.58803 5.01497 1.53259 6.07041 1.53259 7.37237V9.92871C1.53259 11.0261 2.28247 11.9484 3.29778 12.2111ZM4.81211 10.4496C4.8385 10.2649 4.99672 10.1276 5.18334 10.1276H9.41354C9.60016 10.1276 9.75838 10.2649 9.78477 10.4496L10.3512 14.4144C10.3834 14.6403 10.2081 14.8424 9.97994 14.8424H4.61694C4.38873 14.8424 4.21344 14.6403 4.24571 14.4144L4.81211 10.4496ZM11.1329 6.52025C11.1329 6.28495 11.3237 6.0942 11.559 6.0942C11.7943 6.0942 11.9851 6.28495 11.9851 6.52025C11.9851 6.75556 11.7943 6.94631 11.559 6.94631C11.3237 6.94631 11.1329 6.75556 11.1329 6.52025ZM9.85478 6.0942C9.61947 6.0942 9.42872 6.28495 9.42872 6.52025C9.42872 6.75556 9.61947 6.94631 9.85478 6.94631C10.0901 6.94631 10.2808 6.75556 10.2808 6.52025C10.2808 6.28495 10.0901 6.0942 9.85478 6.0942Z" fill="currentColor"/>
</svg>
