<svg width="13" height="16" viewBox="0 0 13 16" fill="none" xmlns="http://www.w3.org/2000/svg">
<path fill-rule="evenodd" clip-rule="evenodd" d="M4.05554 0.375H3.43054V1V4.30911C2.69983 4.68509 1.9895 5.23016 1.43585 5.9995C0.783752 6.90564 0.375 8.08734 0.375 9.58937C0.375 11.6343 1.13287 13.0701 2.19592 14.0247C3.2395 14.9619 4.53418 15.3985 5.58069 15.554C5.90973 15.6029 6.2207 15.625 6.5 15.625C6.80511 15.625 7.14844 15.5986 7.5119 15.5396C8.55524 15.3703 9.82794 14.9219 10.8495 13.9835C11.8894 13.0282 12.625 11.6039 12.625 9.58937C12.625 8.08734 12.2162 6.90564 11.5641 5.9995C11.0105 5.23016 10.3002 4.68509 9.56946 4.30911V1V0.375H8.94446H4.05554ZM4.68054 4.70404V1.625H8.31946V4.70404V5.11337L8.6947 5.27696C9.39465 5.58214 10.0596 6.04884 10.5496 6.72963C10.9827 7.33147 11.2994 8.12862 11.3632 9.18927C9.94666 9.74951 8.117 9.6964 6.77875 9.02991C5.28131 8.28415 3.34204 8.15704 1.69397 8.64859C1.81677 7.85158 2.0943 7.22456 2.45044 6.72963C2.94037 6.04884 3.60535 5.58214 4.3053 5.27696L4.68054 5.11337V4.70404Z" fill="currentColor"/>
</svg>
