<svg width="12" height="12" viewBox="0 0 12 12" fill="none" xmlns="http://www.w3.org/2000/svg">
<path fill-rule="evenodd" clip-rule="evenodd" d="M7.05806 2.44194C5.78336 1.16724 3.71665 1.16724 2.44194 2.44194C1.16724 3.71665 1.16724 5.78336 2.44194 7.05806C3.71665 8.33277 5.78336 8.33277 7.05806 7.05806C8.33277 5.78336 8.33277 3.71665 7.05806 2.44194ZM1.55806 1.55806C3.32092 -0.204799 6.17908 -0.204799 7.94195 1.55806C9.55485 3.17097 9.69205 5.70076 8.35354 7.46966L11.1919 10.3081L10.3081 11.1919L7.46966 8.35354C5.70076 9.69205 3.17097 9.55485 1.55806 7.94195C-0.204799 6.17908 -0.204799 3.32092 1.55806 1.55806Z" fill="currentColor"/>
</svg>
