<svg width="13" height="13" viewBox="0 0 13 13" fill="none" xmlns="http://www.w3.org/2000/svg">
<path fill-rule="evenodd" clip-rule="evenodd" d="M4.07383 9.67091L3.83443 10.2482C4.07024 10.346 4.32882 10.4 4.6 10.4H5.4V9.775V9.15H4.6C4.496 9.15 4.39994 9.12953 4.31324 9.09358L4.07383 9.67091ZM10.2 9.775V10.4L9.15 10.4V11C9.15 11.4142 8.81421 11.75 8.4 11.75H2C1.58579 11.75 1.25 11.4142 1.25 11V4.6C1.25 4.18579 1.58579 3.85 2 3.85H2.6V2.8H3.225H3.85V2C3.85 1.896 3.87047 1.79994 3.90642 1.71324L3.32909 1.47383L2.75176 1.23443C2.65397 1.47024 2.6 1.72882 2.6 2V2.6H2C0.895431 2.6 0 3.49543 0 4.6V11C0 12.1046 0.895432 13 2 13H8.4C9.50457 13 10.4 12.1046 10.4 11V10.4L11 10.4C11.2712 10.4 11.5298 10.346 11.7656 10.2482L11.5262 9.67091L11.2868 9.09358C11.2001 9.12953 11.104 9.15 11 9.15H10.2V9.775ZM12.375 2.8H13V2C13 1.72882 12.946 1.47024 12.8482 1.23442L12.2709 1.47383L11.6936 1.71324C11.7295 1.79994 11.75 1.896 11.75 2V2.8H12.375ZM4.6 0H5.4V0.625V1.25H4.6C4.496 1.25 4.39994 1.27047 4.31324 1.30642L4.07383 0.72909L3.83442 0.151761C4.07024 0.0539724 4.32882 0 4.6 0ZM3.225 7.6H2.6V8.4C2.6 8.67118 2.65397 8.92976 2.75176 9.16558L3.32909 8.92617L3.90642 8.68676C3.87047 8.60006 3.85 8.504 3.85 8.4V7.6H3.225ZM3.225 6H2.6V4.4H3.225H3.85V6H3.225ZM7 0.625V0H8.6V0.625V1.25H7V0.625ZM10.2 0.625V0H11C11.2712 0 11.5298 0.0539723 11.7656 0.151761L11.5262 0.72909L11.2868 1.30642C11.2001 1.27047 11.104 1.25 11 1.25H10.2V0.625ZM12.375 4.4H13V6H12.375H11.75V4.4H12.375ZM12.375 7.6H13V8.4C13 8.67118 12.946 8.92976 12.8482 9.16557L12.2709 8.92617L11.6936 8.68676C11.7295 8.60006 11.75 8.504 11.75 8.4V7.6H12.375ZM8.6 9.775V10.4H7V9.775V9.15H8.6V9.775Z" fill="currentColor"/>
</svg>
