<svg width="13" height="13" viewBox="0 0 13 13" fill="none" xmlns="http://www.w3.org/2000/svg">
<path fill-rule="evenodd" clip-rule="evenodd" d="M4.6 1.25H11C11.4142 1.25 11.75 1.58579 11.75 2V8.4C11.75 8.81421 11.4142 9.15 11 9.15H4.6C4.18579 9.15 3.85 8.81421 3.85 8.4V2C3.85 1.58579 4.18579 1.25 4.6 1.25ZM2.6 2C2.6 0.895432 3.49543 0 4.6 0H11C12.1046 0 13 0.895431 13 2V8.4C13 9.50457 12.1046 10.4 11 10.4H4.6C3.49543 10.4 2.6 9.50457 2.6 8.4V2ZM2 2.6H2.07999V3.85H2C1.896 3.85 1.79994 3.87047 1.71324 3.90642L1.47383 3.32909L1.23442 2.75176C1.47024 2.65397 1.72882 2.6 2 2.6ZM9.15 11V10.92H10.4V11C10.4 11.2712 10.346 11.5298 10.2482 11.7656L9.67091 11.5262L9.09358 11.2868C9.12953 11.2001 9.15 11.104 9.15 11ZM1.23443 12.8482L1.47383 12.2709L1.71324 11.6936C1.79994 11.7295 1.896 11.75 2 11.75H2.8V12.375V13H2C1.72882 13 1.47024 12.946 1.23443 12.8482ZM7.6 13V12.375V11.75H8.4C8.504 11.75 8.60006 11.7295 8.68676 11.6936L8.92617 12.2709L9.16558 12.8482C8.92976 12.946 8.67118 13 8.4 13H7.6ZM0 10.2H0.625H1.25V11C1.25 11.104 1.27047 11.2001 1.30642 11.2868L0.72909 11.5262L0.151761 11.7656C0.0539724 11.5298 0 11.2712 0 11V10.2ZM0 8.6H0.625H1.25V7H0.625H0V8.6ZM0 5.4H0.625H1.25V4.6C1.25 4.496 1.27047 4.39994 1.30642 4.31324L0.72909 4.07383L0.151761 3.83443C0.0539723 4.07024 0 4.32882 0 4.6V5.4ZM6 13V12.375V11.75H4.4V12.375V13H6Z" fill="currentColor"/>
</svg>
