<svg width="17" height="14" viewBox="0 0 17 14" fill="none" xmlns="http://www.w3.org/2000/svg">
<path fill-rule="evenodd" clip-rule="evenodd" d="M4.79384 2.22052C4.68598 2.22052 4.58334 2.26696 4.51214 2.34799L3.36773 3.65037H13.2444L12.3098 2.37397C12.2392 2.27752 12.1268 2.22052 12.0072 2.22052H4.79384ZM15.4128 4.49584L13.3183 1.63547C13.0123 1.21751 12.5253 0.97052 12.0072 0.97052H4.79384C4.32644 0.97052 3.88167 1.17178 3.57315 1.52289L1.06723 4.37471C1.03562 4.40873 1.00458 4.44417 0.974204 4.48107C0.589396 4.94848 0.350955 5.60266 0.350955 6.4639C0.350955 7.46948 0.676777 8.1869 1.16541 8.65242C0.676776 9.11794 0.350952 9.83537 0.350952 10.841C0.350952 11.8613 0.686381 12.5849 1.18697 13.0498C1.66957 13.4979 2.25165 13.6545 2.67278 13.6545H13.7022C14.1233 13.6545 14.7054 13.4979 15.188 13.0498C15.6886 12.5849 16.024 11.8613 16.024 10.841C16.024 9.83537 15.6982 9.11795 15.2096 8.65243C15.6982 8.18691 16.024 7.46948 16.024 6.4639C16.024 5.61169 15.7906 4.96223 15.4128 4.49584ZM13.7022 8.02742C13.8467 8.02742 14.113 7.96513 14.3374 7.75674C14.5438 7.56504 14.774 7.19442 14.774 6.4639C14.774 5.84043 14.6057 5.48203 14.4357 5.27556C14.1961 4.98451 13.8724 4.90037 13.7022 4.90037H2.67279C2.51458 4.90037 2.22371 4.97307 1.99106 5.21707L1.93359 5.28247C1.76555 5.49 1.60096 5.84733 1.60096 6.4639C1.60096 7.19442 1.83114 7.56504 2.03757 7.75674C2.26197 7.96513 2.52831 8.02742 2.67279 8.02742H13.7022ZM2.67279 9.27742H13.7022C13.8467 9.27742 14.113 9.33972 14.3374 9.54811C14.5438 9.73981 14.774 10.1104 14.774 10.841C14.774 11.5715 14.5438 11.9421 14.3374 12.1338C14.113 12.3422 13.8467 12.4045 13.7022 12.4045H2.67278C2.52831 12.4045 2.26197 12.3422 2.03756 12.1338C1.83113 11.9421 1.60095 11.5715 1.60095 10.841C1.60095 10.1104 1.83113 9.73981 2.03756 9.54811C2.26197 9.33972 2.52831 9.27742 2.67279 9.27742ZM13.4759 6.35967C13.4759 6.8859 13.0454 7.3125 12.5144 7.3125C11.9834 7.3125 11.5529 6.8859 11.5529 6.35967C11.5529 5.83344 11.9834 5.40684 12.5144 5.40684C13.0454 5.40684 13.4759 5.83344 13.4759 6.35967ZM9.62981 7.3125C10.1609 7.3125 10.5914 6.8859 10.5914 6.35967C10.5914 5.83344 10.1609 5.40684 9.62981 5.40684C9.09877 5.40684 8.66827 5.83344 8.66827 6.35967C8.66827 6.8859 9.09877 7.3125 9.62981 7.3125Z" fill="currentColor"/>
</svg>
