<svg width="16" height="16" viewBox="0 0 16 16" fill="none" xmlns="http://www.w3.org/2000/svg">
<path fill-rule="evenodd" clip-rule="evenodd" d="M1.21368 3.54335C1.44364 1.73242 2.98433 0.375 4.80981 0.375H11.1902C13.0157 0.375 14.5564 1.73241 14.7863 3.54335L15.625 10.148V12C15.625 14.002 14.002 15.625 12 15.625H4C1.99797 15.625 0.375 14.002 0.375 12V10.148L1.21368 3.54335ZM4.80981 1.625C3.61381 1.625 2.60439 2.51434 2.45372 3.70082L2.36262 4.41825C2.67149 4.49116 2.93393 4.64318 3.13249 4.77207C3.24155 4.84286 3.35203 4.92114 3.44865 4.98959C3.47581 5.00883 3.50187 5.0273 3.5265 5.04461C3.64782 5.12985 3.74543 5.1951 3.83372 5.24347C3.9495 5.30689 4.15463 5.375 4.5 5.375C4.96346 5.375 5.17503 5.25336 5.26362 5.1769C5.29209 5.15233 5.32732 5.12066 5.3674 5.08465C5.48797 4.97629 5.65232 4.82859 5.80779 4.71652C6.02823 4.55763 6.34988 4.375 6.75 4.375C7.15012 4.375 7.47177 4.55763 7.69221 4.71652C7.84769 4.82859 8.01203 4.97629 8.13261 5.08465C8.17268 5.12067 8.20791 5.15233 8.23638 5.1769C8.32497 5.25336 8.53654 5.375 9 5.375C9.46346 5.375 9.67503 5.25336 9.76362 5.1769C9.79208 5.15233 9.82732 5.12067 9.86739 5.08466C9.98796 4.97629 10.1523 4.82859 10.3078 4.71652C10.5282 4.55763 10.8499 4.375 11.25 4.375C11.6501 4.375 11.9718 4.55763 12.1922 4.71652C12.3477 4.82859 12.512 4.97629 12.6326 5.08465C12.6727 5.12067 12.7079 5.15233 12.7364 5.1769C12.8038 5.23506 12.9351 5.31402 13.183 5.3525C13.1923 5.35394 13.1987 5.35246 13.2036 5.35024C13.2085 5.34799 13.2145 5.34371 13.2201 5.33489C13.2316 5.31679 13.2443 5.29636 13.2581 5.27412C13.3401 5.14217 13.4618 4.9462 13.6045 4.79132C13.6267 4.76722 13.6504 4.74299 13.6756 4.719L13.5463 3.70081C13.3956 2.51434 12.3862 1.625 11.1902 1.625H4.80981ZM13.8886 6.39628C13.629 6.56483 13.3117 6.63745 12.9913 6.58771C12.5448 6.51842 12.1877 6.35456 11.9197 6.12321C11.8507 6.06371 11.7926 6.01134 11.7399 5.96382C11.64 5.87386 11.5594 5.80127 11.4613 5.73056C11.3247 5.63208 11.2641 5.625 11.25 5.625C11.2359 5.625 11.1753 5.63208 11.0387 5.73056C10.9406 5.80127 10.86 5.87386 10.7602 5.96382C10.7074 6.01134 10.6493 6.06371 10.5803 6.12321C10.2136 6.43972 9.68803 6.625 9 6.625C8.31197 6.625 7.78641 6.43972 7.41968 6.12321C7.35074 6.06371 7.2926 6.01134 7.23985 5.96382C7.13998 5.87386 7.0594 5.80127 6.9613 5.73056C6.82467 5.63208 6.7641 5.625 6.75 5.625C6.7359 5.625 6.67533 5.63208 6.5387 5.73056C6.4406 5.80127 6.36002 5.87386 6.26015 5.96382C6.2074 6.01134 6.14926 6.06371 6.08032 6.12321C5.71359 6.43972 5.18803 6.625 4.5 6.625C3.9909 6.625 3.56972 6.5241 3.23319 6.33976C3.07929 6.25546 2.93317 6.15542 2.80785 6.06737C2.77442 6.04388 2.74265 6.02138 2.71203 5.9997C2.61957 5.93422 2.53759 5.87617 2.4519 5.82054C2.35134 5.75527 2.26964 5.71007 2.20244 5.6797L1.625 10.227V12C1.625 13.3117 2.68832 14.375 4 14.375H4.45833V10.5C4.45833 9.60254 5.18587 8.875 6.08333 8.875H9.91667C10.8141 8.875 11.5417 9.60254 11.5417 10.5V14.375H12C13.3117 14.375 14.375 13.3117 14.375 12V10.227L13.8886 6.39628ZM10.2917 14.375V10.5C10.2917 10.2929 10.1238 10.125 9.91667 10.125H6.08333C5.87623 10.125 5.70833 10.2929 5.70833 10.5V14.375H10.2917Z" fill="currentColor"/>
</svg>
