<svg width="14" height="14" viewBox="0 0 14 14" fill="none" xmlns="http://www.w3.org/2000/svg">
<path fill-rule="evenodd" clip-rule="evenodd" d="M11.193 2.49999C11.3106 2.58573 11.4142 2.68932 11.5 2.80699C11.5857 2.68932 11.6893 2.58573 11.807 2.49999C11.6893 2.41425 11.5857 2.31066 11.5 2.193C11.4142 2.31066 11.3106 2.41425 11.193 2.49999ZM9.71551 2.14222C9.42069 2.28963 9.42069 2.71035 9.71551 2.85776L10.5474 3.2737C10.6248 3.3124 10.6876 3.37517 10.7263 3.45258L11.1422 4.28445C11.2896 4.57927 11.7103 4.57927 11.8577 4.28445L12.2737 3.45258C12.3124 3.37517 12.3751 3.3124 12.4526 3.2737L13.2844 2.85776C13.5792 2.71035 13.5792 2.28963 13.2844 2.14222L12.4526 1.72629C12.3751 1.68758 12.3124 1.62481 12.2737 1.5474L11.8577 0.715534C11.7103 0.420715 11.2896 0.420715 11.1422 0.715535L10.7263 1.5474C10.6876 1.62481 10.6248 1.68758 10.5474 1.72629L9.71551 2.14222ZM2.19297 11.5C2.31064 11.5857 2.41423 11.6893 2.49997 11.807C2.58571 11.6893 2.6893 11.5857 2.80697 11.5C2.6893 11.4143 2.58571 11.3107 2.49997 11.193C2.41423 11.3107 2.31064 11.4143 2.19297 11.5ZM0.715511 11.1422C0.420692 11.2896 0.420693 11.7104 0.715512 11.8578L1.54738 12.2737C1.62479 12.3124 1.68756 12.3752 1.72626 12.4526L2.1422 13.2845C2.28961 13.5793 2.71033 13.5793 2.85774 13.2844L3.27367 12.4526C3.31238 12.3752 3.37515 12.3124 3.45256 12.2737L4.28443 11.8578C4.57925 11.7104 4.57925 11.2896 4.28443 11.1422L3.45256 10.7263C3.37515 10.6876 3.31238 10.6248 3.27367 10.5474L2.85774 9.71553C2.71033 9.42071 2.28961 9.42072 2.1422 9.71554L1.72626 10.5474C1.68756 10.6248 1.62479 10.6876 1.54738 10.7263L0.715511 11.1422ZM2.23604 6.99999L4.81571 5.71016C5.20276 5.51663 5.51661 5.20278 5.71013 4.81573L6.99997 2.23606L8.2898 4.81573C8.48333 5.20279 8.79718 5.51663 9.18423 5.71016L11.7639 6.99999L9.18423 8.28983C8.79718 8.48335 8.48333 8.7972 8.2898 9.18425L6.99997 11.7639L5.71013 9.18425C5.51661 8.7972 5.20276 8.48335 4.81571 8.28983L2.23604 6.99999ZM1.78882 7.89442C1.05177 7.52589 1.05178 6.47409 1.78882 6.10557L4.36849 4.81573C4.56202 4.71897 4.71894 4.56204 4.81571 4.36852L6.10554 1.78885C6.47407 1.0518 7.52587 1.0518 7.8944 1.78885L9.18423 4.36852C9.281 4.56204 9.43792 4.71897 9.63144 4.81573L12.2111 6.10557C12.9482 6.47409 12.9482 7.5259 12.2111 7.89442L9.63144 9.18425C9.43792 9.28102 9.281 9.43794 9.18423 9.63147L7.8944 12.2111C7.52587 12.9482 6.47407 12.9482 6.10554 12.2111L4.81571 9.63147C4.71894 9.43794 4.56202 9.28102 4.36849 9.18425L1.78882 7.89442Z" fill="currentColor"/>
</svg>
