<svg width="13" height="15" viewBox="0 0 13 15" fill="none" xmlns="http://www.w3.org/2000/svg">
<path fill-rule="evenodd" clip-rule="evenodd" d="M3.99937 0.375C3.99969 0.375 4 0.375 4 1V0.375H4.5H5V0.995745C5 0.375 5.00031 0.375 5.00063 0.375H5.0013L5.00271 0.375006L5.0059 0.375025L5.01368 0.375121L5.03471 0.375655C5.05107 0.376207 5.07213 0.377212 5.09725 0.379028C5.14727 0.382644 5.21458 0.389566 5.2937 0.402912C5.449 0.429111 5.66546 0.482667 5.88937 0.595985C6.11588 0.710624 6.36029 0.892009 6.54651 1.17474C6.73506 1.46102 6.83929 1.81399 6.83929 2.22909V2.23758V2.24609V2.2546V2.26312V2.27165V2.28019V2.28873V2.29729V2.30586V2.31444V2.32302V2.33162V2.34022V2.34883V2.35746V2.36609V2.37473V2.38338V2.39203V2.4007V2.40938V2.41806V2.42675V2.43545V2.44416V2.45288V2.46161V2.47034V2.47908V2.48783V2.49659V2.50536V2.51414V2.52292V2.53171V2.54051V2.54932V2.55813V2.56696V2.57579V2.58463V2.59347V2.60233V2.61119V2.62006V2.62894V2.63782V2.64671V2.65561V2.66452V2.67343V2.68235V2.69128V2.70021V2.70916V2.71811V2.72706V2.73602V2.74499V2.75397V2.76295V2.77194V2.78094V2.78994V2.79895V2.80797V2.81699V2.82602V2.83506V2.8441V2.85315V2.8622V2.87127V2.88033V2.88941V2.89848V2.90757V2.91666V2.92576V2.93486V2.94397V2.95308V2.9622V2.97133V2.98046V2.9896V2.99874V3.00789V3.01704V3.0262V3.03536V3.04453V3.05371V3.06289V3.07207V3.08126V3.09046V3.09966V3.10886V3.11807V3.12728V3.1365V3.14573V3.15496V3.16419V3.17343V3.18267V3.19192V3.20117V3.21042V3.21968V3.22895V3.23822V3.24749V3.25677V3.26605V3.27533V3.28462V3.29392V3.30321V3.31251V3.32182V3.33113V3.34044V3.34976V3.35908V3.3684V3.37773V3.38706V3.39639V3.40573V3.41507V3.42441V3.43376V3.44311V3.45246V3.46182V3.47118V3.48054V3.48991V3.49927V3.50864V3.51802V3.5274V3.53677V3.54616V3.55554V3.56493V3.57432V3.58371V3.59311V3.6025V3.6119V3.6213V3.63071V3.64011V3.64952V3.65893V3.66834V3.67776V3.68717V3.69659V3.70601V3.71543V3.72486V3.73428V3.74371V3.75314V3.76257V3.772V3.78143V3.79087V3.8003V3.80974V3.81918V3.82862V3.83806V3.8475V3.85694V3.86639V3.87583V3.88528V3.89472V3.90417V3.91362V3.92307V3.93252V3.94197V3.95142V3.96087V3.97032V3.97977V3.98923V3.99868V4.00813V4.01759V4.02704V4.03649V4.04595V4.0554V4.06486V4.07431V4.08377V4.09322V4.10267V4.11213V4.12158V4.13103V4.14048V4.14994V4.15939V4.16884V4.17829V4.18774V4.19719V4.20664V4.21608V4.22553V4.23498V4.24442V4.25387V4.26331V4.27275V4.28219V4.29163V4.30107V4.31051V4.31994V4.32938V4.33881V4.34824V4.35767V4.3671V4.37653V4.38595V4.39538V4.4048V4.41422V4.42364V4.43306V4.44247V4.45188V4.4613V4.4707V4.48011V4.48951V4.49892V4.50832V4.51771V4.52711V4.5365V4.54589V4.55528V4.56467V4.57405V4.58343V4.59281V4.60218V4.61155V4.62092V4.63029V4.63965V4.64901V4.65837V4.66772V4.67707V4.68642V4.69576V4.70511V4.71444V4.72378V4.73311V4.74244V4.75176V4.76108V4.7704V4.77971V4.78902V4.79833V4.80763V4.81693V4.82622V4.83551V4.8448V4.85408V4.86336V4.87263V4.8819V4.89117V4.90043V4.90968V4.91894V4.92818V4.93743V4.94667V4.9559V4.96513V4.97436V4.98358V4.99279V5.002V5.01121V5.02041V5.02961V5.0388V5.04798V5.05716V5.06634V5.07551V5.08467V5.09383V5.10299V5.11214V5.12128V5.13042V5.13955V5.14868V5.1578V5.16692V5.17603V5.18513V5.19423V5.20332V5.21241V5.22149V5.23056V5.23963V5.24869V5.25775V5.2668V5.27584V5.28488V5.29391V5.30293V5.31195V5.32096V5.32997V5.33897V5.34796V5.35694V5.36592V5.37489V5.38386V5.39282V5.40177V5.41071V5.41965V5.42858V5.4375V5.44641V5.45532V5.46422V5.47312V5.482V5.49088V5.49975V5.50861V5.51747V5.52632V5.53516V5.54399V5.55282V5.56163V5.57044V5.57925V5.58804V5.59682V5.6056V5.61437V5.62313V5.63189V5.64063V5.64937V5.6581V5.66681V5.67553V5.68423V5.69292V5.70161V5.71029V5.71895V5.72761V5.73626V5.74491V5.75354V5.76216V5.77078V5.77939V5.78798V5.79657V5.80515V5.81372V5.82228V5.83083V5.83937V5.8479V5.85643V5.86494V5.87344V5.88194V5.89042V5.8989V5.90736V5.91582V5.92426V5.9327V5.94112V5.94954V5.95794V5.96634V5.97472V5.9831V5.99146V5.99982V6.00816V6.0165V6.02482V6.03313V6.04143V6.04973V6.05801V6.06628V6.07454V6.08279V6.09102V6.09925V6.10747V6.11567V6.12387V6.13205V6.14022V6.14839V6.15654V6.16467V6.1728V6.18092V6.18902V6.19712V6.2052V6.21327V6.22133V6.22937V6.23741V6.24543V6.25344V6.26144V6.26943V6.27741V6.28537V6.29332V6.30126V6.30919V6.31711V6.32501V6.3329V6.34078V6.34865V6.3565V6.36434V6.37217V6.37999V6.38779V6.39559V6.40337V6.41113V6.41888V6.42662V6.43435V6.44207V6.44977V6.45746V6.46513V6.4728V6.48044V6.48808V6.4957V6.50331V6.51091V6.51849V6.52606V6.53362V6.54116V6.54869V6.5562V6.5637V6.57119V6.57866V6.58612V6.59357V6.601V6.60842V6.61582V6.62321V6.63059V6.63795V6.64529V6.65263V6.65994V6.66725V6.67454V6.68181V6.68907V6.69632V6.70355V6.71077V6.71797V6.72516V6.73233V6.73949V6.74663V6.75376V6.76087C6.83929 6.87494 6.88892 7.04092 7.01991 7.25691C7.14691 7.46633 7.32045 7.67397 7.49574 7.86021C8.07028 8.47064 8.625 9.48474 8.625 10.8327C8.625 12.3441 7.30488 14.625 4.5 14.625C1.69512 14.625 0.375 12.3441 0.375 10.8327C0.375 9.48474 0.929716 8.47064 1.50426 7.86021C1.67939 7.67414 1.85294 7.46631 1.97997 7.25668C2.11102 7.04041 2.16071 6.87415 2.16071 6.76V2.22909C2.16071 1.81399 2.26494 1.46102 2.45349 1.17474C2.63971 0.892009 2.88412 0.710624 3.11063 0.595986C3.33454 0.482667 3.551 0.429111 3.7063 0.402913C3.78541 0.389566 3.85273 0.382644 3.90275 0.379028C3.92787 0.377212 3.94893 0.376207 3.96529 0.375656L3.98631 0.375121L3.9941 0.375025L3.99729 0.375006L3.9987 0.375H3.99937ZM4.00599 1.625H4.5H4.99401L5.00711 1.62577C5.02349 1.62696 5.05104 1.62964 5.08576 1.6355C5.15814 1.64771 5.24525 1.67097 5.32492 1.71129C5.40197 1.75028 5.46114 1.79935 5.5026 1.8623C5.54172 1.92171 5.58929 2.02964 5.58929 2.22909V2.23758V2.24609V2.2546V2.26312V2.27165V2.28019V2.28873V2.29729V2.30586V2.31444V2.32302V2.33162V2.34022V2.34883V2.35746V2.36609V2.37473V2.38338V2.39203V2.4007V2.40938V2.41806V2.42675V2.43545V2.44416V2.45288V2.46161V2.47034V2.47908V2.48783V2.49659V2.50536V2.51414V2.52292V2.53171V2.54051V2.54932V2.55813V2.56696V2.57579V2.58463V2.59347V2.60233V2.61119V2.62006V2.62894V2.63782V2.64671V2.65561V2.66452V2.67343V2.68235V2.69128V2.70021V2.70916V2.71811V2.72706V2.73602V2.74499V2.75397V2.76295V2.77194V2.78094V2.78994V2.79895V2.80797V2.81699V2.82602V2.83506V2.8441V2.85315V2.8622V2.87127V2.88033V2.88941V2.89848V2.90757V2.91666V2.92576V2.93486V2.94397V2.95308V2.9622V2.97133V2.98046V2.9896V2.99874V3.00789V3.01704V3.0262V3.03536V3.04453V3.05371V3.06289V3.07207V3.08126V3.09046V3.09966V3.10886V3.11807V3.12728V3.1365V3.14573V3.15496V3.16419V3.17343V3.18267V3.19192V3.20117V3.21042V3.21968V3.22895V3.23822V3.24749V3.25677V3.26605V3.27533V3.28462V3.29392V3.30321V3.31251V3.32182V3.33113V3.34044V3.34976V3.35908V3.3684V3.37773V3.38706V3.39639V3.40573V3.41507V3.42441V3.43376V3.44311V3.45246V3.46182V3.47118V3.48054V3.48991V3.49927V3.50864V3.51802V3.5274V3.53677V3.54616V3.55554V3.56493V3.57432V3.58371V3.59311V3.6025V3.6119V3.6213V3.63071V3.64011V3.64952V3.65893V3.66834V3.67776V3.68717V3.69659V3.70601V3.71543V3.72486V3.73428V3.74371V3.75314V3.76257V3.772V3.78143V3.79087V3.8003V3.80974V3.81918V3.82862V3.83806V3.8475V3.85694V3.86639V3.87583V3.88528V3.89472V3.90417V3.91362V3.92307V3.93252V3.94197V3.95142V3.96087V3.97032V3.97977V3.98923V3.99868V4.00813V4.01759V4.02704V4.03649V4.04595V4.0554V4.06486V4.07431V4.08377V4.09322V4.10267V4.11213V4.12158V4.13103V4.14048V4.14994V4.15939V4.16884V4.17829V4.18774V4.19719V4.20664V4.21608V4.22553V4.23498V4.24442V4.25387V4.26331V4.27275V4.28219V4.29163V4.30107V4.31051V4.31994V4.32938V4.33881V4.34824V4.35767V4.3671V4.37653V4.38595V4.39538V4.4048V4.41422V4.42364V4.43306V4.44247V4.45188V4.4613V4.4707V4.48011V4.48951V4.49892V4.50832V4.51771V4.52711V4.5365V4.54589V4.55528V4.56467V4.57405V4.58343V4.59281V4.60218V4.61155V4.62092V4.63029V4.63965V4.64901V4.65837V4.66772V4.67707V4.68642V4.69576V4.70511V4.71444V4.72378V4.73311V4.74244V4.75176V4.76108V4.7704V4.77971V4.78902V4.79833V4.80763V4.81693V4.82622V4.83551V4.8448V4.85408V4.86336V4.87263V4.8819V4.89117V4.90043V4.90968V4.91894V4.92818V4.93743V4.94667V4.9559V4.96513V4.97436V4.98358V4.99279V5.002V5.01121V5.02041V5.02961V5.0388V5.04798V5.05716V5.06634V5.07551V5.08467V5.09383V5.10299V5.11214V5.12128V5.13042V5.13955V5.14868V5.1578V5.16692V5.17603V5.18513V5.19423V5.20332V5.21241V5.22149V5.23056V5.23963V5.24869V5.25775V5.2668V5.27584V5.28488V5.29391V5.30293V5.31195V5.32096V5.32997V5.33897V5.34796V5.35694V5.36592V5.37489V5.38386V5.39282V5.40177V5.41071V5.41965V5.42858V5.4375V5.44641V5.45532V5.46422V5.47312V5.482V5.49088V5.49975V5.50861V5.51747V5.52632V5.53516V5.54399V5.55282V5.56163V5.57044V5.57925V5.58804V5.59682V5.6056V5.61437V5.62313V5.63189V5.64063V5.64937V5.6581V5.66681V5.67553V5.68423V5.69292V5.70161V5.71029V5.71895V5.72761V5.73626V5.74491V5.75354V5.76216V5.77078V5.77939V5.78798V5.79657V5.80515V5.81372V5.82228V5.83083V5.83937V5.8479V5.85643V5.86494V5.87344V5.88194V5.89042V5.8989V5.90736V5.91582V5.92426V5.9327V5.94112V5.94954V5.95794V5.96634V5.97472V5.9831V5.99146V5.99982V6.00816V6.0165V6.02482V6.03313V6.04143V6.04973V6.05801V6.06628V6.07454V6.08279V6.09102V6.09925V6.10747V6.11567V6.12387V6.13205V6.14022V6.14839V6.15654V6.16467V6.1728V6.18092V6.18902V6.19712V6.2052V6.21327V6.22133V6.22937V6.23741V6.24543V6.25344V6.26144V6.26943V6.27741V6.28537V6.29332V6.30126V6.30919V6.31711V6.32501V6.3329V6.34078V6.34865V6.3565V6.36434V6.37217V6.37999V6.38779V6.39559V6.40337V6.41113V6.41888V6.42662V6.43435V6.44207V6.44977V6.45746V6.46513V6.4728V6.48044V6.48808V6.4957V6.50331V6.51091V6.51849V6.52606V6.53362V6.54116V6.54869V6.5562V6.5637V6.57119V6.57866V6.58612V6.59357V6.601V6.60842V6.61582V6.62321V6.63059V6.63795V6.64529V6.65263V6.65994V6.66725V6.67454V6.68181V6.68907V6.69632V6.70355V6.71077V6.71797V6.72516V6.73233V6.73949V6.74663V6.75376V6.76087C5.58929 7.19909 5.76356 7.59587 5.95111 7.90511C6.14264 8.22093 6.38227 8.501 6.58551 8.71693C6.96951 9.12492 7.375 9.8414 7.375 10.8327C7.375 11.7795 6.49512 13.375 4.5 13.375C2.50488 13.375 1.625 11.7795 1.625 10.8327C1.625 9.8414 2.03049 9.12492 2.41449 8.71693C2.61789 8.50083 2.8575 8.22052 3.04901 7.90448C3.2365 7.59508 3.41071 7.19813 3.41071 6.76V2.22909C3.41071 2.02964 3.45828 1.92171 3.4974 1.8623C3.53886 1.79935 3.59803 1.75028 3.67508 1.71129C3.75475 1.67097 3.84186 1.64771 3.91424 1.6355C3.94896 1.62964 3.97651 1.62696 3.99289 1.62577L4.00599 1.625ZM4.5 8.78083C3.87868 8.78083 3.375 9.2845 3.375 9.90583V11.5C3.375 12.1213 3.87868 12.625 4.5 12.625C5.12132 12.625 5.625 12.1213 5.625 11.5V9.90583C5.625 9.28451 5.12132 8.78083 4.5 8.78083ZM7.66086 5.52125L9.66086 7.3674L10 7.68045L10.3391 7.3674L12.3391 5.52125L11.6609 4.78644L10.5 5.85801V1L9.5 1V5.85801L8.33914 4.78644L7.66086 5.52125Z" fill="currentColor"/>
</svg>
