<svg width="14" height="10" viewBox="0 0 14 10" fill="none" xmlns="http://www.w3.org/2000/svg">
<path fill-rule="evenodd" clip-rule="evenodd" d="M4.51792 2.57927C4.6001 2.82041 5.02702 3.5 7 3.5C8.97298 3.5 9.3999 2.8204 9.48208 2.57927C8.44057 0.580918 5.55943 0.580918 4.51792 2.57927ZM10.2607 3.27474L12.4068 4.70547C12.299 4.85716 12.0701 5.07398 11.5899 5.29627C10.7815 5.67053 9.36253 6 7 6C4.63747 6 3.21847 5.67053 2.41006 5.29627C1.92991 5.07398 1.701 4.85716 1.59319 4.70547L3.73928 3.27474C4.16748 3.93767 5.19335 4.5 7 4.5C8.80665 4.5 9.83252 3.93767 10.2607 3.27474ZM3.60926 2.15957C5.00958 -0.612517 8.99042 -0.612517 10.3907 2.15957L13.5 4.23241V4.5C13.5 5.12645 12.9757 5.7567 12.0101 6.20374C11.0185 6.66281 9.43747 7 7 7C4.56253 7 2.98153 6.66281 1.98994 6.20374C1.02435 5.7567 0.5 5.12645 0.5 4.5V4.23241L3.60926 2.15957ZM2.51493 8.87873L3.01493 6.87873L3.98507 7.12127L3.48507 9.12127L2.51493 8.87873ZM10.5149 9.12127L10.0149 7.12127L10.9851 6.87873L11.4851 8.87873L10.5149 9.12127ZM6.5 9.5V7.5H7.5V9.5H6.5Z" fill="currentColor"/>
</svg>
