<svg width="13" height="16" viewBox="0 0 13 16" fill="none" xmlns="http://www.w3.org/2000/svg">
<path fill-rule="evenodd" clip-rule="evenodd" d="M7.9542 2.61105C7.18436 1.73123 5.81567 1.73123 5.04582 2.61105C4.37594 3.37663 4.41436 4.53047 5.13369 5.24979C5.88829 6.00439 7.11174 6.00439 7.86634 5.24979C8.58566 4.53047 8.62408 3.37663 7.9542 2.61105ZM4.1051 1.78792C5.37296 0.338942 7.62706 0.338943 8.89492 1.78792C9.99815 3.04875 9.93488 4.94902 8.75022 6.13368C7.50747 7.37643 5.49256 7.37643 4.2498 6.13368C3.06515 4.94902 3.00187 3.04875 4.1051 1.78792ZM1.15065 10.2652C1.98005 8.87376 3.59347 7.875 6.50001 7.875C9.40655 7.875 11.02 8.87376 11.8494 10.2652C12.6255 11.5674 12.6252 13.0879 12.625 13.9602C12.625 13.9736 12.625 13.9869 12.625 14V15.6251H0.375012V14C0.375012 13.9869 0.375009 13.9736 0.375006 13.9602C0.374818 13.0879 0.374489 11.5674 1.15065 10.2652ZM2.22438 10.9052C1.63748 11.8899 1.62501 13.0926 1.62501 14V14.3751H11.375V14C11.375 13.0926 11.3625 11.8899 10.7756 10.9052C10.23 9.98989 9.09347 9.125 6.50001 9.125C3.90655 9.125 2.76998 9.98989 2.22438 10.9052Z" fill="currentColor"/>
</svg>
