<svg width="14" height="15" viewBox="0 0 14 15" fill="none" xmlns="http://www.w3.org/2000/svg">
<path fill-rule="evenodd" clip-rule="evenodd" d="M4.67083 1.90986C5.44067 1.03005 6.80936 1.03005 7.57921 1.90986C8.24909 2.67544 8.21067 3.82928 7.49134 4.54861C6.73674 5.30321 5.51329 5.30321 4.75869 4.54861C4.03937 3.82928 4.00095 2.67544 4.67083 1.90986ZM8.51993 1.08673C7.25207 -0.362244 4.99796 -0.362245 3.73011 1.08673C2.62688 2.34757 2.69015 4.24783 3.87481 5.43249C5.11756 6.67525 7.13247 6.67525 8.37523 5.43249C9.55988 4.24783 9.62315 2.34757 8.51993 1.08673ZM6.12502 7.17382C3.21848 7.17382 1.60505 8.17257 0.775653 9.56404C-0.000504982 10.8662 -0.000176671 12.3867 1.16801e-05 13.259L1.74617e-05 13.2988V14.9239H12.25V13.2988L12.25 13.259C12.2502 12.3867 12.2505 10.8662 11.4744 9.56404C10.645 8.17257 9.03156 7.17382 6.12502 7.17382ZM1.25002 13.2988C1.25002 12.3914 1.26249 11.1887 1.84938 10.204C2.39498 9.2887 3.53156 8.42382 6.12502 8.42382C8.71847 8.42382 9.85505 9.2887 10.4007 10.204C10.9875 11.1887 11 12.3914 11 13.2988V13.6739H1.25002V13.2988ZM10 6.625H12H14V5.375H12H10V6.625Z" fill="currentColor"/>
</svg>
