<svg width="17" height="16" viewBox="0 0 17 16" fill="none" xmlns="http://www.w3.org/2000/svg">
<path fill-rule="evenodd" clip-rule="evenodd" d="M5.04582 2.61105C5.81566 1.73123 7.18435 1.73123 7.95419 2.61105C8.62407 3.37663 8.58566 4.53047 7.86633 5.24979C7.11173 6.00439 5.88828 6.00439 5.13368 5.24979C4.41436 4.53047 4.37594 3.37663 5.04582 2.61105ZM8.89491 1.78792C7.62706 0.33894 5.37295 0.33894 4.1051 1.78792C3.00187 3.04875 3.06514 4.94902 4.2498 6.13367C5.49255 7.37643 7.50746 7.37643 8.75022 6.13367C9.93487 4.94902 9.99814 3.04875 8.89491 1.78792ZM6.50001 7.875C3.59346 7.875 1.98004 8.87375 1.15064 10.2652C0.374483 11.5674 0.374812 13.0879 0.375 13.9602L0.375006 14V15.0001V15.6251H1.00001H6.87501V15.6434H7.50001H15.5H16.125V15.0184V14.285L16.125 14.2476C16.1253 13.6103 16.1257 12.4569 15.538 11.4628C14.8972 10.3787 13.6589 9.62669 11.5 9.62669C11.462 9.62669 11.4242 9.62693 11.3867 9.62739C11.2957 9.52347 11.1987 9.42293 11.0954 9.32613C11.8634 9.45183 12.6791 9.21706 13.2694 8.62179C14.1877 7.69589 14.2368 6.21863 13.3822 5.23373C12.3886 4.08876 10.6114 4.08876 9.61786 5.23373C8.84208 6.12772 8.81097 7.42737 9.49857 8.35212C8.69932 8.04869 7.7121 7.875 6.50001 7.875ZM12.1668 10.9067C12.6254 12.0396 12.6252 13.2281 12.625 13.9602L12.625 14V14.3934H14.875V14.285C14.875 13.6139 14.8626 12.7767 14.462 12.0989C14.1497 11.5706 13.533 11.0369 12.1668 10.9067ZM1.62501 14C1.62501 13.0926 1.63748 11.8899 2.22437 10.9052C2.76997 9.98988 3.90655 9.125 6.50001 9.125C9.09346 9.125 10.23 9.98988 10.7756 10.9052C11.3625 11.8899 11.375 13.0926 11.375 14V14.3751H1.62501V14ZM12.4381 6.05299C11.9429 5.48234 11.0571 5.48234 10.562 6.05299C10.136 6.54386 10.1605 7.28012 10.6181 7.74158C11.104 8.23148 11.896 8.23148 12.3819 7.74158C12.8395 7.28012 12.864 6.54386 12.4381 6.05299Z" fill="currentColor"/>
</svg>
