<svg width="17" height="12" viewBox="0 0 17 12" fill="none" xmlns="http://www.w3.org/2000/svg">
<path fill-rule="evenodd" clip-rule="evenodd" d="M3 0.375C2.10254 0.375 1.375 1.10254 1.375 2V4H2.625V2C2.625 1.79289 2.79289 1.625 3 1.625H10.4348C10.6419 1.625 10.8098 1.79289 10.8098 2V6.33333V8C10.8098 8.20711 10.6419 8.375 10.4348 8.375H6.71739V9.625H10.4348C11.3322 9.625 12.0598 8.89746 12.0598 8V7.28949L15.7492 8.90581L16.625 9.28949V8.33333V1.66667V0.710511L15.7492 1.09419L12.0598 2.71051V2C12.0598 1.10254 11.3322 0.375 10.4348 0.375H3ZM15.375 7.37718L12.0598 5.9248V4.0752L15.375 2.62282V7.37718ZM2.00181 6.1C2.00181 6.04477 2.04659 6 2.10181 6H3.40635C3.46158 6 3.50635 6.04477 3.50635 6.1V6.79129H2.00181V6.1ZM4.50635 6.1V6.87661C5.08902 7.08233 5.50817 7.63734 5.50817 8.29129V8.87387C5.50817 10.2546 4.38888 11.3739 3.00817 11.3739H2.5C1.11929 11.3739 0 10.2546 0 8.87387V8.29129C0 7.63735 0.419143 7.08233 1.00181 6.87661V6.1C1.00181 5.49249 1.4943 5 2.10181 5H3.40635C4.01387 5 4.50635 5.49249 4.50635 6.1ZM1 8.29129C1 8.01633 1.22449 7.79129 1.50181 7.79129H4.00635C4.28368 7.79129 4.50817 8.01633 4.50817 8.29129V8.87387C4.50817 9.70229 3.83659 10.3739 3.00817 10.3739H2.5C1.67157 10.3739 1 9.70229 1 8.87387V8.29129Z" fill="currentColor"/>
</svg>
