<svg width="16" height="16" viewBox="0 0 16 16" fill="none" xmlns="http://www.w3.org/2000/svg">
<path fill-rule="evenodd" clip-rule="evenodd" d="M12.5556 1.76007C12.4132 1.7388 12.278 1.77219 12.1209 1.92934C12.0011 2.04913 11.7926 2.5072 12.473 3.18753C13.1533 3.86786 13.6114 3.65943 13.7312 3.53964C13.8883 3.38249 13.9217 3.24727 13.9004 3.1049C13.8739 2.92724 13.7452 2.64763 13.379 2.28146C13.0129 1.91529 12.7333 1.7866 12.5556 1.76007ZM14.615 4.42353C15.0172 4.02132 15.2235 3.5012 15.1367 2.92023C15.0552 2.37454 14.7282 1.8628 14.2629 1.39757C13.7977 0.93235 13.286 0.605294 12.7403 0.523783C12.1593 0.437003 11.6392 0.643254 11.237 1.04546L0.871619 11.4108C0.0417556 12.2407 0.0417563 13.5862 0.87162 14.416L1.24448 14.7889C2.07435 15.6188 3.41982 15.6188 4.24969 14.7889L14.615 4.42353ZM12.5393 4.73151C12.2108 4.58992 11.8868 4.36913 11.5891 4.07142C11.2914 3.7737 11.0706 3.44975 10.929 3.12121L9.54779 4.50241C9.39064 4.65957 9.35725 4.79478 9.37852 4.93716C9.40505 5.11482 9.53374 5.39443 9.89991 5.7606C10.2661 6.12677 10.5457 6.25545 10.7233 6.28199C10.8657 6.30325 11.0009 6.26986 11.1581 6.11271L12.5393 4.73151ZM9.94138 7.32942C9.61675 7.17283 9.30727 6.93573 9.01602 6.64448C8.72478 6.35323 8.48768 6.04375 8.33108 5.71913L1.7555 12.2947C1.41379 12.6364 1.41379 13.1904 1.7555 13.5321L2.12837 13.905C2.47007 14.2467 3.0241 14.2467 3.3658 13.905L9.94138 7.32942ZM12.1943 8.15758C12.01 8.06545 12.01 7.8025 12.1943 7.71037L13.0059 7.30457C13.0543 7.28038 13.0935 7.24115 13.1177 7.19277L13.5235 6.38119C13.6156 6.19693 13.8786 6.19692 13.9707 6.38119L14.3765 7.19277C14.4007 7.24115 14.4399 7.28038 14.4883 7.30457L15.2999 7.71037C15.4841 7.8025 15.4841 8.06545 15.2999 8.15758L14.4883 8.56337C14.4399 8.58756 14.4007 8.62679 14.3765 8.67518L13.9707 9.48676C13.8786 9.67102 13.6156 9.67102 13.5235 9.48676L13.1177 8.67518C13.0935 8.62679 13.0543 8.58756 13.0059 8.56337L12.1943 8.15758ZM5.1943 2.71037C5.01004 2.8025 5.01004 3.06545 5.1943 3.15758L6.00588 3.56337C6.05426 3.58756 6.0935 3.62679 6.11769 3.67518L6.52348 4.48676C6.61561 4.67102 6.87856 4.67102 6.97069 4.48676L7.37648 3.67518C7.40067 3.62679 7.43991 3.58756 7.48829 3.56337L8.29987 3.15758C8.48413 3.06545 8.48413 2.8025 8.29987 2.71037L7.48829 2.30457C7.43991 2.28038 7.40067 2.24115 7.37648 2.19277L6.97069 1.38119C6.87856 1.19692 6.61561 1.19693 6.52348 1.38119L6.11769 2.19277C6.0935 2.24115 6.05426 2.28038 6.00588 2.30457L5.1943 2.71037Z" fill="currentColor"/>
</svg>
