<svg width="10" height="10" viewBox="0 0 10 10" fill="none" xmlns="http://www.w3.org/2000/svg">
<path fill-rule="evenodd" clip-rule="evenodd" d="M2.19345e-05 0C5.52287 0 10 4.47715 10 10H8.75002C8.75002 5.16751 4.83251 1.25 2.19345e-05 1.25H0V0H2.19345e-05ZM3.91006e-05 3.53846C3.56865 3.53846 6.46158 6.43139 6.46158 10H5.21158C5.21158 7.12175 2.87829 4.78846 3.91006e-05 4.78846H0V3.53846H3.91006e-05ZM1.21156 7.57692C0.542446 7.57692 2.19345e-05 8.11935 2.19345e-05 8.78846C2.19345e-05 9.45758 0.542446 10 1.21156 10C1.88067 10 2.4231 9.45758 2.4231 8.78846C2.4231 8.11935 1.88067 7.57692 1.21156 7.57692Z" fill="currentColor"/>
</svg>
